<svg id="svg" version="1.1" xmlns="http://www.w3.org/2000/svg" xmlns:xlink="http://www.w3.org/1999/xlink" width="400" height="400" viewBox="0, 0, 400,400"><g id="svgg"><path id="path0" d="M233.421 110.766 C 233.273 111.005,232.538 113.353,231.788 115.984 C 231.038 118.615,229.985 121.630,229.448 122.684 C 228.910 123.738,228.011 125.590,227.450 126.800 C 224.373 133.430,216.283 144.449,203.986 158.758 C 198.497 165.145,194.419 170.337,192.014 174.000 C 190.642 176.090,189.199 178.259,188.807 178.819 C 185.414 183.678,182.805 201.491,184.357 209.200 C 185.523 214.992,187.650 220.400,188.762 220.400 C 189.596 220.400,193.167 217.461,194.028 216.065 C 194.390 215.479,195.071 214.657,195.543 214.238 C 196.694 213.215,196.631 212.613,195.055 209.584 C 189.573 199.047,191.142 186.782,199.531 174.600 C 204.595 167.246,208.173 162.800,209.027 162.800 C 211.501 162.800,216.792 172.056,218.781 179.861 C 220.298 185.818,220.559 186.256,221.400 184.254 C 222.781 180.966,222.883 172.775,221.586 169.364 C 220.988 167.790,220.955 167.841,225.358 163.433 C 236.813 151.964,240.657 137.820,237.000 120.600 C 235.537 113.714,234.078 109.703,233.421 110.766 M297.994 137.491 C 292.128 145.760,278.912 154.668,264.800 159.865 C 253.963 163.857,244.659 169.953,239.411 176.501 C 230.717 187.348,228.605 200.183,232.452 218.800 C 234.064 226.603,233.853 226.512,243.620 223.620 C 250.657 221.537,255.128 219.386,262.512 214.531 C 266.079 212.185,271.717 207.190,276.335 202.285 C 278.486 200.000,280.633 197.181,284.289 191.840 C 289.535 184.177,287.148 190.771,281.407 199.800 C 273.555 212.150,254.436 225.936,240.000 229.656 C 232.454 231.600,221.696 231.652,216.692 229.768 C 214.354 228.888,214.217 228.958,210.211 233.083 C 205.547 237.885,205.460 237.730,214.200 240.158 C 223.484 242.737,239.998 243.064,248.000 240.827 C 248.770 240.612,250.466 240.167,251.769 239.838 C 258.675 238.095,265.425 235.232,272.800 230.919 C 282.369 225.321,287.774 219.795,293.837 209.408 C 294.477 208.313,295.180 207.124,295.400 206.767 C 299.421 200.241,304.354 188.026,305.646 181.400 C 305.861 180.300,306.252 178.320,306.516 177.000 C 307.729 170.927,306.953 154.452,305.208 149.200 C 305.025 148.650,304.295 146.322,303.586 144.026 C 302.342 139.999,300.457 135.952,299.709 135.703 C 299.511 135.637,298.739 136.442,297.994 137.491 " stroke="none" fill="#abcd4a" fill-rule="evenodd"></path><path id="path1" d="M165.481 112.800 C 158.116 133.321,162.861 154.192,177.582 166.020 L 179.350 167.441 178.607 170.020 C 177.658 173.318,177.610 179.957,178.510 183.541 C 179.195 186.267,179.600 187.059,179.600 185.671 C 179.600 179.411,185.233 169.148,192.560 162.059 C 196.295 158.445,196.359 159.111,191.747 153.600 C 176.023 134.813,171.532 127.188,167.130 111.800 L 166.557 109.800 165.481 112.800 M194.479 115.224 C 184.913 120.004,185.865 134.514,195.969 137.927 C 208.492 142.156,217.997 127.145,208.837 117.605 C 205.167 113.784,199.306 112.812,194.479 115.224 M100.240 135.894 C 99.666 136.467,97.565 141.345,96.597 144.350 C 89.118 167.559,93.695 191.312,110.302 215.476 C 122.946 233.873,154.771 245.713,180.000 241.406 C 201.362 237.759,214.030 225.404,216.050 206.248 C 217.207 195.280,213.898 181.091,208.679 174.641 L 207.741 173.482 206.837 174.441 C 206.339 174.968,205.467 176.188,204.899 177.150 C 203.737 179.117,203.632 178.529,206.300 185.000 C 210.318 194.743,209.124 203.921,202.430 214.752 C 192.047 231.552,173.239 235.944,151.600 226.622 C 136.137 219.960,121.153 206.203,114.437 192.501 C 111.921 187.367,111.880 185.166,114.376 189.222 C 126.233 208.493,141.867 220.247,161.885 224.942 L 165.971 225.900 166.355 224.650 C 175.815 193.831,164.861 170.470,136.225 160.393 C 122.738 155.646,108.645 146.255,102.474 137.900 C 100.647 135.428,100.678 135.455,100.240 135.894 " stroke="none" fill="#2e844e" fill-rule="evenodd"></path><path id="path2" d="M0.000 200.000 L 0.000 400.000 200.000 400.000 L 400.000 400.000 400.000 200.000 L 400.000 0.000 200.000 0.000 L 0.000 0.000 0.000 200.000 M167.888 109.819 C 168.202 110.909,168.626 112.475,168.830 113.300 C 169.584 116.354,170.100 118.221,170.405 119.000 C 172.047 123.189,174.820 128.800,175.248 128.800 C 175.441 128.800,175.600 129.126,175.600 129.525 C 175.600 129.923,175.960 130.636,176.400 131.108 C 176.840 131.580,177.200 132.075,177.200 132.208 C 177.200 132.721,183.410 141.706,183.892 141.890 C 184.171 141.998,184.400 142.250,184.400 142.451 C 184.400 142.923,188.154 147.723,190.100 149.741 C 190.925 150.597,191.600 151.428,191.600 151.588 C 191.600 151.748,192.858 153.301,194.394 155.039 C 197.796 158.887,197.790 158.516,194.500 161.638 C 191.245 164.726,187.600 168.784,187.600 169.318 C 187.600 169.532,187.268 169.997,186.863 170.353 C 185.868 171.225,182.398 178.295,181.955 180.351 C 181.760 181.258,181.428 182.675,181.218 183.500 C 181.008 184.325,180.727 185.540,180.594 186.200 C 180.460 186.860,180.269 187.805,180.168 188.300 C 179.668 190.757,178.070 187.477,177.197 182.200 C 177.015 181.100,176.735 179.419,176.575 178.464 C 176.288 176.748,176.820 172.498,177.699 169.480 L 178.141 167.959 174.311 164.381 C 169.716 160.090,166.761 155.919,164.759 150.900 C 163.907 148.765,163.578 147.947,163.230 147.100 C 163.027 146.605,162.747 145.660,162.609 145.000 C 162.470 144.340,162.156 142.990,161.910 142.000 C 161.317 139.610,161.306 124.828,161.896 122.000 C 162.439 119.393,162.977 117.193,163.606 115.000 C 163.859 114.120,164.161 112.905,164.278 112.300 C 164.395 111.695,164.650 111.200,164.845 111.200 C 165.040 111.200,165.200 110.958,165.200 110.661 C 165.200 109.744,166.456 107.552,166.897 107.699 C 167.128 107.776,167.573 108.730,167.888 109.819 M234.751 109.700 C 235.628 111.675,236.777 115.509,238.019 120.600 C 239.009 124.657,239.320 140.040,238.430 140.930 C 238.193 141.167,238.000 141.896,238.000 142.552 C 238.000 143.862,237.469 145.698,236.338 148.296 C 235.932 149.228,235.600 150.079,235.600 150.186 C 235.600 152.487,230.285 160.081,225.452 164.685 C 222.414 167.578,222.045 168.079,222.352 168.885 C 224.098 173.463,224.020 177.755,222.038 186.111 C 221.383 188.872,220.224 189.591,219.799 187.500 C 219.653 186.785,219.375 185.660,219.180 185.000 C 218.985 184.340,218.431 182.185,217.949 180.210 C 216.854 175.731,215.524 172.402,213.763 169.732 C 213.014 168.595,212.400 167.583,212.400 167.483 C 212.400 167.052,209.339 164.000,208.907 164.000 C 208.646 164.000,206.991 165.935,205.230 168.300 C 203.469 170.665,201.887 172.780,201.714 173.000 C 192.419 184.841,190.242 197.572,195.611 208.692 C 197.889 213.412,197.610 214.285,192.251 219.184 C 188.405 222.700,187.869 222.655,186.285 218.682 C 182.661 209.595,182.026 199.866,184.362 189.200 C 185.310 184.872,185.515 184.116,186.140 182.651 C 186.503 181.799,186.800 180.858,186.800 180.559 C 186.800 179.509,190.888 173.367,194.684 168.716 C 196.068 167.019,197.200 165.537,197.200 165.420 C 197.200 165.156,197.853 164.358,201.600 160.050 C 203.250 158.152,205.318 155.700,206.196 154.600 C 208.212 152.073,211.374 148.276,213.195 146.196 C 213.968 145.313,215.140 143.890,215.800 143.033 C 216.460 142.176,217.371 141.008,217.825 140.437 C 220.611 136.935,225.444 128.915,227.489 124.400 C 227.938 123.410,228.764 121.610,229.326 120.400 C 229.887 119.190,230.463 117.660,230.604 117.000 C 230.746 116.340,231.004 115.440,231.178 115.000 C 231.635 113.840,232.400 110.507,232.400 109.674 C 232.400 108.938,233.116 108.000,233.678 108.000 C 233.853 108.000,234.336 108.765,234.751 109.700 M206.534 114.399 C 209.931 116.162,213.159 120.349,213.228 123.082 C 213.244 123.697,213.387 124.532,213.547 124.938 C 214.296 126.842,212.665 132.210,210.514 134.914 C 204.830 142.061,192.237 140.906,188.413 132.888 C 187.918 131.850,187.352 130.687,187.156 130.305 C 185.949 127.952,187.084 120.864,189.063 118.400 C 189.328 118.070,190.027 117.210,190.616 116.490 C 193.613 112.827,201.506 111.791,206.534 114.399 M101.859 135.353 C 102.486 136.097,103.900 137.823,105.000 139.188 C 109.938 145.317,117.901 150.900,129.000 156.017 C 134.409 158.511,135.806 159.104,138.400 160.007 C 141.642 161.136,147.464 164.001,149.872 165.653 C 150.792 166.284,151.722 166.800,151.939 166.800 C 152.156 166.800,152.393 166.936,152.467 167.103 C 152.540 167.270,153.410 168.024,154.400 168.779 C 158.171 171.657,164.400 178.608,164.400 179.939 C 164.400 180.156,164.541 180.393,164.714 180.467 C 165.193 180.670,167.365 185.173,167.963 187.200 C 168.254 188.190,168.631 189.450,168.800 190.000 C 171.113 197.528,171.102 211.872,168.778 219.428 C 168.570 220.104,168.400 221.128,168.400 221.705 C 168.400 222.281,168.220 222.864,168.000 223.000 C 167.780 223.136,167.600 223.742,167.600 224.347 C 167.600 224.952,167.361 225.773,167.070 226.172 C 166.520 226.924,166.667 226.924,161.597 226.158 C 160.716 226.025,159.895 225.755,159.774 225.558 C 159.652 225.361,159.171 225.200,158.705 225.200 C 157.804 225.200,155.461 224.535,154.305 223.951 C 153.923 223.758,153.372 223.600,153.081 223.600 C 152.789 223.600,151.805 223.240,150.894 222.800 C 149.984 222.360,149.055 222.000,148.831 222.000 C 148.608 222.000,147.744 221.615,146.912 221.144 C 146.080 220.673,144.140 219.628,142.600 218.822 C 137.782 216.301,133.431 213.117,128.260 208.329 C 126.912 207.080,125.743 206.123,125.664 206.203 C 125.155 206.712,132.012 213.231,135.987 216.018 C 138.013 217.438,140.042 218.915,140.496 219.300 C 140.951 219.685,141.462 220.000,141.633 220.000 C 141.803 220.000,142.186 220.225,142.484 220.500 C 143.965 221.870,153.098 226.368,157.200 227.748 C 163.033 229.709,165.123 230.025,172.412 230.041 C 176.751 230.051,179.860 229.889,180.347 229.628 C 180.787 229.393,181.522 229.200,181.979 229.200 C 182.437 229.200,183.123 229.041,183.505 228.847 C 183.887 228.652,184.650 228.315,185.200 228.097 C 194.006 224.610,199.417 219.159,204.592 208.561 C 206.849 203.939,207.384 201.585,207.352 196.400 C 207.315 190.175,206.865 188.265,204.053 182.376 C 202.285 178.674,202.240 178.881,205.911 173.949 C 207.865 171.325,208.447 171.571,210.951 176.087 C 213.326 180.370,214.622 183.230,214.988 185.000 C 215.124 185.660,215.420 186.920,215.646 187.800 C 218.417 198.615,217.550 211.465,213.474 220.000 C 210.577 226.066,201.892 235.600,199.263 235.600 C 199.008 235.600,198.800 235.780,198.800 236.000 C 198.800 236.220,198.603 236.400,198.362 236.400 C 198.121 236.400,197.446 236.722,196.862 237.117 C 195.948 237.734,193.476 238.881,190.600 240.022 C 190.160 240.197,189.350 240.431,188.800 240.542 C 188.250 240.653,187.080 240.950,186.200 241.202 C 178.757 243.333,161.258 243.764,153.400 242.010 C 152.300 241.765,150.860 241.470,150.200 241.355 C 149.540 241.240,148.640 240.998,148.200 240.818 C 147.760 240.638,146.590 240.270,145.600 240.000 C 144.610 239.730,143.440 239.374,143.000 239.210 C 142.560 239.045,141.480 238.690,140.600 238.420 C 139.720 238.150,137.512 237.225,135.693 236.365 C 133.873 235.504,132.208 234.800,131.993 234.800 C 131.777 234.800,131.600 234.620,131.600 234.400 C 131.600 234.180,131.240 234.000,130.800 234.000 C 130.360 234.000,130.000 233.820,130.000 233.600 C 130.000 233.380,129.838 233.200,129.641 233.200 C 129.061 233.200,120.661 227.990,120.000 227.220 C 119.110 226.183,117.043 224.846,116.666 225.061 C 116.410 225.208,116.317 225.197,116.461 225.036 C 116.605 224.876,115.571 223.576,114.164 222.148 C 111.743 219.692,109.200 216.415,109.200 215.754 C 109.200 215.588,108.855 215.080,108.434 214.626 C 108.013 214.172,107.085 212.720,106.371 211.400 C 105.657 210.080,104.602 208.280,104.027 207.400 C 103.064 205.928,99.252 198.340,98.300 196.000 C 96.808 192.333,96.577 191.699,95.974 189.600 C 95.689 188.610,95.331 187.620,95.178 187.400 C 95.025 187.180,94.799 186.460,94.675 185.800 C 94.551 185.140,94.277 183.880,94.067 183.000 C 92.593 176.833,92.400 174.809,92.400 165.510 C 92.400 155.717,92.449 155.297,94.475 147.800 C 96.254 141.216,99.354 134.000,100.405 134.000 C 100.576 134.000,101.231 134.609,101.859 135.353 M301.907 137.121 C 302.612 138.617,303.731 141.452,304.393 143.421 C 305.528 146.795,305.960 148.420,307.260 154.200 C 308.247 158.589,308.000 174.935,306.873 179.800 C 305.849 184.220,305.220 186.689,304.885 187.600 C 304.764 187.930,304.443 188.920,304.171 189.800 C 302.609 194.864,298.041 204.577,294.830 209.661 C 287.482 221.295,286.472 222.451,278.297 228.574 C 277.250 229.358,276.295 230.000,276.175 230.000 C 276.054 230.000,274.879 230.731,273.563 231.625 C 267.087 236.023,255.283 240.312,243.800 242.439 C 239.975 243.148,223.923 243.173,220.200 242.475 C 211.449 240.837,205.200 238.581,205.200 237.060 C 205.200 236.832,206.505 235.371,208.100 233.814 C 209.695 232.258,211.503 230.313,212.117 229.492 C 213.450 227.712,213.677 227.695,217.570 229.072 C 221.059 230.306,233.663 230.665,237.002 229.625 C 237.881 229.352,239.230 228.948,240.000 228.728 C 246.863 226.768,258.724 220.922,259.533 219.100 C 259.607 218.935,259.997 218.800,260.400 218.800 C 260.803 218.800,261.193 218.653,261.267 218.472 C 261.340 218.292,262.535 217.379,263.922 216.442 C 266.574 214.653,277.200 204.303,277.200 203.510 C 277.200 203.256,275.535 204.700,273.500 206.719 C 271.465 208.737,268.810 211.114,267.600 212.000 C 266.390 212.887,264.770 214.118,264.000 214.736 C 260.674 217.408,249.918 222.854,246.000 223.851 C 244.790 224.158,243.440 224.565,243.000 224.755 C 241.933 225.216,235.181 226.809,234.319 226.804 C 233.403 226.799,232.596 224.842,232.006 221.200 C 231.739 219.550,231.379 217.840,231.207 217.400 C 230.505 215.609,230.001 209.350,230.014 202.579 C 230.027 195.782,230.224 194.042,231.525 189.200 C 232.533 185.448,235.844 179.118,238.183 176.471 C 239.092 175.442,240.210 174.110,240.667 173.511 C 241.484 172.440,243.373 170.770,245.995 168.800 C 246.728 168.250,247.555 167.575,247.835 167.300 C 248.114 167.025,248.456 166.800,248.593 166.800 C 248.731 166.800,249.869 166.120,251.122 165.289 C 253.640 163.619,253.763 163.559,259.900 160.966 C 260.725 160.618,261.713 160.168,262.095 159.966 C 262.477 159.765,262.967 159.600,263.185 159.600 C 263.402 159.600,264.799 159.035,266.290 158.345 C 267.780 157.655,269.900 156.704,271.000 156.232 C 272.887 155.423,278.452 152.568,280.200 151.512 C 282.706 149.997,287.966 146.458,288.987 145.600 C 293.287 141.984,295.610 139.442,298.036 135.700 C 299.420 133.565,300.399 133.924,301.907 137.121 " stroke="none" fill="#fbfbfb" fill-rule="evenodd"></path><path id="path3" d="M167.256 110.000 C 167.256 110.330,167.411 110.960,167.600 111.400 C 167.817 111.904,167.944 111.978,167.944 111.600 C 167.944 111.270,167.789 110.640,167.600 110.200 C 167.383 109.696,167.256 109.622,167.256 110.000 M198.900 113.487 C 199.505 113.578,200.495 113.578,201.100 113.487 C 201.705 113.395,201.210 113.320,200.000 113.320 C 198.790 113.320,198.295 113.395,198.900 113.487 M193.000 115.151 C 192.340 115.562,191.260 116.501,190.600 117.238 C 189.519 118.443,189.582 118.418,191.226 116.988 C 192.231 116.115,193.401 115.186,193.826 114.924 C 194.252 114.661,194.510 114.437,194.400 114.425 C 194.290 114.413,193.660 114.740,193.000 115.151 M212.914 126.200 C 212.917 127.300,212.995 127.703,213.087 127.095 C 213.179 126.486,213.177 125.586,213.082 125.095 C 212.987 124.603,212.911 125.100,212.914 126.200 M190.800 135.400 C 191.546 136.170,192.247 136.800,192.357 136.800 C 192.467 136.800,191.946 136.170,191.200 135.400 C 190.454 134.630,189.753 134.000,189.643 134.000 C 189.533 134.000,190.054 134.630,190.800 135.400 M208.975 135.700 L 207.800 137.000 209.100 135.825 C 209.815 135.179,210.400 134.594,210.400 134.525 C 210.400 134.216,210.070 134.488,208.975 135.700 M105.200 140.600 C 105.946 141.370,106.647 142.000,106.757 142.000 C 106.867 142.000,106.346 141.370,105.600 140.600 C 104.854 139.830,104.153 139.200,104.043 139.200 C 103.933 139.200,104.454 139.830,105.200 140.600 M196.183 158.330 C 196.365 158.649,196.115 159.284,195.553 159.930 L 194.623 161.000 195.797 159.905 C 196.775 158.993,196.880 158.727,196.427 158.305 C 195.986 157.896,195.940 157.901,196.183 158.330 M191.785 163.300 L 189.800 165.400 191.900 163.415 C 193.055 162.323,194.000 161.378,194.000 161.315 C 194.000 161.017,193.629 161.349,191.785 163.300 M146.000 164.179 C 146.000 164.289,146.540 164.659,147.200 165.000 C 147.860 165.341,148.400 165.531,148.400 165.421 C 148.400 165.311,147.860 164.941,147.200 164.600 C 146.540 164.259,146.000 164.069,146.000 164.179 M177.293 179.200 C 177.293 179.970,177.375 180.285,177.476 179.900 C 177.576 179.515,177.576 178.885,177.476 178.500 C 177.375 178.115,177.293 178.430,177.293 179.200 M220.266 185.533 C 220.340 185.826,220.400 186.241,220.400 186.456 C 220.400 186.671,220.580 186.736,220.800 186.600 C 221.020 186.464,221.200 186.083,221.200 185.753 C 221.200 185.423,221.035 185.255,220.834 185.379 C 220.633 185.503,220.392 185.469,220.300 185.302 C 220.207 185.136,220.192 185.240,220.266 185.533 M113.617 189.900 C 113.650 190.493,115.167 192.988,115.183 192.476 C 115.192 192.188,115.394 192.073,115.632 192.220 C 115.870 192.367,115.645 191.840,115.132 191.048 C 114.268 189.714,113.577 189.191,113.617 189.900 M169.701 199.400 C 169.705 200.280,169.787 200.593,169.883 200.095 C 169.979 199.598,169.975 198.878,169.875 198.495 C 169.775 198.113,169.696 198.520,169.701 199.400 M170.093 203.600 C 170.093 204.370,170.175 204.685,170.276 204.300 C 170.376 203.915,170.376 203.285,170.276 202.900 C 170.175 202.515,170.093 202.830,170.093 203.600 M127.400 206.800 C 129.371 208.780,131.073 210.400,131.183 210.400 C 131.293 210.400,129.771 208.780,127.800 206.800 C 125.829 204.820,124.127 203.200,124.017 203.200 C 123.907 203.200,125.429 204.820,127.400 206.800 M169.709 207.600 C 169.709 208.590,169.787 208.995,169.882 208.500 C 169.978 208.005,169.978 207.195,169.882 206.700 C 169.787 206.205,169.709 206.610,169.709 207.600 M127.183 209.300 C 128.841 211.066,129.200 211.384,129.200 211.083 C 129.200 211.019,128.345 210.164,127.300 209.183 L 125.400 207.400 127.183 209.300 M197.381 220.500 L 195.800 222.200 197.500 220.619 C 199.081 219.148,199.384 218.800,199.081 218.800 C 199.016 218.800,198.251 219.565,197.381 220.500 M114.400 221.725 C 114.400 221.794,114.985 222.379,115.700 223.025 L 117.000 224.200 115.825 222.900 C 114.730 221.688,114.400 221.416,114.400 221.725 M167.905 230.683 C 168.402 230.779,169.122 230.775,169.505 230.675 C 169.887 230.575,169.480 230.496,168.600 230.501 C 167.720 230.505,167.407 230.587,167.905 230.683 M175.700 230.676 C 176.085 230.776,176.715 230.776,177.100 230.676 C 177.485 230.575,177.170 230.493,176.400 230.493 C 175.630 230.493,175.315 230.575,175.700 230.676 M165.519 242.698 C 167.344 242.772,170.224 242.772,171.919 242.697 C 173.614 242.622,172.120 242.561,168.600 242.562 C 165.080 242.562,163.694 242.624,165.519 242.698 " stroke="none" fill="#a1cdb0" fill-rule="evenodd"></path><path id="path4" d="M233.094 109.039 C 232.932 109.201,232.803 109.708,232.806 110.167 C 232.811 110.836,232.885 110.884,233.184 110.412 C 233.724 109.558,233.935 109.922,235.418 114.273 C 237.000 118.912,237.255 118.507,235.765 113.723 C 234.726 110.390,233.643 108.490,233.094 109.039 M232.288 112.133 C 232.130 112.536,232.011 113.256,232.025 113.733 C 232.049 114.556,232.071 114.550,232.440 113.625 C 232.654 113.089,232.773 112.369,232.703 112.025 C 232.599 111.511,232.525 111.530,232.288 112.133 M231.500 115.200 C 231.394 115.530,230.901 117.060,230.403 118.600 C 229.552 121.236,226.812 127.135,224.866 130.519 C 223.871 132.249,218.391 140.496,218.035 140.800 C 217.906 140.910,217.180 141.810,216.422 142.800 C 214.556 145.238,206.876 154.534,203.253 158.741 C 200.234 162.245,199.627 163.007,193.817 170.589 C 190.098 175.443,187.079 180.236,187.308 180.924 C 187.390 181.169,187.732 180.837,188.069 180.185 C 190.776 174.948,194.907 169.390,203.997 158.755 C 215.679 145.089,223.805 134.124,226.938 127.800 C 229.970 121.681,232.194 115.928,231.865 115.057 C 231.758 114.771,231.621 114.825,231.500 115.200 M236.814 118.833 C 236.859 120.588,238.338 127.609,238.367 126.200 C 238.385 125.320,238.119 123.254,237.775 121.609 C 237.180 118.756,236.783 117.610,236.814 118.833 M238.537 131.400 C 238.539 133.160,238.609 133.830,238.693 132.889 C 238.778 131.949,238.777 130.509,238.691 129.689 C 238.605 128.870,238.536 129.640,238.537 131.400 M297.299 137.500 C 291.050 145.889,276.823 155.358,263.852 159.762 C 261.420 160.588,259.584 161.562,260.420 161.584 C 260.761 161.593,261.211 161.449,261.420 161.265 C 261.629 161.080,262.969 160.515,264.398 160.007 C 265.827 159.500,269.041 158.121,271.539 156.943 C 274.038 155.764,276.147 154.800,276.227 154.800 C 276.724 154.800,284.576 149.983,287.130 148.112 C 290.572 145.589,295.929 140.344,297.981 137.486 C 298.726 136.449,299.543 135.600,299.798 135.600 C 300.787 135.600,304.535 145.681,305.800 151.747 C 305.931 152.378,306.140 152.793,306.265 152.669 C 307.223 151.711,301.138 134.800,299.835 134.800 C 299.546 134.800,298.405 136.015,297.299 137.500 M237.848 138.725 C 237.665 140.113,237.613 141.346,237.732 141.465 C 238.069 141.802,238.478 139.101,238.321 137.573 C 238.208 136.475,238.113 136.706,237.848 138.725 M237.042 143.200 C 235.413 150.637,231.678 157.105,225.358 163.433 C 223.071 165.722,221.200 167.672,221.200 167.766 C 221.200 167.859,221.493 169.075,221.852 170.468 C 222.971 174.818,222.322 184.842,220.812 186.517 C 220.655 186.691,219.848 184.182,219.019 180.942 C 217.033 173.181,214.439 167.837,210.844 164.100 C 209.172 162.363,208.759 162.443,206.714 164.900 C 198.048 175.313,191.844 187.163,192.045 192.920 C 192.080 193.938,192.165 193.791,192.459 192.200 C 193.815 184.851,197.340 177.978,204.704 168.324 C 209.391 162.180,209.361 162.177,213.878 169.000 C 215.669 171.705,217.458 176.422,218.860 182.135 C 220.191 187.559,220.922 188.803,221.425 186.500 C 221.557 185.895,221.817 184.950,222.002 184.400 C 223.351 180.392,223.447 174.602,222.240 170.000 L 221.663 167.800 225.564 164.000 C 229.241 160.419,232.641 155.955,234.093 152.800 C 236.105 148.429,237.729 143.506,237.498 142.472 C 237.412 142.087,237.218 142.398,237.042 143.200 M306.458 154.400 C 306.459 154.950,306.603 156.210,306.780 157.200 L 307.100 159.000 307.122 157.000 C 307.134 155.900,306.989 154.640,306.800 154.200 C 306.487 153.471,306.456 153.489,306.458 154.400 M307.363 166.400 C 307.363 170.030,307.423 171.515,307.498 169.700 C 307.572 167.885,307.572 164.915,307.498 163.100 C 307.423 161.285,307.363 162.770,307.363 166.400 M256.000 163.136 C 250.964 165.639,247.630 167.850,242.726 171.938 C 236.693 176.968,230.315 190.087,230.445 197.200 C 230.470 198.610,230.594 198.249,231.017 195.534 C 232.606 185.333,237.905 176.349,246.073 170.007 C 249.791 167.120,251.110 166.299,256.752 163.359 C 261.178 161.054,260.560 160.870,256.000 163.136 M306.666 176.000 C 306.503 177.210,306.178 178.951,305.942 179.870 C 305.706 180.788,305.591 181.773,305.687 182.060 C 305.947 182.840,307.308 175.957,307.122 174.800 C 307.017 174.147,306.859 174.564,306.666 176.000 M186.245 183.450 C 185.890 184.491,185.613 185.625,185.629 185.971 C 185.644 186.317,186.014 185.545,186.450 184.255 C 186.886 182.965,187.164 181.830,187.066 181.733 C 186.969 181.636,186.600 182.408,186.245 183.450 M304.229 186.679 C 303.593 188.835,302.378 192.292,301.530 194.361 C 300.682 196.429,300.070 198.204,300.171 198.304 C 300.358 198.492,301.106 196.901,302.476 193.400 C 303.967 189.588,305.711 183.733,305.523 183.170 C 305.448 182.943,304.865 184.522,304.229 186.679 M185.073 187.353 C 184.923 187.745,184.816 188.546,184.836 189.133 C 184.870 190.128,184.898 190.109,185.257 188.863 C 185.673 187.419,185.523 186.182,185.073 187.353 M284.289 191.840 C 278.856 199.777,277.470 201.397,270.132 208.400 C 263.567 214.664,254.733 220.015,246.389 222.781 C 242.373 224.112,236.437 225.600,235.144 225.600 C 233.824 225.600,233.890 225.728,232.959 221.400 C 232.581 219.640,232.197 218.420,232.106 218.689 C 231.865 219.402,233.178 225.017,233.777 225.837 C 234.228 226.453,234.507 226.480,236.144 226.068 C 237.165 225.810,238.855 225.399,239.900 225.154 C 256.554 221.245,272.006 210.420,282.797 195.101 C 283.533 194.056,284.219 193.286,284.323 193.390 C 284.554 193.620,280.355 200.688,279.327 201.800 C 278.920 202.240,278.176 203.140,277.673 203.800 C 274.366 208.139,265.364 216.280,260.865 219.000 C 260.501 219.220,259.539 219.901,258.728 220.513 C 255.474 222.967,247.136 226.907,241.400 228.701 C 240.300 229.045,239.627 229.403,239.905 229.498 C 240.685 229.764,248.964 226.523,253.179 224.302 C 264.465 218.355,276.273 208.001,281.783 199.219 C 287.303 190.421,289.314 184.501,284.289 191.840 M184.263 191.681 C 183.362 196.780,183.121 201.768,183.569 206.069 C 184.029 210.486,185.161 215.476,185.487 214.526 C 185.576 214.265,185.341 213.185,184.963 212.126 C 184.061 209.594,183.708 198.569,184.381 193.966 C 184.837 190.844,184.741 188.976,184.263 191.681 M192.043 200.234 C 191.990 202.229,193.092 205.666,194.981 209.400 C 195.760 210.940,196.398 212.437,196.399 212.727 C 196.402 214.085,189.774 220.807,188.440 220.798 C 188.308 220.798,187.665 219.524,187.010 217.967 C 185.637 214.700,185.166 214.809,186.400 218.109 C 187.927 222.189,188.817 222.109,193.306 217.488 C 197.316 213.361,197.340 213.237,195.038 208.437 C 193.891 206.047,192.962 203.398,192.629 201.573 C 192.180 199.113,192.079 198.882,192.043 200.234 M297.725 202.416 C 296.666 204.451,295.620 206.409,295.400 206.766 C 295.180 207.124,294.137 208.853,293.083 210.608 C 292.028 212.364,290.948 214.154,290.683 214.586 C 287.114 220.394,280.522 226.450,273.073 230.763 C 271.273 231.805,269.440 232.867,269.000 233.122 C 265.270 235.287,256.127 238.772,250.860 240.035 C 249.902 240.265,249.227 240.560,249.358 240.691 C 249.927 241.261,261.196 237.477,266.290 235.006 C 277.199 229.713,285.809 222.941,290.199 216.200 C 295.172 208.565,300.299 199.365,299.837 198.904 C 299.734 198.801,298.784 200.382,297.725 202.416 M230.447 208.033 C 230.473 209.885,230.640 211.940,230.817 212.600 C 231.000 213.283,231.044 211.904,230.918 209.400 C 230.652 204.125,230.381 203.339,230.447 208.033 M231.268 215.000 C 231.262 215.660,231.411 216.560,231.600 217.000 C 232.070 218.094,232.070 216.267,231.600 214.800 C 231.288 213.825,231.279 213.830,231.268 215.000 M213.395 228.706 C 213.171 228.868,212.181 229.985,211.195 231.189 C 210.208 232.394,208.784 233.924,208.031 234.589 C 205.981 236.401,205.600 236.819,205.600 237.251 C 205.600 238.646,219.142 242.443,223.800 242.353 C 224.821 242.334,224.098 242.124,221.800 241.773 C 216.350 240.942,207.808 238.568,206.526 237.529 C 206.183 237.252,206.920 236.287,209.164 234.072 C 210.876 232.383,212.635 230.481,213.072 229.847 L 213.868 228.693 216.149 229.547 C 217.404 230.016,218.828 230.384,219.315 230.364 C 219.831 230.343,219.449 230.113,218.400 229.812 C 217.410 229.529,216.093 229.095,215.474 228.848 C 214.161 228.326,213.940 228.311,213.395 228.706 M236.800 230.000 L 235.800 230.320 236.800 230.332 C 237.350 230.338,238.160 230.189,238.600 230.000 L 239.400 229.656 238.600 229.668 C 238.160 229.674,237.350 229.824,236.800 230.000 M222.000 230.861 C 224.388 231.232,231.788 231.230,233.800 230.858 C 234.732 230.686,232.229 230.566,227.800 230.572 C 223.428 230.577,220.965 230.700,222.000 230.861 M246.400 241.200 L 245.400 241.520 246.400 241.532 C 246.950 241.538,247.760 241.389,248.200 241.200 L 249.000 240.856 248.200 240.868 C 247.760 240.874,246.950 241.024,246.400 241.200 M239.800 242.000 C 238.259 242.276,238.281 242.287,240.400 242.296 C 241.610 242.301,243.140 242.168,243.800 242.000 C 245.439 241.583,242.129 241.583,239.800 242.000 M228.518 242.698 C 230.233 242.773,232.933 242.772,234.518 242.697 C 236.103 242.621,234.700 242.559,231.400 242.560 C 228.100 242.561,226.803 242.622,228.518 242.698 " stroke="none" fill="#d9eba9" fill-rule="evenodd"></path><path id="path5" d="M165.594 111.414 C 165.100 112.632,164.775 113.708,164.872 113.805 C 164.969 113.902,165.384 113.049,165.794 111.908 L 166.540 109.834 167.040 111.217 C 167.314 111.978,167.553 113.035,167.570 113.567 C 167.586 114.098,167.714 114.419,167.853 114.280 C 168.164 113.970,167.141 109.200,166.764 109.200 C 166.615 109.200,166.088 110.196,165.594 111.414 M200.400 114.002 C 205.869 114.444,209.221 116.637,211.571 121.313 C 212.038 122.241,212.299 122.550,212.151 122.000 C 210.885 117.281,205.406 113.545,199.926 113.663 L 197.000 113.727 200.400 114.002 M193.139 115.552 C 192.140 116.186,190.915 117.311,190.416 118.052 C 189.511 119.400,189.511 119.400,190.855 117.911 C 191.595 117.093,193.010 115.970,194.000 115.416 C 194.990 114.863,195.610 114.407,195.378 114.405 C 195.146 114.402,194.139 114.919,193.139 115.552 M163.449 118.215 C 163.312 118.573,163.218 119.256,163.241 119.733 C 163.267 120.281,163.403 120.086,163.610 119.203 C 163.960 117.716,163.865 117.133,163.449 118.215 M168.800 117.729 C 168.800 118.232,170.900 123.233,171.049 123.085 C 171.131 123.002,170.731 121.779,170.159 120.367 C 169.147 117.866,168.800 117.193,168.800 117.729 M188.586 120.827 C 188.237 121.502,188.007 122.214,188.076 122.409 C 188.144 122.604,188.502 122.051,188.870 121.182 C 189.665 119.306,189.487 119.084,188.586 120.827 M162.656 121.684 C 162.521 122.188,162.428 123.050,162.449 123.600 C 162.472 124.189,162.631 123.871,162.836 122.825 C 163.203 120.952,163.073 120.127,162.656 121.684 M212.474 125.800 C 212.427 127.340,212.296 129.050,212.183 129.600 L 211.977 130.600 212.405 129.622 C 212.640 129.084,212.770 127.374,212.695 125.822 L 212.559 123.000 212.474 125.800 M171.200 123.743 C 171.200 124.209,173.893 129.349,174.583 130.200 C 174.940 130.640,174.384 129.380,173.348 127.400 C 171.324 123.532,171.200 123.321,171.200 123.743 M187.238 126.400 C 187.224 127.390,187.370 128.449,187.563 128.754 C 187.779 129.095,187.841 128.558,187.724 127.354 C 187.460 124.645,187.268 124.267,187.238 126.400 M161.750 132.200 C 161.751 134.620,161.816 135.558,161.896 134.285 C 161.976 133.012,161.975 131.032,161.894 129.885 C 161.814 128.738,161.749 129.780,161.750 132.200 M175.200 131.378 C 175.200 132.155,185.715 146.800,186.273 146.800 C 186.383 146.800,185.579 145.663,184.487 144.273 C 183.394 142.882,180.858 139.343,178.850 136.408 C 176.843 133.472,175.200 131.209,175.200 131.378 M189.346 133.054 C 190.003 134.369,193.408 137.600,194.135 137.600 C 194.367 137.600,193.802 137.044,192.879 136.365 C 191.955 135.686,191.193 135.011,191.184 134.865 C 191.175 134.719,190.616 133.970,189.943 133.200 L 188.718 131.800 189.346 133.054 M210.186 133.477 C 209.798 134.070,208.922 135.080,208.240 135.723 C 207.208 136.697,207.171 136.785,208.020 136.253 C 208.926 135.684,210.071 134.374,210.949 132.900 C 211.530 131.926,210.881 132.416,210.186 133.477 M99.278 136.831 C 98.795 137.735,98.407 138.684,98.415 138.938 C 98.423 139.192,98.783 138.645,99.216 137.723 C 100.346 135.313,100.571 135.324,102.466 137.889 C 104.468 140.600,108.647 144.837,111.200 146.745 C 112.667 147.842,112.592 147.734,110.800 146.167 C 107.818 143.559,104.658 140.246,102.658 137.631 C 100.558 134.884,100.344 134.833,99.278 136.831 M162.093 138.000 C 162.093 138.770,162.175 139.085,162.276 138.700 C 162.376 138.315,162.376 137.685,162.276 137.300 C 162.175 136.915,162.093 137.230,162.093 138.000 M205.000 137.622 C 204.120 138.038,203.634 138.384,203.920 138.390 C 204.502 138.401,206.800 137.284,206.800 136.990 C 206.800 136.756,206.918 136.714,205.000 137.622 M199.700 139.076 C 200.085 139.176,200.715 139.176,201.100 139.076 C 201.485 138.975,201.170 138.893,200.400 138.893 C 199.630 138.893,199.315 138.975,199.700 139.076 M163.206 144.233 C 163.209 144.655,163.395 145.270,163.618 145.600 C 163.915 146.038,163.952 145.876,163.756 145.000 C 163.427 143.529,163.198 143.210,163.206 144.233 M95.449 146.615 C 95.312 146.973,95.215 147.566,95.234 147.933 C 95.253 148.300,95.427 148.069,95.621 147.420 C 95.998 146.158,95.865 145.533,95.449 146.615 M186.400 147.325 C 186.400 147.394,186.973 147.979,187.674 148.625 L 188.949 149.800 187.974 148.522 C 187.147 147.437,186.400 146.869,186.400 147.325 M113.200 148.146 C 113.200 148.256,113.740 148.730,114.400 149.200 C 115.060 149.670,115.600 149.964,115.600 149.854 C 115.600 149.744,115.060 149.270,114.400 148.800 C 113.740 148.330,113.200 148.036,113.200 148.146 M164.800 148.960 C 164.800 149.427,167.527 155.200,167.748 155.200 C 167.930 155.200,165.304 149.223,164.951 148.833 C 164.868 148.742,164.800 148.798,164.800 148.960 M118.200 151.490 C 118.420 151.700,119.320 152.276,120.200 152.770 C 121.080 153.265,121.440 153.370,121.000 153.004 C 120.106 152.261,117.572 150.891,118.200 151.490 M192.970 155.070 C 195.999 158.605,196.044 158.788,194.300 160.451 L 193.000 161.691 194.400 160.596 C 195.170 159.993,195.920 159.295,196.068 159.043 C 196.330 158.595,191.322 152.087,190.670 152.029 C 190.489 152.013,191.524 153.381,192.970 155.070 M93.849 153.015 C 93.712 153.373,93.618 154.056,93.641 154.533 C 93.667 155.081,93.803 154.886,94.010 154.003 C 94.360 152.516,94.265 151.933,93.849 153.015 M125.811 155.734 C 126.696 156.332,128.000 156.858,128.000 156.617 C 128.000 156.437,125.598 155.200,125.250 155.200 C 125.124 155.200,125.377 155.440,125.811 155.734 M128.454 156.987 C 128.790 157.323,131.600 158.416,131.600 158.211 C 131.600 158.101,130.948 157.738,130.151 157.405 C 128.675 156.789,128.118 156.651,128.454 156.987 M170.330 159.100 C 170.761 159.705,171.528 160.560,172.034 161.000 C 172.540 161.440,172.251 160.945,171.392 159.900 C 169.673 157.808,169.103 157.379,170.330 159.100 M92.967 165.800 C 92.967 169.980,93.026 171.636,93.098 169.479 C 93.171 167.323,93.170 163.903,93.098 161.879 C 93.025 159.856,92.966 161.620,92.967 165.800 M141.200 162.400 C 141.970 162.822,142.780 163.166,143.000 163.166 C 143.220 163.166,142.770 162.822,142.000 162.400 C 141.230 161.978,140.420 161.634,140.200 161.634 C 139.980 161.634,140.430 161.978,141.200 162.400 M190.149 164.500 C 189.259 165.435,187.849 167.100,187.016 168.200 C 186.183 169.300,185.986 169.660,186.579 169.000 C 191.534 163.484,193.629 160.843,190.149 164.500 M145.200 164.179 C 145.200 164.289,145.740 164.659,146.400 165.000 C 147.060 165.341,147.600 165.531,147.600 165.421 C 147.600 165.311,147.060 164.941,146.400 164.600 C 145.740 164.259,145.200 164.069,145.200 164.179 M176.964 165.877 C 178.720 167.245,178.845 167.459,178.653 168.777 L 178.445 170.200 178.900 168.833 C 179.340 167.509,176.914 164.405,175.434 164.401 C 175.233 164.400,175.922 165.065,176.964 165.877 M148.000 165.779 C 148.000 165.889,148.540 166.259,149.200 166.600 C 149.860 166.941,150.400 167.131,150.400 167.021 C 150.400 166.911,149.860 166.541,149.200 166.200 C 148.540 165.859,148.000 165.669,148.000 165.779 M150.897 167.433 C 151.027 167.644,151.991 168.432,153.037 169.184 C 154.084 169.935,154.833 170.378,154.703 170.167 C 154.573 169.956,153.609 169.168,152.563 168.416 C 151.516 167.665,150.767 167.222,150.897 167.433 M157.655 173.001 C 159.115 174.540,161.140 176.945,162.155 178.344 C 163.170 179.743,163.998 180.733,163.996 180.544 C 163.988 179.847,159.984 174.929,157.530 172.601 L 155.000 170.201 157.655 173.001 M177.856 171.284 C 177.721 171.788,177.631 172.830,177.655 173.600 C 177.689 174.669,177.775 174.480,178.018 172.802 C 178.353 170.492,178.272 169.733,177.856 171.284 M184.600 171.600 C 184.259 172.260,184.069 172.800,184.179 172.800 C 184.289 172.800,184.659 172.260,185.000 171.600 C 185.341 170.940,185.531 170.400,185.421 170.400 C 185.311 170.400,184.941 170.940,184.600 171.600 M183.436 173.542 C 182.994 174.258,182.366 176.182,182.699 175.800 C 183.140 175.294,184.039 173.200,183.815 173.200 C 183.723 173.200,183.552 173.354,183.436 173.542 M206.371 174.500 L 205.488 175.800 206.560 174.700 C 207.895 173.331,207.701 173.288,209.165 175.279 C 209.844 176.202,210.400 176.813,210.400 176.636 C 210.400 176.156,207.986 173.200,207.594 173.200 C 207.407 173.200,206.857 173.785,206.371 174.500 M93.606 178.033 C 93.609 178.565,93.789 179.270,94.006 179.600 C 94.282 180.022,94.323 179.785,94.142 178.800 C 93.825 177.075,93.598 176.749,93.606 178.033 M203.988 178.022 C 203.746 178.474,203.607 179.022,203.680 179.239 C 203.752 179.457,204.018 179.087,204.271 178.417 C 204.797 177.025,204.639 176.805,203.988 178.022 M211.200 178.800 C 211.649 179.680,212.106 180.400,212.216 180.400 C 212.326 180.400,212.049 179.680,211.600 178.800 C 211.151 177.920,210.694 177.200,210.584 177.200 C 210.474 177.200,210.751 177.920,211.200 178.800 M181.029 179.429 C 180.881 180.015,180.838 180.572,180.932 180.666 C 181.027 180.760,181.224 180.358,181.371 179.771 C 181.519 179.185,181.562 178.628,181.468 178.534 C 181.373 178.440,181.176 178.842,181.029 179.429 M177.628 180.433 C 177.644 181.185,177.812 182.160,178.003 182.600 C 178.226 183.115,178.267 182.687,178.118 181.400 C 177.844 179.022,177.589 178.519,177.628 180.433 M94.428 181.233 C 94.444 181.765,94.619 182.560,94.819 183.000 C 95.071 183.558,95.107 183.315,94.938 182.200 C 94.655 180.343,94.387 179.836,94.428 181.233 M180.115 183.059 C 179.204 186.923,179.157 187.274,179.584 187.010 C 179.813 186.868,180.000 186.250,180.000 185.636 C 180.000 185.022,180.196 183.956,180.436 183.268 C 180.676 182.580,180.805 181.815,180.722 181.567 C 180.640 181.320,180.367 181.991,180.115 183.059 M213.029 182.400 C 213.176 182.950,213.464 183.670,213.667 184.000 C 213.925 184.417,213.957 184.295,213.771 183.600 C 213.624 183.050,213.336 182.330,213.133 182.000 C 212.875 181.583,212.843 181.705,213.029 182.400 M178.400 184.576 C 178.400 185.113,178.547 185.644,178.728 185.755 C 178.908 185.867,178.977 185.427,178.882 184.779 C 178.672 183.349,178.400 183.235,178.400 184.576 M95.206 184.633 C 95.209 185.055,95.395 185.670,95.618 186.000 C 95.915 186.438,95.952 186.276,95.756 185.400 C 95.427 183.929,95.198 183.610,95.206 184.633 M166.067 185.220 C 166.301 185.892,166.567 186.367,166.657 186.276 C 166.856 186.078,166.101 184.000,165.831 184.000 C 165.727 184.000,165.833 184.549,166.067 185.220 M207.044 187.800 C 207.373 189.271,207.602 189.590,207.594 188.567 C 207.591 188.145,207.405 187.530,207.182 187.200 C 206.885 186.762,206.848 186.924,207.044 187.800 M214.468 187.200 C 214.488 188.239,215.118 189.946,215.132 189.000 C 215.138 188.560,214.989 187.840,214.800 187.400 C 214.589 186.910,214.461 186.832,214.468 187.200 M112.541 187.900 C 113.254 190.456,113.284 190.511,113.651 189.953 C 113.950 189.498,114.088 189.524,114.428 190.102 C 114.656 190.489,115.281 191.299,115.817 191.902 C 116.353 192.506,115.954 191.695,114.930 190.100 C 113.160 187.341,112.118 186.381,112.541 187.900 M168.244 191.800 C 168.573 193.271,168.802 193.590,168.794 192.567 C 168.791 192.145,168.605 191.530,168.382 191.200 C 168.085 190.762,168.048 190.924,168.244 191.800 M208.101 192.600 C 208.105 193.480,208.187 193.793,208.283 193.295 C 208.379 192.798,208.375 192.078,208.275 191.695 C 208.175 191.313,208.096 191.720,208.101 192.600 M215.701 193.400 C 215.705 194.280,215.787 194.593,215.883 194.095 C 215.979 193.598,215.975 192.878,215.875 192.495 C 215.775 192.113,215.696 192.520,215.701 193.400 M114.806 193.277 C 114.798 193.639,116.428 196.400,116.650 196.400 C 116.744 196.400,116.553 195.905,116.225 195.300 C 115.410 193.795,114.813 192.944,114.806 193.277 M98.430 194.000 C 98.428 194.576,99.557 196.866,99.586 196.346 C 99.594 196.206,99.337 195.486,99.016 194.746 C 98.694 194.006,98.431 193.670,98.430 194.000 M119.109 196.600 C 120.001 197.920,121.294 199.630,121.983 200.400 C 122.671 201.170,122.130 200.270,120.781 198.400 C 117.836 194.318,116.849 193.255,119.109 196.600 M208.514 196.200 C 208.517 197.300,208.595 197.703,208.687 197.095 C 208.779 196.486,208.777 195.586,208.682 195.095 C 208.587 194.603,208.511 195.100,208.514 196.200 M169.328 198.400 C 169.328 199.830,169.401 200.415,169.489 199.700 C 169.578 198.985,169.578 197.815,169.489 197.100 C 169.401 196.385,169.328 196.970,169.328 198.400 M216.101 197.400 C 216.105 198.280,216.187 198.593,216.283 198.095 C 216.379 197.598,216.375 196.878,216.275 196.495 C 216.175 196.113,216.096 196.520,216.101 197.400 M208.101 199.800 C 208.105 200.680,208.187 200.993,208.283 200.495 C 208.379 199.998,208.375 199.278,208.275 198.895 C 208.175 198.513,208.096 198.920,208.101 199.800 M119.674 200.954 C 120.403 202.029,121.685 203.649,122.523 204.554 C 123.971 206.119,123.961 206.092,122.323 203.986 C 118.962 199.667,118.239 198.839,119.674 200.954 M216.509 201.600 C 216.509 202.590,216.587 202.995,216.682 202.500 C 216.778 202.005,216.778 201.195,216.682 200.700 C 216.587 200.205,216.509 200.610,216.509 201.600 M103.600 205.200 C 104.049 206.080,104.506 206.800,104.616 206.800 C 104.726 206.800,104.449 206.080,104.000 205.200 C 103.551 204.320,103.094 203.600,102.984 203.600 C 102.874 203.600,103.151 204.320,103.600 205.200 M127.198 206.120 C 128.628 207.594,129.863 208.800,129.945 208.800 C 130.229 208.800,127.013 205.392,125.811 204.420 C 125.145 203.881,125.769 204.646,127.198 206.120 M216.101 206.200 C 216.105 207.080,216.187 207.393,216.283 206.895 C 216.379 206.398,216.375 205.678,216.275 205.295 C 216.175 204.913,216.096 205.320,216.101 206.200 M169.271 208.000 C 169.227 209.210,169.106 210.920,169.002 211.800 L 168.812 213.400 169.222 211.800 C 169.447 210.920,169.568 209.210,169.491 208.000 L 169.351 205.800 169.271 208.000 M125.620 208.221 C 126.599 209.333,127.481 210.181,127.581 210.107 C 127.680 210.033,126.879 209.123,125.801 208.086 L 123.840 206.200 125.620 208.221 M131.800 210.366 C 132.578 211.261,134.800 212.998,134.800 212.712 C 134.800 212.634,133.945 211.867,132.900 211.008 C 131.855 210.149,131.360 209.860,131.800 210.366 M129.400 211.944 C 130.280 212.892,131.720 214.223,132.600 214.903 C 134.465 216.342,133.983 215.833,130.400 212.580 C 128.540 210.892,128.256 210.711,129.400 211.944 M107.964 212.733 C 108.180 213.136,108.671 213.721,109.055 214.033 C 109.487 214.384,109.390 214.104,108.801 213.300 C 107.751 211.865,107.357 211.598,107.964 212.733 M135.200 212.960 C 135.200 213.163,139.708 216.413,140.800 216.997 C 141.905 217.587,140.672 216.589,137.900 214.649 C 136.415 213.610,135.200 212.850,135.200 212.960 M110.211 216.021 C 110.985 217.519,115.827 222.660,118.576 224.905 C 119.689 225.814,118.777 224.817,116.548 222.689 C 114.320 220.561,111.916 217.916,111.207 216.810 C 109.767 214.567,109.245 214.153,110.211 216.021 M168.449 215.400 C 168.416 215.840,168.296 216.650,168.183 217.200 L 167.977 218.200 168.406 217.219 C 168.642 216.679,168.761 215.869,168.672 215.419 C 168.513 214.621,168.507 214.621,168.449 215.400 M213.263 217.801 C 211.240 222.426,208.702 226.128,205.065 229.760 C 203.060 231.762,202.225 232.752,203.210 231.960 C 207.315 228.657,214.945 217.722,214.331 216.022 C 214.259 215.823,213.779 216.624,213.263 217.801 M134.497 216.233 C 134.627 216.444,135.591 217.232,136.637 217.984 C 137.684 218.735,138.433 219.178,138.303 218.967 C 138.173 218.756,137.209 217.968,136.163 217.216 C 135.116 216.465,134.367 216.022,134.497 216.233 M199.852 218.100 C 198.975 219.290,198.715 219.820,199.252 219.324 C 200.097 218.543,201.835 215.999,201.523 216.000 C 201.455 216.001,200.703 216.946,199.852 218.100 M167.275 221.048 C 166.987 222.341,166.649 223.760,166.526 224.200 C 166.402 224.640,166.416 224.892,166.556 224.761 C 166.941 224.401,168.046 219.933,167.915 219.272 C 167.852 218.955,167.564 219.754,167.275 221.048 M139.630 220.037 C 140.839 220.993,144.800 223.296,144.800 223.042 C 144.800 222.946,143.405 222.047,141.700 221.044 C 139.995 220.042,139.064 219.588,139.630 220.037 M147.200 220.196 C 147.200 220.470,149.649 221.684,149.832 221.501 C 149.919 221.414,149.362 221.044,148.595 220.678 C 147.828 220.312,147.200 220.095,147.200 220.196 M194.357 223.800 C 193.197 224.790,190.944 226.271,189.349 227.092 C 187.755 227.913,186.511 228.645,186.586 228.719 C 186.800 228.933,190.843 226.804,192.600 225.552 C 194.567 224.151,197.060 222.000,196.718 222.000 C 196.579 222.000,195.516 222.810,194.357 223.800 M145.200 223.379 C 145.200 223.489,145.740 223.859,146.400 224.200 C 147.060 224.541,147.600 224.731,147.600 224.621 C 147.600 224.511,147.060 224.141,146.400 223.800 C 145.740 223.459,145.200 223.269,145.200 223.379 M158.200 224.400 C 158.640 224.589,159.360 224.738,159.800 224.732 C 160.443 224.723,160.404 224.657,159.600 224.400 C 158.232 223.962,157.181 223.962,158.200 224.400 M148.800 225.400 C 149.350 225.714,149.980 225.972,150.200 225.972 C 150.420 225.972,150.150 225.714,149.600 225.400 C 149.050 225.086,148.420 224.828,148.200 224.828 C 147.980 224.828,148.250 225.086,148.800 225.400 M161.400 225.181 C 162.168 225.529,164.310 225.756,163.967 225.453 C 163.875 225.372,163.080 225.196,162.200 225.062 C 161.085 224.893,160.842 224.929,161.400 225.181 M120.800 226.573 C 120.800 226.853,126.016 230.520,126.171 230.348 C 126.245 230.267,125.066 229.342,123.553 228.293 C 122.039 227.245,120.800 226.470,120.800 226.573 M160.800 230.000 C 162.168 230.438,163.219 230.438,162.200 230.000 C 161.760 229.811,161.040 229.662,160.600 229.668 C 159.957 229.677,159.996 229.743,160.800 230.000 M165.200 230.820 C 166.190 230.997,167.540 231.132,168.200 231.120 C 169.085 231.105,168.928 231.016,167.600 230.780 C 166.610 230.603,165.260 230.468,164.600 230.480 C 163.715 230.495,163.872 230.584,165.200 230.820 M178.900 230.676 C 179.285 230.776,179.915 230.776,180.300 230.676 C 180.685 230.575,180.370 230.493,179.600 230.493 C 178.830 230.493,178.515 230.575,178.900 230.676 M175.905 231.083 C 176.402 231.179,177.122 231.175,177.505 231.075 C 177.887 230.975,177.480 230.896,176.600 230.901 C 175.720 230.905,175.407 230.987,175.905 231.083 M130.800 232.996 C 130.800 233.270,133.249 234.484,133.432 234.301 C 133.519 234.214,132.962 233.844,132.195 233.478 C 131.428 233.112,130.800 232.895,130.800 232.996 M199.681 234.172 C 197.823 235.485,197.562 235.861,199.131 234.962 C 199.863 234.543,200.650 233.975,200.880 233.700 C 201.471 232.993,201.193 233.102,199.681 234.172 M136.800 236.000 C 137.570 236.422,138.380 236.766,138.600 236.766 C 138.820 236.766,138.370 236.422,137.600 236.000 C 136.830 235.578,136.020 235.234,135.800 235.234 C 135.580 235.234,136.030 235.578,136.800 236.000 M195.400 236.590 C 193.310 237.877,193.814 237.889,196.059 236.605 C 197.017 236.057,197.620 235.608,197.400 235.607 C 197.180 235.605,196.280 236.048,195.400 236.590 M190.200 238.800 C 189.696 239.017,189.622 239.144,190.000 239.144 C 190.330 239.144,190.960 238.989,191.400 238.800 C 191.904 238.583,191.978 238.456,191.600 238.456 C 191.270 238.456,190.640 238.611,190.200 238.800 M149.800 240.400 C 150.240 240.589,150.960 240.738,151.400 240.732 C 152.043 240.723,152.004 240.657,151.200 240.400 C 149.832 239.962,148.781 239.962,149.800 240.400 M153.000 241.197 C 153.764 241.528,156.714 241.755,156.367 241.456 C 156.275 241.377,155.300 241.209,154.200 241.082 C 152.913 240.933,152.485 240.974,153.000 241.197 M180.500 241.476 C 180.885 241.576,181.515 241.576,181.900 241.476 C 182.285 241.375,181.970 241.293,181.200 241.293 C 180.430 241.293,180.115 241.375,180.500 241.476 M157.700 241.876 C 158.085 241.976,158.715 241.976,159.100 241.876 C 159.485 241.775,159.170 241.693,158.400 241.693 C 157.630 241.693,157.315 241.775,157.700 241.876 M164.078 242.298 C 166.431 242.369,170.391 242.369,172.878 242.299 C 175.365 242.229,173.440 242.171,168.600 242.170 C 163.760 242.170,161.725 242.228,164.078 242.298 " stroke="none" fill="#76b694" fill-rule="evenodd"></path><path id="path6" d="M208.800 117.000 C 209.546 117.770,210.247 118.400,210.357 118.400 C 210.467 118.400,209.946 117.770,209.200 117.000 C 208.454 116.230,207.753 115.600,207.643 115.600 C 207.533 115.600,208.054 116.230,208.800 117.000 M177.309 176.400 C 177.309 177.390,177.387 177.795,177.482 177.300 C 177.578 176.805,177.578 175.995,177.482 175.500 C 177.387 175.005,177.309 175.410,177.309 176.400 M216.493 198.800 C 216.493 199.570,216.575 199.885,216.676 199.500 C 216.776 199.115,216.776 198.485,216.676 198.100 C 216.575 197.715,216.493 198.030,216.493 198.800 M169.731 203.400 C 169.733 204.940,169.805 205.521,169.892 204.691 C 169.979 203.861,169.977 202.601,169.889 201.891 C 169.800 201.181,169.729 201.860,169.731 203.400 M216.501 204.600 C 216.505 205.480,216.587 205.793,216.683 205.295 C 216.779 204.798,216.775 204.078,216.675 203.695 C 216.575 203.313,216.496 203.720,216.501 204.600 M115.600 222.600 C 116.346 223.370,117.047 224.000,117.157 224.000 C 117.267 224.000,116.746 223.370,116.000 222.600 C 115.254 221.830,114.553 221.200,114.443 221.200 C 114.333 221.200,114.854 221.830,115.600 222.600 M169.905 231.083 C 170.402 231.179,171.122 231.175,171.505 231.075 C 171.887 230.975,171.480 230.896,170.600 230.901 C 169.720 230.905,169.407 230.987,169.905 231.083 " stroke="none" fill="#8cb49c" fill-rule="evenodd"></path><path id="path7" d="M166.197 108.405 C 166.044 108.652,166.028 108.961,166.160 109.093 C 166.292 109.225,166.400 109.123,166.400 108.867 C 166.400 108.187,167.109 108.295,167.330 109.008 C 167.473 109.470,167.504 109.454,167.459 108.941 C 167.388 108.126,166.581 107.784,166.197 108.405 M165.157 110.700 C 164.070 113.521,162.653 118.750,163.558 116.600 C 164.236 114.989,165.929 109.600,165.757 109.600 C 165.660 109.600,165.390 110.095,165.157 110.700 M167.811 110.900 C 168.265 113.538,168.477 114.382,169.470 117.506 C 170.048 119.324,170.601 120.733,170.697 120.636 C 170.794 120.539,170.513 119.411,170.073 118.130 C 169.633 116.848,169.056 114.810,168.791 113.600 C 168.244 111.107,167.488 109.024,167.811 110.900 M199.105 113.083 C 199.602 113.179,200.322 113.175,200.705 113.075 C 201.087 112.975,200.680 112.896,199.800 112.901 C 198.920 112.905,198.607 112.987,199.105 113.083 M195.600 113.606 C 195.178 113.882,195.415 113.923,196.400 113.742 C 198.125 113.425,198.451 113.198,197.167 113.206 C 196.635 113.209,195.930 113.389,195.600 113.606 M192.800 114.850 C 192.030 115.307,190.963 116.248,190.429 116.941 C 189.498 118.149,189.523 118.141,191.029 116.746 C 191.893 115.946,193.140 115.008,193.800 114.662 C 194.460 114.315,194.820 114.029,194.600 114.025 C 194.380 114.021,193.570 114.393,192.800 114.850 M207.734 115.553 C 209.961 117.021,212.282 120.508,212.826 123.200 C 213.080 124.461,213.113 124.489,213.154 123.487 C 213.246 121.258,208.794 114.795,207.172 114.803 C 206.857 114.804,207.110 115.142,207.734 115.553 M187.579 121.455 C 187.358 122.036,187.252 122.585,187.343 122.676 C 187.433 122.767,187.699 122.292,187.933 121.620 C 188.453 120.128,188.139 119.982,187.579 121.455 M171.344 122.528 C 172.042 124.198,173.163 126.282,173.184 125.948 C 173.208 125.568,171.167 121.200,170.965 121.200 C 170.868 121.200,171.039 121.798,171.344 122.528 M186.937 126.200 C 186.939 127.960,187.009 128.630,187.093 127.689 C 187.178 126.749,187.177 125.309,187.091 124.489 C 187.005 123.670,186.936 124.440,186.937 126.200 M161.459 125.088 C 161.321 125.919,161.239 129.300,161.276 132.600 L 161.344 138.600 161.593 131.200 C 161.730 127.130,161.812 123.749,161.775 123.688 C 161.739 123.626,161.596 124.256,161.459 125.088 M213.293 126.400 C 213.293 127.170,213.375 127.485,213.476 127.100 C 213.576 126.715,213.576 126.085,213.476 125.700 C 213.375 125.315,213.293 125.630,213.293 126.400 M174.630 129.000 C 176.188 131.893,178.794 136.000,179.071 136.000 C 179.315 136.000,178.373 134.330,177.378 133.000 C 176.884 132.340,176.099 130.990,175.632 130.000 C 175.165 129.010,174.410 127.750,173.953 127.200 C 173.496 126.650,173.801 127.460,174.630 129.000 M212.860 128.867 C 212.827 129.454,212.696 130.264,212.570 130.667 C 212.352 131.360,212.365 131.361,212.795 130.690 C 213.046 130.299,213.177 129.489,213.086 128.890 L 212.920 127.800 212.860 128.867 M187.421 130.400 C 188.418 134.207,192.308 138.095,196.000 138.974 C 196.550 139.105,196.078 138.780,194.951 138.252 C 192.046 136.889,189.795 134.697,188.380 131.854 C 187.709 130.504,187.277 129.850,187.421 130.400 M210.858 133.707 C 209.727 135.536,208.480 136.625,206.182 137.791 C 205.092 138.344,204.420 138.797,204.688 138.798 C 206.198 138.804,210.030 135.811,211.329 133.612 C 212.296 131.975,211.875 132.060,210.858 133.707 M101.942 136.100 C 103.524 138.377,107.467 142.824,109.200 144.285 C 112.027 146.669,116.068 149.661,117.990 150.794 C 119.076 151.435,120.468 152.257,121.082 152.621 C 122.131 153.243,122.150 153.243,121.400 152.613 C 120.960 152.244,119.593 151.347,118.362 150.620 C 112.892 147.389,106.683 141.885,103.107 137.100 C 100.871 134.107,100.095 133.441,101.942 136.100 M98.051 137.780 C 97.583 138.776,97.202 139.818,97.204 140.096 C 97.206 140.373,97.660 139.629,98.212 138.442 C 98.765 137.255,99.146 136.213,99.060 136.126 C 98.973 136.040,98.519 136.784,98.051 137.780 M180.417 138.238 C 183.080 142.136,192.607 154.000,193.073 154.000 C 193.175 154.000,192.785 153.415,192.207 152.700 C 191.628 151.985,190.670 150.770,190.078 150.000 C 189.485 149.230,188.433 147.970,187.740 147.200 C 185.982 145.248,183.018 141.390,181.385 138.926 C 180.628 137.786,179.799 136.723,179.543 136.565 C 179.286 136.406,179.680 137.159,180.417 138.238 M161.695 139.600 C 161.695 140.150,161.832 141.140,162.000 141.800 C 162.272 142.870,162.305 142.892,162.305 142.000 C 162.305 141.450,162.168 140.460,162.000 139.800 C 161.728 138.730,161.695 138.708,161.695 139.600 M200.200 139.200 L 197.000 139.453 200.000 139.521 C 201.650 139.557,203.270 139.413,203.600 139.200 C 203.930 138.987,204.020 138.843,203.800 138.879 C 203.580 138.916,201.960 139.061,200.200 139.200 M162.805 144.913 C 162.799 145.741,165.154 152.000,165.472 152.000 C 165.589 152.000,165.552 151.685,165.389 151.300 C 165.226 150.915,164.579 149.160,163.952 147.400 C 163.324 145.640,162.808 144.521,162.805 144.913 M94.637 147.332 C 94.287 148.537,94.011 149.855,94.024 150.262 C 94.037 150.668,94.386 149.744,94.800 148.209 C 95.691 144.900,95.556 144.171,94.637 147.332 M124.000 154.200 C 124.990 154.730,125.980 155.164,126.200 155.164 C 126.420 155.164,125.790 154.730,124.800 154.200 C 123.810 153.670,122.820 153.236,122.600 153.236 C 122.380 153.236,123.010 153.670,124.000 154.200 M194.976 156.500 C 195.812 157.545,196.571 158.400,196.662 158.400 C 197.057 158.400,195.963 156.903,194.762 155.800 C 193.504 154.644,193.512 154.670,194.976 156.500 M128.595 156.392 C 128.734 156.616,129.011 156.800,129.212 156.800 C 129.412 156.800,130.527 157.234,131.688 157.765 C 132.850 158.295,135.650 159.466,137.912 160.366 C 146.593 163.822,153.232 167.881,158.310 172.839 C 159.979 174.467,160.942 175.269,160.451 174.619 C 158.132 171.554,146.402 162.800,144.612 162.800 C 144.515 162.800,143.303 162.279,141.918 161.642 C 140.533 161.006,137.870 159.897,136.000 159.178 C 134.130 158.459,132.420 157.749,132.200 157.599 C 131.324 157.002,128.359 156.009,128.595 156.392 M92.571 165.600 C 92.571 170.550,92.628 172.575,92.699 170.100 C 92.769 167.625,92.769 163.575,92.699 161.100 C 92.628 158.625,92.571 160.650,92.571 165.600 M168.970 158.259 C 169.626 159.618,174.529 164.788,176.788 166.504 L 178.177 167.559 177.688 169.385 C 177.420 170.390,177.221 171.614,177.246 172.106 C 177.288 172.929,177.586 171.870,178.232 168.600 C 178.448 167.504,178.244 167.215,175.874 165.258 C 173.648 163.419,171.599 161.203,168.977 157.800 C 168.421 157.078,168.420 157.122,168.970 158.259 M192.262 163.300 C 189.990 165.555,187.726 168.030,187.231 168.800 C 186.390 170.109,186.418 170.096,187.661 168.600 C 188.392 167.720,190.764 165.245,192.932 163.100 C 195.100 160.955,196.765 159.200,196.633 159.200 C 196.501 159.200,194.534 161.045,192.262 163.300 M185.504 171.300 C 184.612 172.665,183.127 175.661,183.272 175.804 C 183.342 175.874,184.066 174.686,184.881 173.165 C 186.349 170.422,186.634 169.571,185.504 171.300 M206.101 173.900 C 205.459 174.725,204.801 175.670,204.637 176.000 C 204.474 176.330,204.757 176.060,205.266 175.400 C 205.775 174.740,206.590 173.795,207.077 173.300 C 207.565 172.805,207.807 172.400,207.615 172.400 C 207.424 172.400,206.742 173.075,206.101 173.900 M208.642 173.300 C 208.801 173.575,209.303 174.336,209.758 174.992 C 210.213 175.647,211.169 177.267,211.883 178.592 C 213.318 181.252,213.698 181.344,212.351 178.705 C 211.402 176.844,208.778 172.800,208.520 172.800 C 208.428 172.800,208.483 173.025,208.642 173.300 M92.893 176.400 C 92.893 177.170,92.975 177.485,93.076 177.100 C 93.176 176.715,93.176 176.085,93.076 175.700 C 92.975 175.315,92.893 175.630,92.893 176.400 M161.600 176.168 C 161.600 176.320,162.317 177.500,163.194 178.791 C 164.905 181.311,166.780 185.094,167.757 188.000 C 168.089 188.990,168.368 189.530,168.375 189.200 C 168.391 188.483,167.462 185.729,167.074 185.341 C 166.923 185.190,166.800 184.824,166.800 184.527 C 166.800 184.229,165.961 182.594,164.935 180.893 C 162.989 177.664,161.600 175.697,161.600 176.168 M176.893 178.000 C 176.893 178.770,176.975 179.085,177.076 178.700 C 177.176 178.315,177.176 177.685,177.076 177.300 C 176.975 176.915,176.893 177.230,176.893 178.000 M202.929 178.640 C 202.711 179.208,204.835 184.369,205.711 185.400 C 206.202 185.979,205.407 183.982,204.186 181.573 C 203.607 180.431,203.222 179.159,203.329 178.748 C 203.568 177.835,203.269 177.754,202.929 178.640 M181.044 182.044 C 180.667 183.610,180.448 184.982,180.559 185.093 C 180.670 185.204,180.870 184.778,181.003 184.147 C 181.136 183.516,181.440 182.230,181.678 181.289 C 181.916 180.347,182.025 179.492,181.921 179.388 C 181.817 179.283,181.422 180.479,181.044 182.044 M177.301 181.800 C 177.305 182.680,177.387 182.993,177.483 182.495 C 177.579 181.998,177.575 181.278,177.475 180.895 C 177.375 180.513,177.296 180.920,177.301 181.800 M94.006 182.433 C 94.009 182.965,94.189 183.670,94.406 184.000 C 94.682 184.422,94.723 184.185,94.542 183.200 C 94.225 181.475,93.998 181.149,94.006 182.433 M178.032 185.400 C 178.030 185.840,178.286 186.650,178.600 187.200 C 179.330 188.478,179.334 188.204,178.612 186.200 C 178.295 185.320,178.034 184.960,178.032 185.400 M215.466 188.600 C 216.154 192.871,216.298 193.463,216.342 192.200 C 216.366 191.540,216.120 190.100,215.797 189.000 C 215.282 187.248,215.241 187.199,215.466 188.600 M206.658 188.800 C 206.975 190.525,207.202 190.851,207.194 189.567 C 207.191 189.035,207.011 188.330,206.794 188.000 C 206.518 187.578,206.477 187.815,206.658 188.800 M115.072 192.200 C 116.262 195.950,123.215 205.191,129.068 210.800 C 132.181 213.783,130.489 211.774,126.300 207.512 C 125.266 206.460,124.884 205.600,125.452 205.600 C 125.591 205.600,126.716 206.607,127.952 207.838 C 129.189 209.069,130.650 210.399,131.200 210.795 C 131.750 211.191,130.028 209.329,127.372 206.657 C 124.717 203.985,121.151 199.910,119.447 197.600 C 114.793 191.289,114.777 191.269,115.072 192.200 M207.750 196.200 C 207.751 198.620,207.816 199.558,207.896 198.285 C 207.976 197.012,207.975 195.032,207.894 193.885 C 207.814 192.738,207.749 193.780,207.750 196.200 M169.714 196.200 C 169.717 197.300,169.795 197.703,169.887 197.095 C 169.979 196.486,169.977 195.586,169.882 195.095 C 169.787 194.603,169.711 195.100,169.714 196.200 M98.832 196.713 C 98.796 197.286,100.700 201.200,101.013 201.200 C 101.123 201.200,100.786 200.345,100.263 199.300 C 99.740 198.255,99.211 197.130,99.088 196.800 C 98.941 196.409,98.852 196.379,98.832 196.713 M216.954 201.600 C 216.954 204.350,217.018 205.475,217.096 204.100 C 217.174 202.725,217.174 200.475,217.096 199.100 C 217.018 197.725,216.954 198.850,216.954 201.600 M119.994 199.344 C 119.987 199.822,119.458 199.157,118.764 197.800 C 118.442 197.171,118.531 197.202,119.177 197.944 C 119.630 198.464,119.997 199.094,119.994 199.344 M170.114 200.600 C 170.117 201.700,170.195 202.103,170.287 201.495 C 170.379 200.886,170.377 199.986,170.282 199.495 C 170.187 199.003,170.111 199.500,170.114 200.600 M124.947 205.109 C 125.192 205.524,125.136 205.645,124.758 205.519 C 124.153 205.318,120.465 200.807,120.425 200.220 C 120.399 199.821,124.347 204.090,124.947 205.109 M102.000 203.353 C 102.000 203.782,103.190 206.000,103.421 206.000 C 103.531 206.000,103.323 205.415,102.959 204.700 C 102.217 203.240,102.000 202.936,102.000 203.353 M170.120 206.800 C 170.120 208.010,170.195 208.505,170.287 207.900 C 170.378 207.295,170.378 206.305,170.287 205.700 C 170.195 205.095,170.120 205.590,170.120 206.800 M104.124 207.400 C 104.462 208.060,105.038 208.960,105.404 209.400 C 105.770 209.840,105.665 209.480,105.170 208.600 C 104.080 206.658,103.264 205.722,104.124 207.400 M169.720 211.200 C 169.720 212.410,169.795 212.905,169.887 212.300 C 169.978 211.695,169.978 210.705,169.887 210.100 C 169.795 209.495,169.720 209.990,169.720 211.200 M216.093 210.800 C 216.093 211.570,216.175 211.885,216.276 211.500 C 216.376 211.115,216.376 210.485,216.276 210.100 C 216.175 209.715,216.093 210.030,216.093 210.800 M106.616 211.600 C 110.704 218.958,118.396 226.805,125.045 230.403 C 125.900 230.866,126.254 231.010,125.831 230.722 C 117.771 225.244,113.072 220.796,109.218 215.000 C 107.231 212.011,105.820 210.167,106.616 211.600 M201.262 214.700 C 200.153 216.405,198.658 218.520,197.941 219.400 C 196.765 220.844,196.747 220.902,197.756 220.000 C 198.371 219.450,199.817 217.560,200.968 215.800 C 203.508 211.918,203.697 211.600,203.464 211.600 C 203.363 211.600,202.372 212.995,201.262 214.700 M135.191 213.789 C 135.770 214.487,141.214 218.124,141.391 217.932 C 141.457 217.859,139.979 216.764,138.105 215.498 C 136.231 214.231,134.920 213.462,135.191 213.789 M134.544 215.509 C 134.860 216.021,137.200 217.753,137.200 217.475 C 137.200 217.376,136.539 216.791,135.732 216.175 C 134.924 215.559,134.389 215.259,134.544 215.509 M214.605 216.070 C 214.318 217.063,213.444 219.103,212.536 220.900 C 211.744 222.465,212.166 222.263,213.141 220.609 C 214.074 219.030,215.316 215.583,215.050 215.317 C 214.953 215.219,214.752 215.558,214.605 216.070 M168.424 218.830 C 168.133 220.463,167.815 222.070,167.717 222.400 C 167.559 222.933,167.581 222.933,167.912 222.400 C 168.414 221.589,169.335 217.005,169.123 216.369 C 169.030 216.089,168.715 217.196,168.424 218.830 M137.600 217.701 C 137.600 217.866,142.030 220.914,143.500 221.760 C 144.855 222.539,143.748 221.547,141.900 220.325 C 138.066 217.791,137.600 217.507,137.600 217.701 M142.000 218.151 C 142.000 218.416,147.312 221.222,147.485 221.048 C 147.561 220.973,146.357 220.246,144.811 219.434 C 143.265 218.621,142.000 218.044,142.000 218.151 M144.400 222.135 C 144.400 222.406,147.274 224.059,147.446 223.887 C 147.526 223.808,146.873 223.339,145.996 222.846 C 145.118 222.352,144.400 222.033,144.400 222.135 M193.400 223.667 C 192.300 224.548,189.780 226.061,187.800 227.029 C 184.025 228.875,183.633 229.506,187.305 227.826 C 190.131 226.534,196.834 221.924,195.731 222.032 C 195.549 222.050,194.500 222.786,193.400 223.667 M209.840 225.183 C 207.708 228.302,203.819 232.115,200.565 234.276 C 198.242 235.818,197.541 236.618,199.700 235.262 C 204.287 232.382,208.674 228.033,211.162 223.900 C 212.627 221.467,211.891 222.181,209.840 225.183 M153.800 223.750 C 155.096 224.309,157.600 224.882,157.600 224.618 C 157.600 224.436,153.463 223.191,152.938 223.216 C 152.752 223.224,153.140 223.465,153.800 223.750 M152.169 226.218 C 153.252 226.755,154.204 227.129,154.285 227.049 C 154.454 226.879,150.959 225.190,150.504 225.221 C 150.337 225.233,151.086 225.681,152.169 226.218 M166.674 225.752 C 166.550 226.074,166.033 226.417,165.524 226.515 C 164.666 226.678,164.661 226.695,165.451 226.746 C 166.286 226.799,167.514 225.781,167.106 225.373 C 166.992 225.259,166.798 225.429,166.674 225.752 M159.600 229.000 C 160.370 229.297,161.360 229.541,161.800 229.543 C 162.240 229.545,161.790 229.291,160.800 228.979 C 158.539 228.267,157.733 228.281,159.600 229.000 M182.600 229.200 L 181.400 229.505 182.476 229.553 C 183.068 229.579,183.664 229.420,183.800 229.200 C 183.936 228.980,183.992 228.821,183.924 228.847 C 183.856 228.873,183.260 229.032,182.600 229.200 M165.105 230.283 C 165.602 230.379,166.322 230.375,166.705 230.275 C 167.087 230.175,166.680 230.096,165.800 230.101 C 164.920 230.105,164.607 230.187,165.105 230.283 M177.305 230.287 C 177.914 230.379,178.814 230.377,179.305 230.282 C 179.797 230.187,179.300 230.111,178.200 230.114 C 177.100 230.117,176.697 230.195,177.305 230.287 M171.091 230.689 C 171.801 230.777,173.061 230.779,173.891 230.692 C 174.721 230.605,174.140 230.533,172.600 230.531 C 171.060 230.529,170.381 230.600,171.091 230.689 M129.000 232.721 C 129.571 233.298,132.466 234.867,132.639 234.694 C 132.719 234.614,131.843 234.047,130.692 233.433 C 129.542 232.819,128.780 232.499,129.000 232.721 M136.800 236.735 C 139.272 237.958,143.226 239.307,143.509 239.025 C 143.611 238.922,143.178 238.712,142.547 238.557 C 141.916 238.402,139.965 237.673,138.212 236.938 C 134.384 235.331,133.790 235.246,136.800 236.735 M195.200 237.400 C 192.177 238.983,192.296 239.294,195.342 237.772 C 197.144 236.871,198.513 235.962,197.980 236.019 C 197.881 236.030,196.630 236.651,195.200 237.400 M145.600 239.727 C 145.600 239.982,149.086 241.056,151.000 241.391 C 153.359 241.804,152.582 241.383,149.600 240.632 C 148.170 240.272,146.685 239.881,146.300 239.762 C 145.915 239.643,145.600 239.628,145.600 239.727 M186.400 240.625 C 185.630 240.916,185.270 241.162,185.600 241.171 C 185.930 241.181,186.920 240.929,187.800 240.612 C 188.680 240.295,189.040 240.049,188.600 240.065 C 188.160 240.082,187.170 240.334,186.400 240.625 M153.300 241.876 C 153.685 241.976,154.315 241.976,154.700 241.876 C 155.085 241.775,154.770 241.693,154.000 241.693 C 153.230 241.693,152.915 241.775,153.300 241.876 M158.700 242.689 C 159.415 242.778,160.585 242.778,161.300 242.689 C 162.015 242.601,161.430 242.528,160.000 242.528 C 158.570 242.528,157.985 242.601,158.700 242.689 M175.907 242.690 C 176.626 242.779,177.706 242.777,178.307 242.686 C 178.908 242.595,178.320 242.522,177.000 242.524 C 175.680 242.526,175.188 242.601,175.907 242.690 M166.100 243.097 C 167.585 243.174,170.015 243.174,171.500 243.097 C 172.985 243.020,171.770 242.957,168.800 242.957 C 165.830 242.957,164.615 243.020,166.100 243.097 " stroke="none" fill="#c7edd4" fill-rule="evenodd"></path><path id="path8" d="M232.880 108.480 C 232.616 108.744,232.400 109.281,232.400 109.674 C 232.400 110.507,231.635 113.840,231.178 115.000 C 230.607 116.449,230.329 118.268,230.782 117.600 C 231.005 117.270,231.191 116.606,231.194 116.124 C 231.197 115.642,231.360 115.148,231.556 115.027 C 231.751 114.906,232.021 114.176,232.156 113.404 C 232.290 112.632,232.510 111.368,232.644 110.596 C 233.400 106.252,235.198 110.295,238.018 122.677 C 238.228 123.600,238.421 125.220,238.447 126.277 C 238.473 127.335,238.633 128.740,238.802 129.400 C 239.487 132.080,238.702 123.968,237.950 120.600 C 235.836 111.132,234.182 107.178,232.880 108.480 M229.255 120.529 C 228.735 121.668,227.942 123.410,227.492 124.400 C 225.428 128.941,220.605 136.942,217.825 140.437 C 217.371 141.008,216.460 142.176,215.800 143.033 C 215.140 143.890,213.968 145.313,213.195 146.196 C 211.374 148.276,208.212 152.073,206.196 154.600 C 205.318 155.700,203.250 158.152,201.600 160.050 C 197.853 164.358,197.200 165.156,197.200 165.420 C 197.200 165.537,196.068 167.019,194.684 168.716 C 190.888 173.367,186.800 179.509,186.800 180.559 C 186.800 180.858,186.503 181.799,186.140 182.651 C 185.776 183.503,185.317 184.920,185.118 185.800 C 184.919 186.680,184.571 188.210,184.344 189.200 C 184.117 190.190,183.872 191.990,183.799 193.200 C 183.726 194.410,183.743 194.950,183.837 194.400 C 186.159 180.843,186.705 179.736,198.743 164.181 C 199.602 163.071,201.631 160.623,203.253 158.741 C 206.876 154.534,214.556 145.238,216.422 142.800 C 217.180 141.810,217.906 140.910,218.036 140.800 C 218.407 140.484,224.800 130.849,224.800 130.604 C 224.800 130.483,225.220 129.713,225.734 128.892 C 226.993 126.882,230.475 119.219,230.322 118.796 C 230.255 118.610,229.775 119.390,229.255 120.529 M238.480 137.067 C 238.436 138.644,238.284 140.264,238.141 140.667 C 237.946 141.220,238.000 141.292,238.359 140.962 C 238.675 140.672,238.790 139.460,238.698 137.362 L 238.561 134.200 238.480 137.067 M298.036 135.700 C 295.610 139.442,293.287 141.984,288.987 145.600 C 287.966 146.458,282.706 149.997,280.200 151.512 C 278.452 152.568,272.887 155.423,271.000 156.232 C 269.900 156.704,267.780 157.655,266.290 158.345 C 264.799 159.035,263.325 159.600,263.014 159.600 C 262.702 159.600,262.343 159.768,262.216 159.974 C 261.633 160.918,267.139 158.652,275.331 154.577 C 285.165 149.685,292.428 144.039,297.299 137.500 C 298.405 136.015,299.546 134.800,299.835 134.800 C 300.883 134.800,304.671 144.441,305.964 150.400 C 306.226 151.610,306.626 153.334,306.853 154.232 C 307.080 155.129,307.417 159.629,307.602 164.232 L 307.939 172.600 307.803 164.159 C 307.728 159.516,307.488 155.016,307.268 154.159 C 307.049 153.301,306.658 151.610,306.399 150.400 C 305.696 147.113,303.352 140.185,301.902 137.111 C 300.399 133.925,299.419 133.567,298.036 135.700 M237.650 142.400 C 237.552 144.065,235.927 148.816,234.093 152.800 C 232.641 155.955,229.241 160.419,225.564 164.000 L 221.663 167.800 222.240 170.000 C 223.447 174.602,223.351 180.392,222.002 184.400 C 221.817 184.950,221.557 185.895,221.425 186.500 C 220.922 188.803,220.191 187.559,218.860 182.135 C 217.458 176.422,215.669 171.705,213.878 169.000 C 209.361 162.177,209.391 162.180,204.704 168.324 C 197.314 178.012,193.320 185.813,192.636 191.896 L 192.422 193.800 192.940 191.600 C 194.437 185.249,197.957 177.787,201.714 173.000 C 201.887 172.780,203.469 170.665,205.230 168.300 C 206.991 165.935,208.646 164.000,208.907 164.000 C 209.339 164.000,212.400 167.052,212.400 167.483 C 212.400 167.583,213.014 168.595,213.763 169.732 C 215.524 172.402,216.854 175.731,217.949 180.210 C 218.431 182.185,218.985 184.340,219.180 185.000 C 219.375 185.660,219.653 186.785,219.799 187.500 C 220.224 189.591,221.383 188.872,222.038 186.111 C 224.020 177.755,224.098 173.463,222.352 168.885 C 222.045 168.079,222.414 167.578,225.452 164.685 C 230.285 160.081,235.600 152.487,235.600 150.186 C 235.600 150.079,235.936 149.228,236.348 148.296 C 237.520 145.638,238.093 143.444,237.893 142.379 L 237.709 141.400 237.650 142.400 M193.200 154.125 C 193.200 154.194,193.785 154.779,194.500 155.425 L 195.800 156.600 194.625 155.300 C 193.530 154.088,193.200 153.816,193.200 154.125 M260.000 160.814 C 259.670 161.015,258.500 161.563,257.400 162.030 C 253.862 163.533,253.437 163.754,251.122 165.289 C 249.869 166.120,248.731 166.800,248.593 166.800 C 248.456 166.800,248.114 167.025,247.835 167.300 C 247.555 167.575,246.728 168.250,245.995 168.800 C 243.373 170.770,241.484 172.440,240.667 173.511 C 240.210 174.110,239.092 175.442,238.183 176.471 C 235.844 179.118,232.533 185.448,231.525 189.200 C 230.172 194.235,230.030 195.641,230.090 203.400 L 230.152 211.400 230.409 202.400 C 230.669 193.265,230.679 193.201,232.657 187.200 C 234.135 182.716,239.436 174.681,242.726 171.938 C 248.005 167.537,252.772 164.504,258.000 162.217 C 259.870 161.400,261.475 160.656,261.567 160.565 C 261.889 160.246,260.593 160.451,260.000 160.814 M307.264 174.600 C 307.222 175.700,306.917 177.751,306.585 179.158 C 306.254 180.565,306.061 181.794,306.157 181.890 C 306.533 182.266,307.643 176.025,307.496 174.363 L 307.340 172.600 307.264 174.600 M176.428 176.833 C 176.444 178.025,176.602 179.360,176.780 179.800 C 176.965 180.258,177.016 179.402,176.899 177.800 C 176.650 174.400,176.390 173.865,176.428 176.833 M305.142 184.888 C 302.472 195.087,298.418 203.583,290.199 216.200 C 285.812 222.936,277.379 229.572,266.200 235.084 C 263.780 236.278,262.217 237.136,262.726 236.992 C 264.681 236.438,271.324 233.146,273.586 231.609 C 274.890 230.724,276.054 230.000,276.175 230.000 C 276.295 230.000,277.250 229.358,278.297 228.574 C 286.472 222.451,287.482 221.295,294.830 209.661 C 298.041 204.577,302.609 194.864,304.171 189.800 C 304.443 188.920,304.764 187.930,304.885 187.600 C 305.595 185.669,306.066 183.644,305.942 183.054 C 305.864 182.681,305.504 183.506,305.142 184.888 M282.797 195.101 C 273.877 207.764,259.608 218.980,247.292 223.008 C 244.924 223.783,244.569 224.104,246.500 223.725 C 249.292 223.178,260.938 217.196,264.000 214.736 C 264.770 214.118,266.390 212.887,267.600 212.000 C 268.810 211.114,271.465 208.737,273.500 206.719 C 275.535 204.700,277.200 203.256,277.200 203.510 C 277.200 204.303,266.574 214.653,263.922 216.442 C 262.535 217.379,261.340 218.292,261.267 218.472 C 261.193 218.653,260.880 218.800,260.571 218.800 C 260.262 218.800,259.692 219.062,259.305 219.383 C 258.917 219.704,257.900 220.514,257.045 221.183 C 254.827 222.919,255.696 222.692,258.130 220.900 C 259.251 220.075,260.477 219.220,260.854 219.000 C 265.084 216.531,274.359 208.149,277.673 203.800 C 278.176 203.140,278.920 202.240,279.327 201.800 C 280.355 200.688,284.554 193.620,284.323 193.390 C 284.219 193.286,283.533 194.056,282.797 195.101 M192.128 196.400 C 192.128 197.830,192.201 198.415,192.289 197.700 C 192.378 196.985,192.378 195.815,192.289 195.100 C 192.201 194.385,192.128 194.970,192.128 196.400 M216.893 195.600 C 216.893 196.370,216.975 196.685,217.076 196.300 C 217.176 195.915,217.176 195.285,217.076 194.900 C 216.975 194.515,216.893 194.830,216.893 195.600 M183.309 197.200 C 183.309 198.190,183.387 198.595,183.482 198.100 C 183.578 197.605,183.578 196.795,183.482 196.300 C 183.387 195.805,183.309 196.210,183.309 197.200 M118.764 197.800 C 119.458 199.157,119.987 199.822,119.994 199.344 C 119.997 199.094,119.630 198.464,119.177 197.944 C 118.531 197.202,118.442 197.171,118.764 197.800 M182.928 201.600 C 182.928 203.030,183.001 203.615,183.089 202.900 C 183.178 202.185,183.178 201.015,183.089 200.300 C 183.001 199.585,182.928 200.170,182.928 201.600 M192.441 199.645 C 192.329 201.401,193.392 204.985,195.056 208.465 C 197.337 213.235,197.312 213.366,193.306 217.488 C 189.733 221.166,188.604 221.739,187.535 220.419 C 186.806 219.518,184.171 211.574,183.880 209.400 C 183.727 208.251,183.717 208.259,183.656 209.600 C 183.559 211.716,186.663 220.656,187.831 221.626 C 188.731 222.373,191.795 220.056,195.500 215.828 C 197.570 213.466,197.611 212.704,195.858 209.247 C 194.354 206.281,193.687 204.421,192.971 201.200 C 192.702 199.990,192.464 199.290,192.441 199.645 M120.422 200.200 C 120.435 200.714,122.728 203.407,122.954 203.175 C 123.049 203.079,122.515 202.280,121.769 201.400 C 121.022 200.520,120.417 199.980,120.422 200.200 M170.528 203.600 C 170.528 205.030,170.601 205.615,170.689 204.900 C 170.778 204.185,170.778 203.015,170.689 202.300 C 170.601 201.585,170.528 202.170,170.528 203.600 M123.900 204.819 C 124.615 205.463,125.203 206.216,125.206 206.494 C 125.210 206.839,125.336 206.809,125.600 206.400 C 125.936 205.880,126.151 206.078,126.070 206.833 C 126.056 206.962,126.309 207.067,126.633 207.067 C 127.373 207.067,124.087 203.858,123.224 203.737 C 122.867 203.687,123.155 204.150,123.900 204.819 M183.314 206.200 C 183.317 207.300,183.395 207.703,183.487 207.095 C 183.579 206.486,183.577 205.586,183.482 205.095 C 183.387 204.603,183.311 205.100,183.314 206.200 M230.656 214.000 C 230.767 215.430,231.007 216.960,231.189 217.400 C 231.371 217.840,231.739 219.550,232.006 221.200 C 232.596 224.842,233.403 226.799,234.319 226.804 C 235.127 226.809,241.851 225.241,243.000 224.780 C 243.440 224.603,244.070 224.355,244.400 224.227 C 245.804 223.687,242.954 224.321,236.044 226.087 C 233.513 226.733,233.507 226.719,231.597 217.000 C 230.492 211.377,230.440 211.210,230.656 214.000 M251.845 223.990 C 250.110 224.854,246.960 226.211,244.845 227.007 C 242.730 227.802,240.587 228.621,240.081 228.827 C 239.576 229.032,238.766 229.203,238.281 229.206 C 237.797 229.209,237.130 229.400,236.800 229.630 C 235.443 230.576,240.106 229.285,246.037 227.072 C 248.663 226.093,255.200 222.876,255.200 222.564 C 255.200 222.318,255.233 222.304,251.845 223.990 M212.117 229.492 C 211.503 230.313,209.695 232.258,208.100 233.814 C 204.985 236.855,204.828 237.158,205.900 238.074 C 208.036 239.898,219.578 242.866,224.000 242.728 C 225.511 242.681,225.575 242.651,224.400 242.539 C 217.001 241.836,205.600 238.621,205.600 237.238 C 205.600 237.015,206.347 236.150,207.260 235.316 C 209.543 233.230,210.253 232.466,211.727 230.510 C 213.369 228.330,213.754 228.231,216.614 229.250 C 217.926 229.718,220.260 230.157,221.800 230.226 L 224.600 230.352 221.800 230.018 C 220.260 229.835,218.048 229.305,216.885 228.842 C 213.991 227.690,213.407 227.769,212.117 229.492 M168.500 230.291 C 169.325 230.378,170.675 230.378,171.500 230.291 C 172.325 230.205,171.650 230.134,170.000 230.134 C 168.350 230.134,167.675 230.205,168.500 230.291 M174.500 230.276 C 174.885 230.376,175.515 230.376,175.900 230.276 C 176.285 230.175,175.970 230.093,175.200 230.093 C 174.430 230.093,174.115 230.175,174.500 230.276 M227.600 230.400 L 224.600 230.656 227.000 230.688 C 228.320 230.706,230.930 230.586,232.800 230.422 L 236.200 230.124 233.400 230.134 C 231.860 230.140,229.250 230.259,227.600 230.400 M257.800 238.474 C 256.040 239.121,253.880 239.802,253.000 239.988 C 252.120 240.173,250.356 240.611,249.080 240.962 C 247.805 241.313,246.275 241.625,245.680 241.654 C 244.728 241.703,244.707 241.730,245.507 241.883 C 247.020 242.174,258.812 238.963,261.082 237.642 C 262.262 236.956,261.190 237.227,257.800 238.474 M240.000 242.400 L 237.000 242.656 239.800 242.688 C 241.340 242.706,243.050 242.576,243.600 242.400 C 244.778 242.023,244.425 242.023,240.000 242.400 M228.482 243.096 C 229.958 243.173,232.478 243.173,234.082 243.097 C 235.687 243.021,234.480 242.958,231.400 242.958 C 228.320 242.957,227.007 243.019,228.482 243.096 " stroke="none" fill="#e4ecc4" fill-rule="evenodd"></path></g></svg>