<svg fill="#000000" xmlns="http://www.w3.org/2000/svg"  viewBox="0 0 26 26" width="26px" height="26px"><path d="M13,0C5.8210001,0,0,5.8210001,0,13c0,5.5074997,3.4265003,10.2115002,8.2624998,12.1049995	c-0.1134996-1.0279999-0.2165003-2.6065006,0.0454998-3.7290001c0.2360001-1.0139999,1.5244999-6.4619999,1.5244999-6.4619999	s-0.3889999-0.7789993-0.3889999-1.9294996c0-1.8079996,1.0474997-3.1570005,2.3520002-3.1570005	c1.1094999,0,1.6445007,0.8330002,1.6445007,1.8310003c0,1.1160002-0.7095003,2.783-1.0769997,4.3280001	c-0.3065004,1.2945004,0.6490002,2.3500004,1.9249992,2.3500004c2.3104992,0,4.0865002-2.4365005,4.0865002-5.9530001	c0-3.1125002-2.2360001-5.2890005-5.4295006-5.2890005c-3.6984997,0-5.8695002,2.7744999-5.8695002,5.6420002	c0,1.1170006,0.4300003,2.3150005,0.9674997,2.9669991c0.1059999,0.1289997,0.1215,0.2415009,0.0900002,0.3724995	c-0.0985003,0.4104996-0.3175001,1.2935009-0.3610001,1.4745007c-0.0565004,0.2385006-0.1885004,0.2880001-0.4344997,0.1735001	c-1.6239996-0.7560005-2.6389999-3.1294994-2.6389999-5.0365c0-4.1005001,2.9790001-7.8670001,8.5900002-7.8670001	c4.5100002,0,8.0144997,3.2129998,8.0144997,7.5084996c0,4.4804993-2.8255005,8.0860004-6.7460003,8.0860004	c-1.3174992,0-2.5555-0.6844997-2.9790001-1.493c0,0-0.6520004,2.4820004-0.8105001,3.0904999	c-0.2934999,1.1289997-1.0854998,2.5450001-1.6164999,3.407999C10.3675003,25.7964993,11.6599998,26,13,26	c7.1790009,0,13-5.8209991,13-13S20.1795006,0,13,0z"/></svg>