<svg id="svg" version="1.1" xmlns="http://www.w3.org/2000/svg" xmlns:xlink="http://www.w3.org/1999/xlink" width="400" height="400" viewBox="0, 0, 400,400"><g id="svgg"><path id="path0" d="M164.000 181.385 C 161.129 182.042,157.242 183.403,154.000 184.887 C 152.570 185.541,150.680 186.346,149.800 186.676 C 148.920 187.005,147.840 187.437,147.400 187.637 C 145.390 188.547,139.924 189.588,137.124 189.594 C 133.676 189.601,133.495 189.718,133.960 191.638 C 134.141 192.387,134.511 193.990,134.781 195.200 C 135.675 199.197,138.376 206.428,140.272 209.900 C 142.750 214.438,143.371 215.506,144.511 217.187 C 153.596 230.587,168.790 241.021,184.400 244.578 C 196.006 247.222,207.294 247.053,218.000 244.074 C 242.453 237.269,260.063 218.531,266.046 192.951 C 266.752 189.931,266.592 189.763,262.736 189.476 C 258.567 189.166,255.380 188.247,249.564 185.676 C 235.260 179.352,231.194 179.205,217.978 184.529 C 202.723 190.674,198.800 190.769,186.768 185.278 C 177.532 181.063,170.593 179.877,164.000 181.385 M201.828 193.906 C 202.063 194.068,202.684 195.100,203.209 196.200 C 206.492 203.083,212.060 205.305,219.621 202.750 C 224.374 201.144,226.092 201.286,231.225 203.709 C 235.974 205.952,237.943 206.241,241.265 205.179 C 246.253 203.586,246.197 206.396,241.200 208.430 C 238.614 209.483,234.193 209.159,231.055 207.688 C 227.579 206.057,227.042 206.300,228.739 208.738 C 229.902 210.410,230.400 212.311,230.400 215.080 C 230.400 218.012,231.044 219.549,232.794 220.796 C 235.105 222.441,234.104 223.671,231.514 222.369 C 228.552 220.879,227.200 218.998,227.200 216.366 C 227.200 210.361,222.866 206.565,217.594 207.953 C 213.126 209.130,211.817 209.057,204.200 207.208 C 201.723 206.606,201.396 206.699,200.674 208.214 C 199.409 210.867,199.822 212.195,203.403 217.000 C 206.625 221.322,207.425 224.758,205.764 227.130 C 204.780 228.535,203.896 227.571,204.214 225.438 C 204.551 223.184,203.927 221.818,201.275 218.995 C 200.024 217.664,198.682 215.975,198.293 215.243 C 197.627 213.988,197.535 213.945,196.693 214.496 C 194.239 216.102,193.895 219.157,195.600 224.200 C 197.390 229.495,197.052 231.805,194.072 234.661 C 190.466 238.116,187.527 237.966,190.856 234.497 C 193.980 231.243,194.181 229.659,192.124 224.520 C 190.458 220.359,190.819 217.409,193.721 211.470 C 197.428 203.884,197.265 203.357,191.838 205.400 C 189.903 206.128,188.397 206.400,186.291 206.401 C 182.657 206.403,181.325 207.150,179.345 210.295 C 176.578 214.690,174.851 216.000,171.820 216.000 C 169.726 216.000,169.229 215.000,171.100 214.551 C 173.252 214.035,174.253 213.235,175.379 211.131 C 176.006 209.959,177.152 208.213,177.926 207.251 C 181.401 202.933,175.953 202.338,169.986 206.383 C 165.641 209.328,163.099 209.415,159.843 206.731 C 157.749 205.005,158.532 203.502,160.654 205.171 C 162.830 206.883,164.700 206.531,169.000 203.600 C 173.304 200.667,177.862 199.760,181.326 201.149 C 186.160 203.086,194.019 199.972,196.085 195.300 L 196.837 193.600 199.119 193.606 C 200.373 193.609,201.592 193.744,201.828 193.906 " stroke="none" fill="#094d3c" fill-rule="evenodd"></path><path id="path1" d="M0.000 200.000 L 0.000 400.000 200.000 400.000 L 400.000 400.000 400.000 200.000 L 400.000 0.000 200.000 0.000 L 0.000 0.000 0.000 200.000 M211.800 112.204 C 238.478 117.114,259.101 136.510,266.024 163.200 C 267.615 169.335,268.251 184.491,266.971 185.771 C 266.320 186.422,264.930 186.523,263.200 186.043 L 262.200 185.766 261.950 178.583 C 260.724 143.323,234.369 117.216,200.000 117.215 C 192.516 117.214,180.603 119.265,179.020 120.825 C 178.811 121.031,178.333 121.200,177.958 121.200 C 177.096 121.200,168.056 125.822,165.400 127.620 C 147.925 139.456,138.017 158.582,138.003 180.510 L 138.000 185.620 136.974 186.010 C 133.036 187.507,132.400 186.517,132.400 178.890 C 132.400 147.697,153.252 120.846,183.408 113.207 C 190.069 111.520,205.182 110.986,211.800 112.204 M201.470 123.706 C 202.379 124.222,205.938 128.389,206.723 129.856 C 209.884 135.762,209.537 144.069,205.906 149.400 C 201.643 155.660,201.357 155.500,200.553 146.400 C 200.208 142.493,199.660 141.030,199.625 143.923 C 199.602 145.867,199.049 150.504,198.578 152.700 C 197.900 155.859,192.959 149.582,191.384 143.562 C 189.071 134.721,196.190 120.707,201.470 123.706 M183.013 147.975 C 190.192 149.965,196.216 156.085,198.981 164.200 C 199.195 164.829,199.519 164.359,200.495 162.000 C 205.839 149.084,218.289 143.864,230.329 149.490 C 232.855 150.671,233.227 151.444,232.542 154.086 C 230.244 162.945,223.955 167.835,213.662 168.766 C 208.828 169.203,207.690 169.502,206.325 170.691 C 205.187 171.682,204.707 170.935,205.017 168.657 C 205.171 167.526,205.420 166.510,205.571 166.400 C 206.035 166.062,206.922 163.589,206.670 163.337 C 205.462 162.129,202.163 173.475,201.592 180.800 C 201.074 187.450,201.165 187.200,199.262 187.200 C 197.765 187.200,196.507 186.402,196.925 185.718 C 197.887 184.143,195.678 171.006,193.775 166.983 C 192.621 164.544,192.019 164.191,192.995 166.526 C 193.606 167.988,193.833 171.200,193.326 171.200 C 193.175 171.200,192.671 170.842,192.205 170.405 C 191.232 169.491,188.913 168.998,183.800 168.618 C 174.613 167.934,167.806 162.358,166.049 154.076 C 165.475 151.372,165.818 150.712,168.514 149.330 C 172.823 147.121,178.139 146.624,183.013 147.975 M177.400 180.953 C 179.424 181.521,182.008 182.455,184.200 183.411 C 197.328 189.138,203.845 189.798,211.800 186.207 C 213.853 185.280,221.319 182.350,223.000 181.812 C 230.893 179.282,237.359 179.591,244.696 182.847 C 245.628 183.261,246.478 183.600,246.584 183.600 C 246.690 183.600,247.730 184.036,248.895 184.569 C 255.497 187.589,258.218 188.373,263.138 188.673 L 267.277 188.925 267.002 191.162 C 266.851 192.393,266.458 194.390,266.129 195.600 C 265.800 196.810,265.388 198.340,265.213 199.000 C 260.612 216.370,243.308 235.604,226.600 241.921 C 221.893 243.701,220.667 244.117,218.000 244.837 C 180.708 254.909,143.346 232.492,133.814 194.325 C 133.446 192.853,133.203 191.053,133.273 190.325 L 133.400 189.000 137.800 188.719 C 143.372 188.364,146.506 187.466,154.000 184.079 C 156.910 182.764,160.497 181.508,163.200 180.858 C 164.190 180.621,165.360 180.339,165.800 180.232 C 167.256 179.878,175.365 180.383,177.400 180.953 M197.032 195.013 C 195.786 199.979,187.262 203.637,181.107 201.848 C 176.560 200.526,174.739 200.943,168.400 204.755 C 165.664 206.400,164.649 206.801,163.200 206.806 C 161.890 206.811,161.563 206.918,162.000 207.200 C 163.251 208.008,166.990 207.667,168.441 206.612 C 174.039 202.540,177.020 201.820,179.210 204.010 C 180.308 205.108,180.205 205.767,178.665 207.499 C 177.930 208.324,176.810 209.966,176.176 211.146 C 175.542 212.326,174.388 213.740,173.612 214.287 C 172.221 215.269,172.217 215.279,173.342 215.024 C 175.162 214.610,176.267 213.686,177.843 211.264 C 180.972 206.456,181.905 205.903,187.741 205.397 C 189.469 205.247,191.629 204.785,192.541 204.371 C 197.854 201.958,198.284 203.675,194.402 211.800 C 191.280 218.333,191.069 220.344,193.045 224.712 C 194.874 228.756,194.382 231.982,191.461 235.100 C 189.425 237.273,191.102 236.550,193.378 234.274 C 196.353 231.299,196.640 229.293,194.821 224.200 C 193.197 219.652,193.460 217.014,195.788 214.473 L 197.128 213.011 198.005 213.805 C 198.487 214.241,199.159 215.133,199.497 215.787 C 199.835 216.442,201.052 217.972,202.202 219.188 C 204.729 221.863,205.188 222.692,205.240 224.674 L 205.280 226.200 205.642 224.662 C 206.095 222.734,205.241 220.642,202.453 216.849 C 199.803 213.242,199.600 212.775,199.600 210.280 C 199.600 206.217,200.685 205.584,205.600 206.780 C 210.384 207.944,212.682 208.139,215.463 207.615 C 223.967 206.014,226.095 207.447,227.839 215.951 C 228.531 219.325,229.288 220.419,231.800 221.682 L 233.400 222.486 231.630 220.657 L 229.861 218.828 229.585 214.853 C 229.338 211.296,229.177 210.682,228.053 209.016 C 225.814 205.698,226.894 204.934,231.055 206.892 C 235.936 209.188,241.604 208.696,244.025 205.767 C 244.693 204.959,244.336 205.003,240.251 206.232 C 237.396 207.092,235.958 206.797,230.816 204.298 C 226.573 202.236,223.330 202.025,219.400 203.553 C 212.531 206.225,205.282 203.246,202.548 196.630 C 201.971 195.235,201.548 194.772,200.700 194.610 C 200.095 194.495,199.082 194.301,198.449 194.179 C 197.456 193.988,197.261 194.103,197.032 195.013 M166.293 273.698 C 168.290 275.270,168.053 288.501,166.009 289.595 C 161.880 291.805,160.152 288.833,160.476 280.079 C 160.717 273.598,162.993 271.101,166.293 273.698 M227.200 281.587 C 227.200 290.251,227.117 290.535,224.800 289.800 C 223.473 289.379,223.567 273.920,224.900 273.311 C 227.044 272.331,227.200 272.892,227.200 281.587 M237.880 273.401 C 239.659 274.647,240.056 278.883,238.434 279.307 C 237.467 279.560,236.401 278.919,236.394 278.080 C 236.389 277.495,236.334 277.484,236.000 278.000 C 235.569 278.667,235.457 283.962,235.852 284.990 C 236.064 285.545,236.174 285.504,236.562 284.727 C 237.593 282.658,239.416 283.592,239.362 286.161 C 239.284 289.885,235.950 291.501,233.570 288.968 C 232.265 287.580,231.850 277.480,232.999 275.059 C 233.954 273.045,236.256 272.264,237.880 273.401 M177.903 273.626 C 179.609 274.221,180.169 275.775,179.804 278.899 C 179.522 281.313,179.496 283.577,179.702 287.800 C 179.830 290.412,178.283 290.772,177.123 288.400 C 176.468 287.060,176.438 287.045,176.419 288.051 C 176.394 289.419,175.479 290.157,174.205 289.837 L 173.200 289.585 173.200 281.659 C 173.200 277.300,173.320 273.613,173.467 273.467 C 173.878 273.055,176.540 273.151,177.903 273.626 M191.178 273.978 C 192.085 274.885,192.599 277.153,192.230 278.622 C 191.865 280.076,189.553 279.907,189.192 278.400 C 188.964 277.452,188.938 277.470,188.676 278.750 C 188.205 281.052,188.267 281.148,190.300 281.278 L 192.200 281.400 192.316 285.140 C 192.454 289.635,192.299 289.880,189.257 289.948 C 185.817 290.026,185.634 289.707,185.363 283.180 C 185.111 277.123,185.281 275.714,186.440 274.241 C 187.477 272.922,189.983 272.783,191.178 273.978 M203.608 274.831 C 203.850 275.728,204.305 278.383,204.620 280.731 C 204.935 283.079,205.342 285.908,205.524 287.018 C 205.929 289.489,205.781 290.002,204.667 289.994 C 203.394 289.985,202.934 289.556,202.614 288.078 C 202.240 286.356,201.232 286.518,200.602 288.400 C 200.082 289.955,198.218 290.635,197.759 289.438 C 197.360 288.397,199.493 274.745,200.245 273.527 C 200.958 272.374,203.178 273.234,203.608 274.831 M214.259 275.600 L 215.163 277.800 215.242 276.400 C 215.286 275.630,215.340 274.749,215.363 274.442 C 215.431 273.521,216.689 272.934,217.500 273.445 C 218.493 274.071,218.779 288.787,217.814 289.589 C 216.661 290.545,215.414 289.782,214.883 287.793 C 214.307 285.643,213.600 285.766,213.600 288.016 C 213.600 289.608,212.381 290.530,211.223 289.814 C 210.743 289.518,210.612 273.921,211.085 273.448 C 212.004 272.529,213.382 273.463,214.259 275.600 M163.600 281.576 C 163.600 284.063,163.773 286.060,164.000 286.200 C 164.258 286.359,164.400 284.804,164.400 281.824 C 164.400 279.008,164.244 277.200,164.000 277.200 C 163.758 277.200,163.600 278.925,163.600 281.576 M176.400 278.424 C 176.400 278.877,176.580 279.136,176.800 279.000 C 177.020 278.864,177.200 278.493,177.200 278.176 C 177.200 277.859,177.020 277.600,176.800 277.600 C 176.580 277.600,176.400 277.971,176.400 278.424 " stroke="none" fill="#fbfbfb" fill-rule="evenodd"></path><path id="path2" d="M193.800 112.259 C 182.184 113.602,168.390 118.550,162.800 123.378 C 162.250 123.853,160.795 124.889,159.567 125.681 C 157.007 127.330,148.632 135.657,146.560 138.613 C 137.220 151.935,133.651 162.355,132.990 178.237 C 132.718 184.762,132.971 185.627,135.083 185.405 C 135.918 185.318,136.735 185.236,136.900 185.223 C 137.065 185.210,137.200 183.265,137.200 180.900 C 137.201 176.014,137.805 168.484,138.364 166.400 C 145.227 140.819,160.410 124.867,184.000 118.449 C 195.679 115.271,211.353 115.871,220.991 119.864 C 222.316 120.413,224.120 121.160,225.000 121.524 C 234.435 125.425,245.099 133.861,250.379 141.600 C 251.354 143.030,252.698 145.005,253.364 145.989 C 258.928 154.199,262.170 165.456,262.661 178.263 L 262.923 185.127 264.162 185.270 C 267.151 185.616,267.211 185.454,266.987 177.600 C 266.568 162.861,261.638 148.958,252.873 137.800 C 250.780 135.136,242.094 126.402,241.536 126.401 C 241.391 126.400,240.401 125.723,239.336 124.896 C 234.976 121.509,225.296 116.540,220.800 115.381 C 219.370 115.013,217.840 114.556,217.400 114.367 C 213.579 112.722,200.159 111.523,193.800 112.259 M196.989 126.300 C 190.289 133.273,189.901 144.496,196.131 151.100 C 198.109 153.198,197.976 153.593,198.845 143.082 C 199.577 134.220,200.584 135.188,201.255 145.400 C 201.795 153.617,201.798 153.620,204.338 150.190 C 209.855 142.739,209.165 132.804,202.664 126.100 C 200.108 123.464,199.700 123.478,196.989 126.300 M174.200 148.247 C 166.744 150.179,165.463 151.881,167.801 156.750 C 171.466 164.387,175.743 167.115,185.400 167.976 C 187.820 168.192,190.413 168.494,191.162 168.647 L 192.525 168.925 192.279 167.409 C 191.993 165.645,189.896 162.011,188.276 160.469 C 185.654 157.975,185.224 157.600,184.990 157.600 C 184.639 157.600,183.475 156.392,183.653 156.214 C 184.176 155.691,188.264 158.380,190.370 160.632 C 194.940 165.517,196.881 171.025,197.551 181.003 C 197.890 186.063,197.850 185.938,199.218 186.091 C 200.145 186.195,200.199 186.071,200.471 183.200 C 201.933 167.795,205.017 160.913,212.097 157.251 C 215.371 155.558,216.294 155.767,213.680 157.609 C 208.837 161.022,203.104 171.118,207.216 168.992 C 207.953 168.611,210.277 168.226,213.116 168.015 C 222.336 167.329,228.225 163.411,231.079 156.064 C 232.732 151.809,232.112 150.685,227.297 149.197 C 215.450 145.538,204.247 152.000,200.396 164.713 C 199.379 168.073,198.873 168.074,198.026 164.718 C 195.353 154.129,183.396 145.863,174.200 148.247 M168.900 180.676 C 169.285 180.776,169.915 180.776,170.300 180.676 C 170.685 180.575,170.370 180.493,169.600 180.493 C 168.830 180.493,168.515 180.575,168.900 180.676 M133.861 189.500 C 133.758 189.665,134.782 189.750,136.137 189.689 C 140.548 189.489,141.070 189.329,137.524 189.264 C 135.612 189.229,133.963 189.335,133.861 189.500 M263.386 189.498 C 264.699 189.579,266.049 189.860,266.386 190.123 C 266.924 190.541,266.932 190.513,266.451 189.900 C 266.021 189.352,265.371 189.216,263.451 189.276 L 261.000 189.351 263.386 189.498 M206.200 200.800 C 207.059 201.680,207.852 202.400,207.962 202.400 C 208.072 202.400,207.459 201.680,206.600 200.800 C 205.741 199.920,204.948 199.200,204.838 199.200 C 204.728 199.200,205.341 199.920,206.200 200.800 M176.305 200.683 C 176.802 200.779,177.522 200.775,177.905 200.675 C 178.287 200.575,177.880 200.496,177.000 200.501 C 176.120 200.505,175.807 200.587,176.305 200.683 M184.105 201.887 C 184.714 201.979,185.614 201.977,186.105 201.882 C 186.597 201.787,186.100 201.711,185.000 201.714 C 183.900 201.717,183.497 201.795,184.105 201.887 M195.475 204.286 C 195.957 204.375,196.433 204.711,196.535 205.032 C 196.651 205.402,196.696 205.357,196.656 204.908 C 196.615 204.449,196.243 204.186,195.597 204.161 C 194.776 204.130,194.754 204.151,195.475 204.286 M158.400 205.064 C 158.400 205.282,158.895 205.897,159.500 206.430 L 160.600 207.400 159.600 206.200 C 159.050 205.540,158.555 204.925,158.500 204.833 C 158.445 204.742,158.400 204.845,158.400 205.064 M186.500 206.287 C 187.105 206.378,188.095 206.378,188.700 206.287 C 189.305 206.195,188.810 206.120,187.600 206.120 C 186.390 206.120,185.895 206.195,186.500 206.287 M164.100 208.676 C 164.485 208.776,165.115 208.776,165.500 208.676 C 165.885 208.575,165.570 208.493,164.800 208.493 C 164.030 208.493,163.715 208.575,164.100 208.676 M230.128 214.400 C 230.128 215.830,230.201 216.415,230.289 215.700 C 230.378 214.985,230.378 213.815,230.289 213.100 C 230.201 212.385,230.128 212.970,230.128 214.400 M201.000 218.800 C 202.083 219.900,203.060 220.800,203.170 220.800 C 203.280 220.800,202.483 219.900,201.400 218.800 C 200.317 217.700,199.340 216.800,199.230 216.800 C 199.120 216.800,199.917 217.700,201.000 218.800 M250.575 223.700 L 249.400 225.000 250.700 223.825 C 251.415 223.179,252.000 222.594,252.000 222.525 C 252.000 222.216,251.670 222.488,250.575 223.700 M150.800 225.400 C 151.546 226.170,152.247 226.800,152.357 226.800 C 152.467 226.800,151.946 226.170,151.200 225.400 C 150.454 224.630,149.753 224.000,149.643 224.000 C 149.533 224.000,150.054 224.630,150.800 225.400 M204.046 226.251 C 204.021 226.719,204.315 227.349,204.700 227.651 C 205.309 228.128,205.340 228.122,204.943 227.600 C 204.692 227.270,204.398 226.640,204.289 226.200 C 204.103 225.440,204.090 225.443,204.046 226.251 M196.509 228.800 C 196.509 229.790,196.587 230.195,196.682 229.700 C 196.778 229.205,196.778 228.395,196.682 227.900 C 196.587 227.405,196.509 227.810,196.509 228.800 M162.109 275.083 C 161.017 276.751,161.059 287.140,162.162 288.358 C 163.089 289.382,165.267 289.483,166.051 288.539 C 166.933 287.478,167.072 276.887,166.226 275.251 C 165.343 273.543,163.175 273.455,162.109 275.083 M173.932 280.445 C 173.735 288.150,173.843 289.288,174.748 289.117 C 175.199 289.031,175.432 288.501,175.503 287.397 C 175.824 282.395,176.477 281.994,177.417 286.219 C 178.082 289.210,179.053 290.185,178.951 287.762 C 178.749 282.917,178.745 281.041,178.929 278.536 C 179.194 274.939,178.828 274.362,176.116 274.102 L 174.098 273.908 173.932 280.445 M186.786 275.300 C 185.793 276.910,185.690 286.194,186.645 288.069 C 187.455 289.662,191.577 289.619,191.640 288.018 C 191.874 282.057,191.766 281.603,190.181 281.906 C 189.323 282.070,189.185 282.259,189.413 282.953 C 190.307 285.676,189.761 288.466,188.491 287.664 C 187.935 287.312,187.645 276.899,188.167 276.053 C 188.777 275.067,189.595 275.625,189.846 277.200 C 190.209 279.465,191.600 279.524,191.600 277.275 C 191.600 274.094,188.353 272.761,186.786 275.300 M200.681 274.300 C 200.526 274.579,199.823 278.569,198.822 284.846 C 198.590 286.301,198.400 287.876,198.400 288.346 C 198.400 289.679,199.583 289.387,199.863 287.986 C 200.350 285.551,202.928 285.425,203.376 287.814 C 203.531 288.641,203.871 289.200,204.218 289.200 C 204.906 289.200,204.997 287.075,204.435 284.120 C 204.235 283.064,203.865 280.850,203.613 279.200 C 202.814 273.963,202.827 274.000,201.792 274.000 C 201.272 274.000,200.772 274.135,200.681 274.300 M211.521 276.900 C 211.289 280.338,211.438 288.772,211.737 289.071 C 212.372 289.705,212.801 288.423,212.806 285.876 C 212.809 284.294,212.969 282.752,213.161 282.449 C 213.592 281.769,214.398 282.205,214.407 283.124 C 214.420 284.447,216.317 289.000,216.856 289.000 C 217.457 289.000,217.692 274.757,217.100 274.166 C 216.493 273.560,216.241 274.504,216.074 278.011 C 215.843 282.836,215.375 282.677,213.826 277.249 C 212.647 273.115,211.786 272.985,211.521 276.900 M225.297 274.675 C 224.437 276.775,225.062 289.580,225.997 289.002 C 226.243 288.850,226.400 285.970,226.400 281.600 C 226.400 274.843,226.072 272.783,225.297 274.675 M234.109 275.080 C 233.058 276.682,232.851 285.344,233.816 287.376 C 235.256 290.412,239.605 288.768,238.591 285.572 C 238.229 284.430,237.500 284.812,237.100 286.353 C 236.489 288.711,235.448 287.827,235.097 284.652 C 234.442 278.728,236.013 272.649,237.107 276.874 C 237.568 278.653,238.621 278.653,238.538 276.874 C 238.409 274.108,235.516 272.937,234.109 275.080 M165.130 281.132 C 165.248 285.753,165.185 286.330,164.461 287.218 L 163.662 288.200 163.211 287.020 C 162.731 285.766,162.898 276.012,163.414 275.178 C 164.317 273.717,165.002 276.092,165.130 281.132 M177.779 277.331 C 178.196 278.518,177.505 280.369,176.523 280.694 C 175.925 280.891,175.417 278.383,175.770 276.976 C 176.109 275.628,177.251 275.830,177.779 277.331 M202.577 281.017 C 202.923 282.861,202.539 284.000,201.573 284.000 C 200.694 284.000,200.513 282.407,201.190 280.626 C 201.733 279.197,202.263 279.346,202.577 281.017 " stroke="none" fill="#92bb5a" fill-rule="evenodd"></path><path id="path3" d="M189.008 112.046 C 156.930 116.717,132.400 145.683,132.400 178.890 C 132.400 186.517,133.036 187.507,136.974 186.010 L 138.000 185.620 138.003 180.510 C 138.017 158.582,147.925 139.456,165.400 127.620 C 168.056 125.822,177.096 121.200,177.958 121.200 C 178.333 121.200,178.811 121.031,179.020 120.825 C 179.229 120.619,181.110 119.982,183.200 119.409 C 200.406 114.695,219.240 117.531,233.597 126.998 C 251.524 138.819,261.178 156.383,261.950 178.583 L 262.200 185.766 263.200 186.043 C 264.930 186.523,266.320 186.422,266.971 185.771 C 268.251 184.491,267.615 169.335,266.024 163.200 C 259.101 136.510,238.478 117.114,211.800 112.204 C 208.221 111.545,193.164 111.441,189.008 112.046 M209.554 112.425 C 213.692 113.089,216.528 113.656,217.400 113.994 C 217.840 114.165,219.550 114.723,221.200 115.234 C 248.054 123.555,267.733 151.048,267.128 179.400 L 267.000 185.400 264.800 185.400 L 262.600 185.400 262.336 178.000 C 262.067 170.450,261.632 166.494,260.795 164.000 C 260.537 163.230,260.180 161.970,260.003 161.200 C 256.346 145.350,239.237 126.541,223.456 121.023 C 222.545 120.704,220.736 120.062,219.435 119.596 C 202.959 113.686,180.696 116.679,165.428 126.854 C 157.177 132.354,146.964 143.791,144.403 150.400 C 144.104 151.170,143.532 152.278,143.130 152.862 C 142.729 153.446,142.400 154.175,142.400 154.482 C 142.400 154.789,142.257 155.211,142.082 155.420 C 141.907 155.629,141.535 156.520,141.255 157.400 C 140.976 158.280,140.590 159.360,140.397 159.800 C 140.039 160.619,138.990 165.025,138.302 168.600 C 138.090 169.700,137.801 173.930,137.658 178.000 L 137.400 185.400 135.200 185.400 L 133.000 185.400 133.018 178.600 C 133.105 145.811,155.916 118.823,188.800 112.600 C 192.081 111.979,206.042 111.861,209.554 112.425 M196.826 125.100 C 190.672 131.297,189.166 139.980,192.877 147.874 C 193.888 150.026,197.040 153.600,197.926 153.600 C 198.397 153.600,198.303 153.411,197.589 152.918 C 193.426 150.049,190.505 142.106,191.558 136.516 C 192.043 133.946,192.344 133.058,193.822 129.849 C 194.521 128.332,199.048 123.600,199.800 123.600 C 201.328 123.600,205.834 128.858,206.827 131.800 C 207.124 132.680,207.532 133.626,207.734 133.902 C 209.230 135.946,207.921 145.083,205.591 148.875 C 201.919 154.847,201.614 154.482,200.836 143.200 C 200.114 132.717,199.257 134.959,198.619 149.000 L 198.437 153.000 198.988 149.800 C 199.292 148.040,199.565 145.520,199.595 144.200 C 199.667 141.099,200.191 142.303,200.553 146.400 C 201.245 154.234,201.534 154.859,203.466 152.700 C 210.487 144.857,210.817 134.572,204.304 126.604 C 200.967 122.520,199.651 122.256,196.826 125.100 M172.600 147.764 C 167.171 149.112,165.365 150.852,166.049 154.076 C 167.806 162.358,174.613 167.934,183.800 168.618 C 188.913 168.998,191.232 169.491,192.205 170.405 C 192.671 170.842,193.175 171.200,193.326 171.200 C 193.833 171.200,193.606 167.988,192.995 166.526 C 192.019 164.191,192.621 164.544,193.775 166.983 C 195.678 171.006,197.887 184.143,196.925 185.718 C 196.507 186.402,197.765 187.200,199.262 187.200 C 201.165 187.200,201.074 187.450,201.592 180.800 C 202.163 173.475,205.462 162.129,206.670 163.337 C 206.922 163.589,206.035 166.062,205.571 166.400 C 205.420 166.510,205.171 167.526,205.017 168.657 C 204.707 170.935,205.187 171.682,206.325 170.691 C 207.690 169.502,208.828 169.203,213.662 168.766 C 223.955 167.835,230.244 162.945,232.542 154.086 C 233.227 151.444,232.855 150.671,230.329 149.490 C 218.289 143.864,205.839 149.084,200.495 162.000 C 199.519 164.359,199.195 164.829,198.981 164.200 C 194.831 152.021,183.612 145.031,172.600 147.764 M183.637 148.749 C 191.011 151.301,196.878 157.966,198.582 165.728 C 198.894 167.152,199.755 166.924,199.935 165.369 C 200.692 158.824,208.033 150.916,215.628 148.461 C 217.461 147.869,224.113 147.864,225.972 148.452 C 232.877 150.640,233.315 151.501,230.579 157.493 C 227.400 164.456,222.350 167.494,212.581 168.321 C 209.830 168.554,207.656 168.957,206.822 169.389 L 205.482 170.082 205.718 168.628 C 206.319 164.922,209.464 160.492,213.428 157.764 C 215.992 156.000,215.511 155.388,212.770 156.927 C 205.083 161.246,200.800 170.634,200.800 183.170 L 200.800 186.448 199.300 186.324 L 197.800 186.200 197.715 184.200 C 197.147 170.756,193.388 161.565,186.905 157.766 C 185.590 156.995,183.773 156.597,184.833 157.312 C 188.653 159.888,192.293 165.090,193.032 169.028 L 193.305 170.488 192.278 169.814 C 190.730 168.800,187.314 168.011,184.400 167.995 C 175.312 167.944,166.442 160.329,166.406 152.546 C 166.389 149.021,177.409 146.593,183.637 148.749 M194.833 187.744 C 194.925 187.823,195.540 188.008,196.200 188.156 C 197.076 188.352,197.238 188.315,196.800 188.018 C 196.260 187.653,194.432 187.398,194.833 187.744 M140.305 188.683 C 140.802 188.779,141.522 188.775,141.905 188.675 C 142.287 188.575,141.880 188.496,141.000 188.501 C 140.120 188.505,139.807 188.587,140.305 188.683 M199.712 188.695 C 200.764 188.777,202.384 188.776,203.312 188.692 C 204.240 188.608,203.380 188.541,201.400 188.542 C 199.420 188.543,198.660 188.612,199.712 188.695 M205.583 200.900 C 206.564 201.945,207.419 202.800,207.483 202.800 C 207.784 202.800,207.466 202.441,205.700 200.783 L 203.800 199.000 205.583 200.900 M176.300 201.082 C 176.795 201.178,177.605 201.178,178.100 201.082 C 178.595 200.987,178.190 200.909,177.200 200.909 C 176.210 200.909,175.805 200.987,176.300 201.082 M175.505 203.083 C 176.002 203.179,176.722 203.175,177.105 203.075 C 177.487 202.975,177.080 202.896,176.200 202.901 C 175.320 202.905,175.007 202.987,175.505 203.083 M195.276 203.875 C 196.467 204.013,196.785 204.235,196.924 205.028 C 197.076 205.886,197.091 205.871,197.049 204.905 C 197.004 203.899,196.856 203.796,195.400 203.752 L 193.800 203.705 195.276 203.875 M160.182 206.151 C 160.935 206.798,161.562 207.023,162.144 206.854 C 162.925 206.627,162.907 206.594,161.929 206.479 C 161.340 206.409,160.643 206.093,160.380 205.776 C 160.117 205.459,159.716 205.200,159.489 205.200 C 159.262 205.200,159.574 205.628,160.182 206.151 M188.500 205.476 C 188.885 205.576,189.515 205.576,189.900 205.476 C 190.285 205.375,189.970 205.293,189.200 205.293 C 188.430 205.293,188.115 205.375,188.500 205.476 M201.700 206.276 C 202.085 206.376,202.715 206.376,203.100 206.276 C 203.485 206.175,203.170 206.093,202.400 206.093 C 201.630 206.093,201.315 206.175,201.700 206.276 M237.105 206.683 C 237.602 206.779,238.322 206.775,238.705 206.675 C 239.087 206.575,238.680 206.496,237.800 206.501 C 236.920 206.505,236.607 206.587,237.105 206.683 M163.700 207.887 C 164.305 207.978,165.295 207.978,165.900 207.887 C 166.505 207.795,166.010 207.720,164.800 207.720 C 163.590 207.720,163.095 207.795,163.700 207.887 M236.105 208.687 C 236.714 208.779,237.614 208.777,238.105 208.682 C 238.597 208.587,238.100 208.511,237.000 208.514 C 235.900 208.517,235.497 208.595,236.105 208.687 M204.800 224.733 C 204.800 225.870,204.958 226.800,205.151 226.800 C 205.471 226.800,205.287 223.220,204.947 222.833 C 204.866 222.742,204.800 223.597,204.800 224.733 M150.800 226.125 C 150.800 226.194,151.385 226.779,152.100 227.425 L 153.400 228.600 152.225 227.300 C 151.130 226.088,150.800 225.816,150.800 226.125 M245.178 229.900 L 243.800 231.400 245.300 230.022 C 246.696 228.738,246.984 228.400,246.678 228.400 C 246.612 228.400,245.937 229.075,245.178 229.900 M207.505 246.683 C 208.002 246.779,208.722 246.775,209.105 246.675 C 209.487 246.575,209.080 246.496,208.200 246.501 C 207.320 246.505,207.007 246.587,207.505 246.683 M199.100 247.082 C 199.595 247.178,200.405 247.178,200.900 247.082 C 201.395 246.987,200.990 246.909,200.000 246.909 C 199.010 246.909,198.605 246.987,199.100 247.082 M162.795 273.243 C 161.060 273.865,160.663 275.034,160.476 280.079 C 160.188 287.854,160.916 290.000,163.842 290.000 C 166.976 290.000,167.596 288.613,167.596 281.600 C 167.596 274.137,166.350 271.969,162.795 273.243 M224.900 273.311 C 223.567 273.920,223.473 289.379,224.800 289.800 C 227.117 290.535,227.200 290.251,227.200 281.587 C 227.200 272.892,227.044 272.331,224.900 273.311 M234.735 273.253 C 232.120 274.211,231.212 286.460,233.570 288.968 C 235.816 291.358,238.865 290.113,239.371 286.600 L 239.602 285.000 239.100 286.557 C 238.105 289.646,235.333 290.448,233.754 288.105 C 232.579 286.361,232.643 276.539,233.840 274.929 C 235.499 272.697,239.200 274.152,239.200 277.036 C 239.200 277.639,239.312 278.022,239.448 277.885 C 239.945 277.389,239.122 274.686,238.192 273.755 C 237.173 272.737,236.437 272.630,234.735 273.253 M173.467 273.467 C 173.320 273.613,173.200 277.300,173.200 281.659 L 173.200 289.585 174.205 289.837 C 175.479 290.157,176.394 289.419,176.419 288.051 C 176.438 287.045,176.468 287.060,177.123 288.400 C 178.606 291.434,180.958 289.165,179.624 285.986 C 179.280 285.165,179.226 285.368,179.305 287.200 C 179.390 289.159,179.313 289.400,178.607 289.400 C 177.801 289.400,177.663 289.010,176.945 284.700 C 176.807 283.875,176.547 283.200,176.365 283.200 C 175.932 283.200,175.446 285.828,175.780 286.367 C 176.372 287.325,175.540 289.648,174.651 289.521 C 173.816 289.402,173.800 289.252,173.800 281.600 L 173.800 273.800 175.075 273.677 C 178.685 273.327,180.856 277.382,178.982 280.975 C 178.571 281.764,178.466 282.553,178.662 283.375 C 178.953 284.589,178.958 284.584,179.289 282.800 C 180.413 276.735,180.057 274.377,177.903 273.626 C 176.540 273.151,173.878 273.055,173.467 273.467 M186.690 273.901 C 185.598 275.107,185.200 276.744,185.200 280.026 C 185.200 284.450,185.778 284.013,185.898 279.499 C 185.974 276.633,186.163 275.575,186.738 274.800 C 188.516 272.401,191.697 273.979,191.765 277.295 C 191.815 279.743,189.920 279.910,189.600 277.487 C 189.490 276.654,189.265 275.979,189.100 275.987 C 188.935 275.994,188.615 276.000,188.389 276.000 C 188.122 276.000,188.017 277.993,188.089 281.700 C 188.182 286.451,188.300 287.400,188.800 287.400 C 189.560 287.400,189.862 284.198,189.180 283.376 C 188.373 282.404,189.046 281.535,190.497 281.674 L 191.800 281.800 191.800 285.561 L 191.800 289.323 189.503 289.447 C 186.918 289.586,186.045 288.717,185.960 285.920 C 185.923 284.685,185.900 284.664,185.610 285.600 C 184.751 288.367,186.137 290.019,189.257 289.948 C 192.299 289.880,192.454 289.635,192.316 285.140 L 192.200 281.400 190.300 281.278 C 188.267 281.148,188.205 281.052,188.676 278.750 C 188.938 277.470,188.964 277.452,189.192 278.400 C 189.553 279.907,191.865 280.076,192.230 278.622 C 193.192 274.792,189.065 271.276,186.690 273.901 M200.184 273.627 C 200.039 273.861,200.028 274.161,200.160 274.293 C 200.292 274.425,200.400 274.323,200.400 274.067 C 200.400 273.437,202.787 273.468,202.971 274.100 C 203.175 274.799,203.902 279.405,204.623 284.563 C 205.247 289.022,205.096 289.952,203.827 289.466 C 203.419 289.309,203.200 288.724,203.200 287.788 C 203.200 286.318,200.294 285.662,200.150 287.100 C 200.123 287.375,200.078 287.966,200.050 288.413 C 199.992 289.349,198.857 289.940,198.434 289.254 C 198.154 288.802,198.325 287.064,199.207 281.400 C 199.884 277.048,200.088 274.203,199.595 276.000 C 198.931 278.418,197.514 288.799,197.760 289.441 C 198.219 290.635,200.083 289.952,200.602 288.400 C 201.232 286.518,202.240 286.356,202.614 288.078 C 202.934 289.556,203.394 289.985,204.667 289.994 C 205.781 290.002,205.929 289.489,205.524 287.018 C 205.342 285.908,204.935 283.079,204.620 280.731 C 203.707 273.921,203.437 273.200,201.808 273.200 C 201.060 273.200,200.329 273.392,200.184 273.627 M211.085 273.448 C 210.612 273.921,210.743 289.518,211.223 289.814 C 212.381 290.530,213.600 289.608,213.600 288.016 C 213.600 285.766,214.307 285.643,214.883 287.793 C 215.414 289.782,216.661 290.545,217.814 289.589 C 218.779 288.787,218.493 274.071,217.500 273.445 C 216.689 272.934,215.431 273.521,215.363 274.442 C 215.340 274.749,215.286 275.630,215.242 276.400 L 215.163 277.800 214.259 275.600 C 213.382 273.463,212.004 272.529,211.085 273.448 M165.978 274.378 C 167.693 276.093,167.733 286.759,166.030 288.569 C 162.397 292.432,160.501 287.852,161.140 276.754 C 161.292 274.112,164.256 272.656,165.978 274.378 M213.120 274.080 C 213.384 274.344,213.595 274.839,213.589 275.180 C 213.573 276.124,215.360 281.596,215.686 281.598 C 215.843 281.599,216.023 279.847,216.086 277.705 C 216.184 274.367,216.300 273.790,216.900 273.675 C 217.548 273.551,217.600 274.139,217.600 281.571 C 217.600 291.315,216.543 292.640,214.798 285.081 C 213.883 281.114,213.073 281.435,213.030 285.784 C 213.001 288.708,212.518 289.967,211.635 289.422 C 211.156 289.126,210.996 274.337,211.467 273.867 C 211.876 273.457,212.589 273.549,213.120 274.080 M226.448 273.700 C 227.548 276.003,226.439 290.166,225.218 289.411 C 224.755 289.125,224.611 274.322,225.067 273.867 C 225.321 273.613,226.347 273.489,226.448 273.700 M163.439 275.894 C 162.686 276.647,163.209 287.200,164.000 287.200 C 164.762 287.200,164.800 286.933,164.800 281.643 C 164.800 276.275,164.467 274.867,163.439 275.894 M235.700 275.879 C 234.761 276.231,235.010 287.200,235.957 287.200 C 236.719 287.200,237.200 286.468,237.200 285.311 C 237.200 284.969,237.515 284.436,237.900 284.128 C 238.557 283.602,238.552 283.575,237.810 283.688 C 237.376 283.753,236.814 284.221,236.562 284.727 C 236.174 285.504,236.064 285.545,235.852 284.990 C 235.457 283.962,235.569 278.667,236.000 278.000 C 236.334 277.484,236.389 277.495,236.394 278.080 C 236.401 278.927,237.470 279.559,238.457 279.301 C 239.576 279.008,239.350 278.482,238.200 278.702 C 237.356 278.864,237.200 278.742,237.200 277.923 C 237.200 276.740,236.381 275.624,235.700 275.879 M175.911 276.500 C 175.689 277.135,175.892 280.426,176.171 280.704 C 176.689 281.223,177.600 279.774,177.600 278.431 C 177.600 276.565,176.377 275.167,175.911 276.500 M164.400 281.824 C 164.400 284.804,164.258 286.359,164.000 286.200 C 163.773 286.060,163.600 284.063,163.600 281.576 C 163.600 278.925,163.758 277.200,164.000 277.200 C 164.244 277.200,164.400 279.008,164.400 281.824 M177.200 278.176 C 177.200 278.493,177.020 278.864,176.800 279.000 C 176.580 279.136,176.400 278.877,176.400 278.424 C 176.400 277.971,176.580 277.600,176.800 277.600 C 177.020 277.600,177.200 277.859,177.200 278.176 M201.239 280.860 C 200.541 282.861,200.672 284.000,201.600 284.000 C 202.292 284.000,202.400 283.733,202.400 282.024 C 202.400 279.666,201.848 279.113,201.239 280.860 " stroke="none" fill="#cbe2ab" fill-rule="evenodd"></path><path id="path4" d="M192.105 112.287 C 192.714 112.379,193.614 112.377,194.105 112.282 C 194.597 112.187,194.100 112.111,193.000 112.114 C 191.900 112.117,191.497 112.195,192.105 112.287 M205.305 112.287 C 205.914 112.379,206.814 112.377,207.305 112.282 C 207.797 112.187,207.300 112.111,206.200 112.114 C 205.100 112.117,204.697 112.195,205.305 112.287 M186.900 113.076 C 187.285 113.176,187.915 113.176,188.300 113.076 C 188.685 112.975,188.370 112.893,187.600 112.893 C 186.830 112.893,186.515 112.975,186.900 113.076 M212.800 113.200 C 214.168 113.638,215.219 113.638,214.200 113.200 C 213.760 113.011,213.040 112.862,212.600 112.868 C 211.957 112.877,211.996 112.943,212.800 113.200 M216.200 113.889 C 216.640 113.998,217.180 114.221,217.400 114.387 C 217.620 114.552,218.430 114.803,219.200 114.943 C 220.185 115.123,220.422 115.082,220.000 114.806 C 219.670 114.589,219.006 114.409,218.524 114.406 C 218.042 114.403,217.536 114.220,217.400 114.000 C 217.264 113.780,216.758 113.621,216.276 113.646 C 215.464 113.689,215.459 113.707,216.200 113.889 M224.400 116.600 C 224.950 116.914,225.580 117.172,225.800 117.172 C 226.020 117.172,225.750 116.914,225.200 116.600 C 224.650 116.286,224.020 116.028,223.800 116.028 C 223.580 116.028,223.850 116.286,224.400 116.600 M194.100 116.691 C 194.925 116.778,196.275 116.778,197.100 116.691 C 197.925 116.605,197.250 116.534,195.600 116.534 C 193.950 116.534,193.275 116.605,194.100 116.691 M202.900 116.691 C 203.725 116.778,205.075 116.778,205.900 116.691 C 206.725 116.605,206.050 116.534,204.400 116.534 C 202.750 116.534,202.075 116.605,202.900 116.691 M188.305 117.483 C 188.802 117.579,189.522 117.575,189.905 117.475 C 190.287 117.375,189.880 117.296,189.000 117.301 C 188.120 117.305,187.807 117.387,188.305 117.483 M230.200 119.324 C 231.920 120.307,233.200 120.864,233.200 120.629 C 233.200 120.427,229.286 118.399,228.907 118.405 C 228.738 118.407,229.320 118.821,230.200 119.324 M167.928 119.812 C 166.898 120.349,165.953 120.953,165.828 121.155 C 165.703 121.357,166.590 120.987,167.800 120.331 C 169.010 119.676,170.000 119.063,170.000 118.970 C 170.000 118.732,170.010 118.728,167.928 119.812 M234.800 121.779 C 234.800 121.889,235.340 122.259,236.000 122.600 C 236.660 122.941,237.200 123.131,237.200 123.021 C 237.200 122.911,236.660 122.541,236.000 122.200 C 235.340 121.859,234.800 121.669,234.800 121.779 M161.800 123.653 C 159.536 125.348,159.160 125.810,160.844 124.829 C 162.062 124.119,164.075 122.341,163.562 122.427 C 163.473 122.442,162.680 122.994,161.800 123.653 M202.783 126.100 C 203.764 127.145,204.619 128.000,204.683 128.000 C 204.984 128.000,204.666 127.641,202.900 125.983 L 201.000 124.200 202.783 126.100 M196.400 126.473 C 194.438 128.647,193.619 129.737,193.609 130.189 C 193.604 130.403,193.897 130.133,194.259 129.589 C 194.622 129.045,195.645 127.839,196.534 126.908 C 197.423 125.978,198.071 125.150,197.975 125.069 C 197.879 124.988,197.170 125.620,196.400 126.473 M236.800 128.118 C 236.800 128.220,237.647 128.997,238.681 129.845 C 239.716 130.693,240.434 131.178,240.276 130.923 C 239.940 130.379,236.800 127.845,236.800 128.118 M205.160 129.000 C 205.834 130.305,206.388 131.028,206.385 130.600 C 206.383 130.380,206.014 129.750,205.564 129.200 C 205.021 128.536,204.885 128.469,205.160 129.000 M158.200 132.233 L 155.800 134.465 158.300 132.373 C 160.523 130.512,161.043 129.998,160.700 130.001 C 160.645 130.001,159.520 131.006,158.200 132.233 M246.400 130.537 C 246.400 130.659,246.850 131.244,247.400 131.838 C 247.950 132.431,248.397 132.756,248.393 132.558 C 248.386 132.176,246.400 130.163,246.400 130.537 M152.600 131.533 C 151.517 132.490,149.816 134.400,150.047 134.400 C 150.150 134.400,151.028 133.590,152.000 132.600 C 153.770 130.797,154.102 130.207,152.600 131.533 M240.800 131.310 C 240.800 131.371,242.195 132.766,243.900 134.410 L 247.000 137.400 244.010 134.300 C 241.233 131.421,240.800 131.017,240.800 131.310 M207.552 134.887 C 207.737 135.998,207.793 136.055,207.919 135.254 C 208.001 134.733,207.903 134.143,207.701 133.941 C 207.479 133.719,207.421 134.093,207.552 134.887 M155.000 135.106 C 154.780 135.268,154.243 135.850,153.806 136.400 C 153.143 137.235,153.226 137.206,154.306 136.225 C 155.474 135.164,155.791 134.788,155.500 134.806 C 155.445 134.809,155.220 134.944,155.000 135.106 M191.450 136.850 C 191.146 138.368,191.187 140.672,191.540 141.924 C 191.683 142.432,191.800 141.217,191.800 139.224 C 191.800 135.150,191.796 135.121,191.450 136.850 M208.114 139.400 C 208.117 140.500,208.195 140.903,208.287 140.295 C 208.379 139.686,208.377 138.786,208.282 138.295 C 208.187 137.803,208.111 138.300,208.114 139.400 M145.175 140.100 C 143.732 141.931,143.303 142.840,144.561 141.400 C 145.578 140.238,146.547 138.800,146.314 138.800 C 146.251 138.800,145.739 139.385,145.175 140.100 M200.823 143.433 C 200.836 144.955,200.993 146.920,201.172 147.800 C 201.379 148.818,201.423 147.871,201.293 145.200 C 201.059 140.373,200.789 139.359,200.823 143.433 M198.893 142.400 C 198.893 143.170,198.975 143.485,199.076 143.100 C 199.176 142.715,199.176 142.085,199.076 141.700 C 198.975 141.315,198.893 141.630,198.893 142.400 M207.646 142.867 C 207.621 143.234,207.496 143.864,207.370 144.267 C 207.152 144.962,207.163 144.963,207.597 144.287 C 207.848 143.896,207.973 143.266,207.873 142.887 C 207.711 142.268,207.688 142.266,207.646 142.867 M222.833 148.143 C 222.925 148.222,223.720 148.397,224.600 148.532 C 225.690 148.699,226.009 148.655,225.600 148.395 C 225.053 148.046,222.445 147.809,222.833 148.143 M171.000 149.014 C 170.000 149.496,169.966 149.551,170.800 149.348 C 171.933 149.071,173.207 148.421,172.600 148.430 C 172.380 148.433,171.660 148.696,171.000 149.014 M183.633 148.958 C 183.973 149.280,186.800 150.352,186.800 150.159 C 186.800 150.049,186.176 149.698,185.413 149.380 C 184.069 148.818,183.291 148.634,183.633 148.958 M204.463 150.000 C 203.975 150.660,203.723 151.200,203.902 151.200 C 204.081 151.200,204.546 150.660,204.936 150.000 C 205.326 149.340,205.579 148.800,205.498 148.800 C 205.417 148.800,204.951 149.340,204.463 150.000 M167.700 150.446 C 166.842 150.996,166.419 151.571,166.454 152.139 C 166.508 152.983,166.512 152.984,166.673 152.168 C 166.764 151.710,167.504 150.949,168.319 150.477 C 169.134 150.005,169.620 149.617,169.400 149.616 C 169.180 149.615,168.415 149.988,167.700 150.446 M195.604 150.989 C 197.722 153.515,198.423 153.748,198.346 151.900 C 198.306 150.960,198.243 150.849,198.118 151.500 C 197.891 152.679,197.702 152.643,196.023 151.100 C 194.653 149.842,194.640 149.838,195.604 150.989 M231.248 151.000 C 231.604 151.440,231.995 152.070,232.116 152.400 C 232.303 152.909,232.342 152.904,232.368 152.362 C 232.386 152.011,231.995 151.381,231.500 150.962 C 230.608 150.206,230.606 150.207,231.248 151.000 M188.800 151.325 C 188.800 151.424,189.461 152.009,190.268 152.625 C 191.076 153.241,191.611 153.541,191.456 153.291 C 191.140 152.779,188.800 151.047,188.800 151.325 M261.228 151.800 C 261.228 152.020,261.486 152.650,261.800 153.200 C 262.114 153.750,262.372 154.020,262.372 153.800 C 262.372 153.580,262.114 152.950,261.800 152.400 C 261.486 151.850,261.228 151.580,261.228 151.800 M167.200 156.153 C 167.200 156.582,168.390 158.800,168.621 158.800 C 168.731 158.800,168.523 158.215,168.159 157.500 C 167.417 156.040,167.200 155.736,167.200 156.153 M202.600 158.800 C 202.259 159.460,202.069 160.000,202.179 160.000 C 202.289 160.000,202.659 159.460,203.000 158.800 C 203.341 158.140,203.531 157.600,203.421 157.600 C 203.311 157.600,202.941 158.140,202.600 158.800 M208.575 159.700 L 207.400 161.000 208.700 159.825 C 209.415 159.179,210.000 158.594,210.000 158.525 C 210.000 158.216,209.670 158.488,208.575 159.700 M228.595 160.407 C 227.490 162.002,225.508 163.946,223.596 165.312 L 222.600 166.023 223.589 165.550 C 224.944 164.901,228.440 161.537,229.323 160.032 C 230.350 158.281,229.912 158.506,228.595 160.407 M209.775 160.900 L 208.600 162.200 209.900 161.025 C 210.615 160.379,211.200 159.794,211.200 159.725 C 211.200 159.416,210.870 159.688,209.775 160.900 M170.400 161.725 C 170.400 161.794,170.985 162.379,171.700 163.025 L 173.000 164.200 171.825 162.900 C 170.730 161.688,170.400 161.416,170.400 161.725 M133.829 166.229 C 133.681 166.815,133.638 167.372,133.732 167.466 C 133.827 167.560,134.024 167.158,134.171 166.571 C 134.319 165.985,134.362 165.428,134.268 165.334 C 134.173 165.240,133.976 165.642,133.829 166.229 M138.245 166.853 C 137.826 168.893,137.576 171.357,137.811 171.122 C 138.093 170.841,138.778 166.278,138.573 166.053 C 138.499 165.972,138.352 166.332,138.245 166.853 M198.406 166.251 C 198.395 167.096,199.479 167.693,199.749 166.989 C 199.902 166.590,199.829 166.458,199.551 166.630 C 199.309 166.780,198.953 166.654,198.761 166.351 C 198.560 166.033,198.410 165.990,198.406 166.251 M177.600 166.733 C 177.930 166.936,178.650 167.224,179.200 167.371 C 179.895 167.557,180.017 167.525,179.600 167.267 C 179.270 167.064,178.550 166.776,178.000 166.629 C 177.305 166.443,177.183 166.475,177.600 166.733 M192.440 167.935 C 192.403 168.803,192.278 168.853,190.700 168.626 L 189.000 168.381 190.504 168.945 C 191.331 169.255,192.276 169.731,192.604 170.003 C 193.289 170.572,193.368 169.773,192.800 168.000 C 192.480 167.001,192.480 167.001,192.440 167.935 M261.701 168.600 C 261.705 169.480,261.787 169.793,261.883 169.295 C 261.979 168.798,261.975 168.078,261.875 167.695 C 261.775 167.313,261.696 167.720,261.701 168.600 M181.700 167.876 C 182.085 167.976,182.715 167.976,183.100 167.876 C 183.485 167.775,183.170 167.693,182.400 167.693 C 181.630 167.693,181.315 167.775,181.700 167.876 M210.900 168.276 C 211.285 168.376,211.915 168.376,212.300 168.276 C 212.685 168.175,212.370 168.093,211.600 168.093 C 210.830 168.093,210.515 168.175,210.900 168.276 M266.920 173.600 C 266.920 174.810,266.995 175.305,267.087 174.700 C 267.178 174.095,267.178 173.105,267.087 172.500 C 266.995 171.895,266.920 172.390,266.920 173.600 M132.931 174.600 C 132.933 176.140,133.005 176.721,133.092 175.891 C 133.179 175.061,133.177 173.801,133.089 173.091 C 133.000 172.381,132.929 173.060,132.931 174.600 M137.286 179.867 C 137.225 183.638,137.058 185.191,136.700 185.335 C 136.308 185.493,136.311 185.544,136.713 185.568 C 137.532 185.619,137.633 184.850,137.499 179.578 L 137.373 174.600 137.286 179.867 M262.581 180.499 L 262.600 185.400 263.800 185.437 C 264.907 185.472,264.916 185.462,263.912 185.313 L 262.824 185.151 262.693 180.375 L 262.561 175.599 262.581 180.499 M266.893 180.000 C 266.893 180.770,266.975 181.085,267.076 180.700 C 267.176 180.315,267.176 179.685,267.076 179.300 C 266.975 178.915,266.893 179.230,266.893 180.000 M166.809 180.356 C 166.265 180.507,167.885 180.639,170.409 180.649 C 173.894 180.662,174.518 180.594,173.000 180.368 C 170.519 179.998,168.109 179.994,166.809 180.356 M230.000 180.383 C 228.773 180.563,229.601 180.650,232.600 180.656 C 235.890 180.664,236.546 180.590,235.200 180.363 C 233.141 180.016,232.498 180.018,230.000 180.383 M162.600 181.200 C 162.096 181.417,162.022 181.544,162.400 181.544 C 162.730 181.544,163.360 181.389,163.800 181.200 C 164.304 180.983,164.378 180.856,164.000 180.856 C 163.670 180.856,163.040 181.011,162.600 181.200 M176.000 181.200 C 176.330 181.413,176.960 181.578,177.400 181.566 L 178.200 181.544 177.400 181.200 C 176.204 180.686,175.205 180.686,176.000 181.200 M225.800 181.200 L 225.000 181.544 225.800 181.566 C 226.240 181.578,226.870 181.413,227.200 181.200 C 227.995 180.686,226.996 180.686,225.800 181.200 M238.000 181.200 C 238.330 181.413,238.960 181.578,239.400 181.566 L 240.200 181.544 239.400 181.200 C 238.204 180.686,237.205 180.686,238.000 181.200 M159.800 182.000 L 159.000 182.344 159.800 182.366 C 160.240 182.378,160.870 182.213,161.200 182.000 C 161.995 181.486,160.996 181.486,159.800 182.000 M242.358 182.408 C 243.325 182.853,244.205 183.128,244.314 183.020 C 244.521 182.812,243.286 182.281,241.600 181.853 C 241.050 181.713,241.391 181.963,242.358 182.408 M200.337 184.201 C 200.262 185.411,200.335 186.401,200.500 186.401 C 200.665 186.400,200.800 185.410,200.800 184.200 C 200.800 181.361,200.514 181.361,200.337 184.201 M183.358 183.532 C 183.517 183.789,183.819 184.000,184.028 184.000 C 184.237 184.000,185.224 184.383,186.220 184.851 C 187.216 185.319,188.118 185.615,188.225 185.509 C 188.387 185.346,187.047 184.700,183.634 183.297 C 183.271 183.147,183.172 183.232,183.358 183.532 M246.358 184.037 C 247.325 184.466,248.188 184.745,248.275 184.658 C 248.448 184.486,245.365 183.182,244.892 183.228 C 244.731 183.244,245.391 183.608,246.358 184.037 M151.800 185.215 C 150.480 185.845,149.603 186.369,149.852 186.380 C 150.373 186.403,154.800 184.426,154.800 184.171 C 154.800 183.858,154.218 184.060,151.800 185.215 M266.800 184.504 C 266.800 184.855,266.485 185.224,266.100 185.324 C 265.444 185.496,265.445 185.510,266.113 185.554 C 266.836 185.601,267.506 184.573,267.049 184.116 C 266.912 183.979,266.800 184.153,266.800 184.504 M197.728 185.395 C 197.775 185.862,198.138 186.225,198.605 186.272 C 199.181 186.332,199.214 186.299,198.725 186.152 C 198.353 186.042,197.958 185.647,197.848 185.275 C 197.701 184.786,197.668 184.819,197.728 185.395 M208.400 187.600 C 207.867 187.945,207.867 187.988,208.400 187.988 C 208.730 187.988,209.270 187.813,209.600 187.600 C 210.133 187.255,210.133 187.212,209.600 187.212 C 209.270 187.212,208.730 187.387,208.400 187.600 M143.000 188.400 L 142.200 188.744 143.000 188.766 C 143.440 188.778,144.070 188.613,144.400 188.400 C 145.195 187.886,144.196 187.886,143.000 188.400 M195.800 188.400 C 196.240 188.589,196.960 188.738,197.400 188.732 C 198.043 188.723,198.004 188.657,197.200 188.400 C 195.832 187.962,194.781 187.962,195.800 188.400 M205.400 188.400 L 204.600 188.744 205.400 188.744 C 205.840 188.744,206.560 188.589,207.000 188.400 L 207.800 188.056 207.000 188.056 C 206.560 188.056,205.840 188.211,205.400 188.400 M257.200 188.400 C 257.530 188.613,258.160 188.778,258.600 188.766 L 259.400 188.744 258.600 188.400 C 257.404 187.886,256.405 187.886,257.200 188.400 M133.443 189.433 C 133.309 189.781,133.213 190.276,133.228 190.533 C 133.244 190.790,133.396 190.640,133.567 190.200 C 133.838 189.503,134.362 189.371,137.639 189.177 L 141.400 188.953 137.543 188.877 C 134.347 188.813,133.644 188.909,133.443 189.433 M200.500 189.087 C 201.105 189.178,202.095 189.178,202.700 189.087 C 203.305 188.995,202.810 188.920,201.600 188.920 C 200.390 188.920,199.895 188.995,200.500 189.087 M262.983 189.099 C 266.255 189.265,266.706 189.544,266.538 191.292 L 266.412 192.600 266.830 191.251 C 267.527 189.005,267.227 188.790,263.513 188.878 L 260.200 188.957 262.983 189.099 M133.656 192.600 C 133.656 193.040,133.811 193.760,134.000 194.200 L 134.344 195.000 134.344 194.200 C 134.344 193.760,134.189 193.040,134.000 192.600 L 133.656 191.800 133.656 192.600 M265.800 194.400 C 265.648 195.091,265.614 195.747,265.724 195.857 C 265.834 195.967,266.048 195.491,266.200 194.800 C 266.352 194.109,266.386 193.453,266.276 193.343 C 266.166 193.233,265.952 193.709,265.800 194.400 M196.803 193.900 C 196.805 194.065,197.802 194.229,199.019 194.264 C 200.237 194.300,201.524 194.570,201.881 194.864 C 202.432 195.319,202.500 195.309,202.332 194.800 C 202.043 193.926,196.794 193.071,196.803 193.900 M196.026 195.731 C 195.468 197.201,192.913 199.552,190.867 200.480 C 189.913 200.913,189.222 201.355,189.330 201.463 C 189.617 201.750,191.973 200.459,193.717 199.057 C 195.312 197.776,197.056 195.323,196.657 194.923 C 196.528 194.795,196.244 195.158,196.026 195.731 M134.434 196.000 C 134.446 196.330,134.611 196.960,134.800 197.400 L 135.144 198.200 135.166 197.400 C 135.178 196.960,135.013 196.330,134.800 196.000 C 134.455 195.467,134.415 195.467,134.434 196.000 M202.400 195.758 C 202.400 197.971,208.720 204.090,210.884 203.972 C 211.168 203.956,210.590 203.585,209.600 203.148 C 207.306 202.133,205.880 200.795,203.946 197.838 C 203.096 196.539,202.400 195.603,202.400 195.758 M265.029 197.429 C 264.881 198.015,264.838 198.572,264.932 198.666 C 265.027 198.760,265.224 198.358,265.371 197.771 C 265.519 197.185,265.562 196.628,265.468 196.534 C 265.373 196.440,265.176 196.842,265.029 197.429 M135.219 198.629 C 135.187 199.346,136.529 203.013,136.669 202.593 C 136.741 202.377,136.448 201.300,136.018 200.200 C 135.589 199.100,135.229 198.393,135.219 198.629 M264.244 200.043 C 264.148 200.349,263.558 201.948,262.934 203.595 C 262.310 205.243,261.733 206.773,261.650 206.995 C 261.550 207.265,261.633 207.267,261.900 207.000 C 262.465 206.434,264.889 199.956,264.632 199.698 C 264.515 199.581,264.340 199.736,264.244 200.043 M172.800 201.538 C 171.157 202.367,168.000 204.431,168.000 204.677 C 168.000 204.882,168.608 204.541,170.157 203.467 C 170.793 203.025,172.323 202.249,173.557 201.742 C 174.791 201.234,175.440 200.822,175.000 200.825 C 174.560 200.829,173.570 201.150,172.800 201.538 M179.400 201.200 C 180.596 201.714,181.595 201.714,180.800 201.200 C 180.470 200.987,179.840 200.822,179.400 200.834 L 178.600 200.856 179.400 201.200 M182.476 202.060 C 183.703 202.406,186.826 202.413,187.685 202.072 C 188.062 201.922,186.836 201.800,184.961 201.800 C 183.087 201.800,181.968 201.917,182.476 202.060 M222.800 201.974 C 222.144 202.168,222.763 202.269,224.600 202.269 C 226.437 202.269,227.056 202.168,226.400 201.974 C 225.850 201.812,225.040 201.680,224.600 201.680 C 224.160 201.680,223.350 201.812,222.800 201.974 M218.878 203.095 C 217.931 203.422,217.244 203.778,217.352 203.886 C 217.564 204.097,221.600 202.845,221.600 202.568 C 221.600 202.292,220.701 202.466,218.878 203.095 M229.740 203.646 C 231.027 204.310,232.161 204.772,232.261 204.673 C 232.479 204.454,228.417 202.392,227.821 202.419 C 227.590 202.430,228.453 202.982,229.740 203.646 M173.000 203.756 C 172.340 204.044,171.260 204.733,170.600 205.288 C 169.940 205.842,168.770 206.679,168.000 207.146 C 167.230 207.614,166.780 207.997,167.000 207.996 C 167.408 207.996,168.175 207.523,171.210 205.400 C 172.153 204.740,173.572 203.994,174.363 203.742 C 175.216 203.470,175.475 203.273,175.000 203.258 C 174.560 203.243,173.660 203.467,173.000 203.756 M177.400 203.685 C 179.975 204.591,180.090 205.042,178.275 207.099 C 176.785 208.787,175.069 211.603,175.356 211.889 C 175.459 211.993,175.904 211.373,176.343 210.511 C 176.783 209.649,177.786 208.175,178.571 207.234 C 179.357 206.294,180.000 205.374,180.000 205.191 C 180.000 204.587,177.908 203.199,177.046 203.232 C 176.379 203.256,176.454 203.353,177.400 203.685 M191.800 204.822 C 190.920 205.238,190.470 205.570,190.800 205.560 C 191.609 205.534,194.761 204.059,194.000 204.062 C 193.670 204.064,192.680 204.405,191.800 204.822 M212.700 204.289 C 213.415 204.378,214.585 204.378,215.300 204.289 C 216.015 204.201,215.430 204.128,214.000 204.128 C 212.570 204.128,211.985 204.201,212.700 204.289 M243.900 204.856 C 244.175 205.133,244.400 205.500,244.400 205.672 C 244.400 206.139,240.321 208.387,239.400 208.428 C 238.936 208.448,238.819 208.551,239.120 208.672 C 240.255 209.126,244.800 206.526,244.800 205.422 C 244.800 205.127,244.485 204.766,244.100 204.619 C 243.539 204.405,243.499 204.452,243.900 204.856 M158.800 205.171 C 158.800 205.733,161.697 208.002,162.391 207.984 C 162.726 207.975,162.460 207.669,161.800 207.303 C 160.799 206.748,160.723 206.611,161.344 206.481 C 161.964 206.350,161.880 206.198,160.834 205.562 C 159.460 204.727,158.800 204.600,158.800 205.171 M166.000 205.600 C 165.230 206.022,164.744 206.374,164.920 206.383 C 165.344 206.405,167.600 205.232,167.600 204.990 C 167.600 204.728,167.577 204.737,166.000 205.600 M137.623 205.289 C 137.581 205.814,139.607 210.127,139.804 209.930 C 139.910 209.824,139.468 208.671,138.822 207.368 C 138.176 206.066,137.636 205.130,137.623 205.289 M184.000 206.009 C 183.413 206.202,184.404 206.246,186.400 206.114 C 188.270 205.991,189.875 205.825,189.967 205.745 C 190.301 205.454,184.970 205.689,184.000 206.009 M195.867 207.267 C 195.505 208.188,195.274 209.007,195.354 209.088 C 195.434 209.168,195.800 208.483,196.167 207.567 C 196.533 206.650,196.764 205.831,196.679 205.746 C 196.594 205.661,196.229 206.345,195.867 207.267 M235.517 206.072 C 236.412 206.428,239.604 206.421,240.517 206.061 C 240.911 205.905,239.794 205.783,238.034 205.789 C 236.274 205.795,235.141 205.922,235.517 206.072 M227.467 206.267 C 226.950 206.783,227.212 207.624,228.400 209.263 C 229.856 211.274,229.980 210.986,228.600 208.800 C 226.961 206.204,227.503 205.722,230.400 207.200 C 232.623 208.334,232.969 208.161,230.800 207.000 C 228.963 206.016,227.942 205.792,227.467 206.267 M181.145 207.302 C 180.564 207.796,179.359 209.301,178.466 210.646 C 176.826 213.118,174.732 215.195,173.869 215.205 C 173.611 215.208,172.995 215.319,172.500 215.452 C 171.960 215.597,171.600 215.515,171.600 215.247 C 171.600 215.001,171.867 214.800,172.194 214.800 C 172.520 214.800,173.294 214.305,173.913 213.700 C 174.532 213.095,174.669 212.905,174.216 213.279 C 173.764 213.652,172.703 214.192,171.858 214.479 C 169.881 215.150,169.803 215.767,171.676 215.923 C 174.215 216.134,176.583 214.448,178.887 210.786 C 179.653 209.568,180.861 208.083,181.571 207.486 C 182.281 206.889,182.713 206.401,182.531 206.402 C 182.349 206.403,181.725 206.808,181.145 207.302 M200.400 207.399 C 200.106 207.949,199.986 208.519,200.133 208.666 C 200.280 208.813,200.400 208.693,200.400 208.398 C 200.400 208.104,200.698 207.534,201.062 207.131 C 201.426 206.729,201.547 206.400,201.330 206.400 C 201.113 206.400,200.694 206.850,200.400 207.399 M203.400 206.800 C 203.840 206.989,204.470 207.144,204.800 207.144 C 205.178 207.144,205.104 207.017,204.600 206.800 C 204.160 206.611,203.530 206.456,203.200 206.456 C 202.822 206.456,202.896 206.583,203.400 206.800 M206.600 207.600 C 207.040 207.789,207.760 207.938,208.200 207.932 C 208.843 207.923,208.804 207.857,208.000 207.600 C 206.632 207.162,205.581 207.162,206.600 207.600 M217.000 207.600 L 216.200 207.944 217.000 207.966 C 217.440 207.978,218.070 207.813,218.400 207.600 C 219.195 207.086,218.196 207.086,217.000 207.600 M223.042 207.960 C 223.725 208.377,224.690 209.376,225.188 210.180 C 225.685 210.984,226.180 211.553,226.289 211.444 C 226.817 210.916,223.273 207.198,222.246 207.201 C 222.001 207.202,222.359 207.544,223.042 207.960 M259.455 211.331 C 258.387 213.349,257.700 214.820,257.926 214.600 C 258.502 214.042,261.725 207.992,261.544 207.810 C 261.462 207.729,260.522 209.313,259.455 211.331 M163.900 208.282 C 164.395 208.378,165.205 208.378,165.700 208.282 C 166.195 208.187,165.790 208.109,164.800 208.109 C 163.810 208.109,163.405 208.187,163.900 208.282 M210.863 208.493 C 211.762 208.719,212.995 208.718,214.063 208.488 C 215.665 208.142,215.552 208.114,212.600 208.118 C 209.849 208.123,209.605 208.175,210.863 208.493 M233.200 208.400 C 233.530 208.613,234.160 208.778,234.600 208.766 L 235.400 208.744 234.600 208.400 C 233.404 207.886,232.405 207.886,233.200 208.400 M140.000 210.528 C 140.000 210.924,144.041 217.578,144.426 217.816 C 144.741 218.011,140.695 210.962,140.218 210.485 C 140.098 210.365,140.000 210.384,140.000 210.528 M229.628 214.233 C 229.644 215.755,229.804 217.360,229.984 217.800 C 230.169 218.253,230.220 217.127,230.102 215.200 C 229.845 211.021,229.590 210.502,229.628 214.233 M200.000 212.715 C 200.000 212.932,200.623 213.985,201.385 215.055 C 205.861 221.341,206.209 222.132,205.773 225.042 C 205.414 227.431,204.800 227.266,204.800 224.780 C 204.800 222.305,204.207 221.124,201.799 218.800 C 200.773 217.810,199.581 216.316,199.149 215.481 C 198.276 213.791,197.388 213.250,196.673 213.971 C 196.308 214.338,196.348 214.391,196.848 214.201 C 197.491 213.956,198.800 214.913,198.800 215.627 C 198.800 215.830,199.963 217.264,201.385 218.813 C 203.988 221.650,204.269 222.278,204.497 225.769 C 204.715 229.097,206.400 226.974,206.400 223.372 C 206.400 221.617,206.431 221.674,201.471 214.460 C 200.662 213.283,200.000 212.497,200.000 212.715 M195.022 215.422 C 194.645 215.998,194.416 216.549,194.514 216.647 C 194.612 216.745,195.000 216.354,195.378 215.778 C 195.755 215.202,195.984 214.651,195.886 214.553 C 195.788 214.455,195.400 214.846,195.022 215.422 M227.275 215.800 C 227.265 216.460,227.411 217.360,227.600 217.800 L 227.944 218.600 227.925 217.800 C 227.914 217.360,227.768 216.460,227.600 215.800 L 227.295 214.600 227.275 215.800 M191.452 217.300 C 191.136 218.478,191.182 221.614,191.528 222.485 C 191.678 222.862,191.800 221.647,191.800 219.785 C 191.800 216.046,191.796 216.017,191.452 217.300 M194.124 219.400 C 194.126 220.720,194.201 221.212,194.290 220.493 C 194.379 219.774,194.377 218.694,194.286 218.093 C 194.195 217.492,194.122 218.080,194.124 219.400 M253.311 220.700 C 251.981 222.405,250.064 224.655,249.053 225.700 C 248.041 226.745,247.372 227.600,247.567 227.600 C 248.000 227.600,253.241 221.636,254.860 219.300 C 256.716 216.623,255.956 217.309,253.311 220.700 M145.097 218.900 C 145.314 219.175,146.323 220.503,147.338 221.851 C 149.213 224.342,157.160 232.173,157.484 231.850 C 157.650 231.683,156.599 230.664,152.494 227.013 C 151.556 226.179,149.515 223.899,147.959 221.948 C 146.402 219.997,145.033 218.400,144.916 218.400 C 144.798 218.400,144.880 218.625,145.097 218.900 M228.013 219.058 C 228.049 220.021,230.760 222.174,232.481 222.606 C 233.971 222.980,234.265 222.124,232.991 221.121 C 232.399 220.655,231.573 219.909,231.157 219.462 C 230.741 219.015,230.400 218.846,230.400 219.086 C 230.400 219.326,231.075 220.064,231.900 220.727 C 232.725 221.389,233.282 222.050,233.137 222.195 C 232.740 222.594,230.353 221.235,229.105 219.898 C 228.497 219.248,228.006 218.869,228.013 219.058 M194.412 222.400 C 194.412 222.730,194.587 223.270,194.800 223.600 C 195.145 224.133,195.188 224.133,195.188 223.600 C 195.188 223.270,195.013 222.730,194.800 222.400 C 194.455 221.867,194.412 221.867,194.412 222.400 M192.000 223.751 C 192.000 224.218,193.277 226.857,193.429 226.705 C 193.638 226.495,192.488 223.600,192.195 223.600 C 192.088 223.600,192.000 223.668,192.000 223.751 M196.120 228.800 C 196.120 230.010,196.195 230.505,196.287 229.900 C 196.378 229.295,196.378 228.305,196.287 227.700 C 196.195 227.095,196.120 227.590,196.120 228.800 M193.701 229.400 C 193.705 230.280,193.787 230.593,193.883 230.095 C 193.979 229.598,193.975 228.878,193.875 228.495 C 193.775 228.113,193.696 228.520,193.701 229.400 M244.800 229.729 C 243.810 230.674,241.965 232.224,240.700 233.172 C 237.952 235.232,237.613 235.810,240.259 233.925 C 242.449 232.364,247.353 227.998,246.908 228.005 C 246.739 228.007,245.790 228.783,244.800 229.729 M192.708 232.542 C 192.339 233.315,191.489 234.354,190.819 234.849 C 189.790 235.610,189.111 237.200,189.816 237.200 C 191.369 237.200,196.008 233.016,195.993 231.628 C 195.990 231.283,195.581 231.720,195.085 232.600 C 194.589 233.480,193.305 234.789,192.233 235.509 C 190.135 236.917,189.156 236.888,190.803 235.466 C 192.157 234.297,193.696 232.087,193.521 231.562 C 193.443 231.328,193.077 231.769,192.708 232.542 M158.000 232.160 C 158.000 232.398,161.530 235.046,163.400 236.211 C 164.982 237.196,164.617 236.803,162.400 235.133 C 159.452 232.914,158.000 231.932,158.000 232.160 M234.881 236.972 C 234.156 237.484,233.436 238.039,233.281 238.203 C 232.864 238.647,235.273 237.359,236.200 236.643 C 237.475 235.659,236.337 235.942,234.881 236.972 M165.400 237.445 C 166.570 238.352,171.651 240.883,171.867 240.667 C 171.968 240.565,171.041 240.019,169.806 239.454 C 168.570 238.889,167.046 238.060,166.418 237.613 C 165.093 236.669,164.211 236.524,165.400 237.445 M229.470 239.879 C 228.848 240.205,228.426 240.560,228.533 240.666 C 228.742 240.876,231.200 239.700,231.200 239.390 C 231.200 239.092,230.694 239.235,229.470 239.879 M224.897 241.903 C 223.521 242.467,222.462 242.996,222.545 243.078 C 222.723 243.256,226.737 241.768,227.600 241.204 C 228.608 240.546,227.529 240.825,224.897 241.903 M176.400 242.800 C 176.730 243.013,177.270 243.188,177.600 243.188 C 178.133 243.188,178.133 243.145,177.600 242.800 C 177.270 242.587,176.730 242.412,176.400 242.412 C 175.867 242.412,175.867 242.455,176.400 242.800 M220.400 243.600 C 219.867 243.945,219.867 243.988,220.400 243.988 C 220.730 243.988,221.270 243.813,221.600 243.600 C 222.133 243.255,222.133 243.212,221.600 243.212 C 221.270 243.212,220.730 243.387,220.400 243.600 M181.400 244.400 C 182.596 244.914,183.595 244.914,182.800 244.400 C 182.470 244.187,181.840 244.022,181.400 244.034 L 180.600 244.056 181.400 244.400 M217.400 244.400 C 216.381 244.838,217.432 244.838,218.800 244.400 C 219.604 244.143,219.643 244.077,219.000 244.068 C 218.560 244.062,217.840 244.211,217.400 244.400 M184.400 245.200 C 184.950 245.376,185.760 245.526,186.200 245.532 L 187.000 245.544 186.200 245.200 C 185.760 245.011,184.950 244.862,184.400 244.868 L 183.400 244.880 184.400 245.200 M214.400 245.200 C 213.605 245.714,214.604 245.714,215.800 245.200 L 216.600 244.856 215.800 244.834 C 215.360 244.822,214.730 244.987,214.400 245.200 M188.400 246.000 C 188.950 246.176,189.940 246.317,190.600 246.313 L 191.800 246.305 190.600 246.000 C 189.940 245.832,188.950 245.691,188.400 245.687 L 187.400 245.680 188.400 246.000 M209.600 246.000 L 208.600 246.320 209.600 246.313 C 210.150 246.309,211.140 246.168,211.800 246.000 L 213.000 245.695 211.800 245.687 C 211.140 245.683,210.150 245.824,209.600 246.000 M195.900 246.698 C 197.935 246.771,201.265 246.771,203.300 246.698 C 205.335 246.625,203.670 246.566,199.600 246.566 C 195.530 246.566,193.865 246.625,195.900 246.698 M162.029 274.654 C 161.573 275.234,161.200 275.999,161.201 276.354 C 161.201 276.709,161.516 276.370,161.901 275.600 C 162.442 274.516,162.916 274.144,164.000 273.953 L 165.400 273.705 164.129 273.653 C 163.194 273.614,162.639 273.879,162.029 274.654 M173.775 274.121 C 173.665 274.408,173.631 276.973,173.701 279.821 L 173.826 285.000 173.913 279.524 L 174.000 274.048 175.500 273.891 L 177.000 273.734 175.487 273.667 C 174.561 273.626,173.897 273.802,173.775 274.121 M186.829 274.654 C 186.373 275.234,186.001 275.909,186.001 276.154 C 186.002 276.399,186.371 275.996,186.821 275.258 C 187.535 274.087,187.810 273.937,188.991 274.075 C 189.735 274.162,190.256 274.090,190.148 273.916 C 189.688 273.172,187.636 273.627,186.829 274.654 M200.251 274.211 C 200.113 274.571,200.021 275.256,200.047 275.733 C 200.082 276.360,200.165 276.268,200.349 275.400 C 200.641 274.024,202.567 273.414,202.925 274.585 C 203.073 275.067,203.104 275.049,203.056 274.508 C 202.970 273.536,200.606 273.286,200.251 274.211 M211.362 274.154 C 211.245 274.459,211.219 275.494,211.305 276.454 C 211.458 278.180,211.461 278.176,211.530 276.100 C 211.606 273.828,212.002 273.496,212.977 274.889 C 213.412 275.510,213.600 275.594,213.600 275.169 C 213.600 273.859,211.790 273.039,211.362 274.154 M216.150 274.187 C 216.026 274.510,216.017 275.005,216.131 275.287 C 216.244 275.569,216.351 275.395,216.368 274.900 C 216.413 273.630,217.113 273.779,217.313 275.100 C 217.469 276.124,217.484 276.110,217.540 274.900 C 217.603 273.530,216.599 273.015,216.150 274.187 M224.958 274.166 C 224.838 274.478,224.817 275.243,224.910 275.866 C 225.078 276.983,225.081 276.980,225.140 275.724 C 225.215 274.118,225.889 273.656,226.378 274.874 C 226.582 275.383,226.761 275.590,226.775 275.333 C 226.855 273.850,225.430 272.935,224.958 274.166 M234.029 274.654 C 233.573 275.234,233.200 275.999,233.201 276.354 C 233.201 276.709,233.516 276.370,233.901 275.600 C 234.392 274.615,234.956 274.125,235.800 273.947 C 236.981 273.699,236.983 273.694,235.929 273.647 C 235.212 273.616,234.584 273.948,234.029 274.654 M237.938 274.854 C 238.786 275.946,238.759 278.213,237.900 278.144 C 237.515 278.114,237.200 278.261,237.200 278.472 C 237.200 278.683,237.605 278.798,238.100 278.728 C 239.420 278.540,239.551 276.418,238.322 275.128 C 237.815 274.596,237.642 274.473,237.938 274.854 M163.467 275.067 C 162.989 275.544,163.184 275.829,164.030 275.892 C 164.711 275.944,164.774 275.851,164.381 275.377 C 163.830 274.713,163.822 274.711,163.467 275.067 M166.881 281.200 C 166.831 283.950,166.696 286.650,166.583 287.200 L 166.377 288.200 166.800 287.234 C 167.048 286.668,167.171 284.186,167.098 281.234 L 166.974 276.200 166.881 281.200 M179.003 277.585 C 178.860 278.236,178.930 279.091,179.159 279.485 C 179.490 280.054,179.578 279.811,179.588 278.300 C 179.602 276.131,179.382 275.862,179.003 277.585 M191.654 277.500 C 191.585 279.154,190.156 279.391,189.878 277.795 C 189.717 276.875,189.707 276.883,189.751 277.895 C 189.788 278.719,190.030 279.033,190.702 279.128 C 191.719 279.272,192.155 278.537,191.886 277.129 C 191.751 276.422,191.696 276.510,191.654 277.500 M164.954 281.600 C 164.954 284.350,165.018 285.475,165.096 284.100 C 165.174 282.725,165.174 280.475,165.096 279.100 C 165.018 277.725,164.954 278.850,164.954 281.600 M160.893 278.800 C 160.893 279.570,160.975 279.885,161.076 279.500 C 161.176 279.115,161.176 278.485,161.076 278.100 C 160.975 277.715,160.893 278.030,160.893 278.800 M232.940 281.600 C 232.940 283.470,233.009 284.235,233.093 283.300 C 233.177 282.365,233.177 280.835,233.093 279.900 C 233.009 278.965,232.940 279.730,232.940 281.600 M162.893 280.800 C 162.893 281.570,162.975 281.885,163.076 281.500 C 163.176 281.115,163.176 280.485,163.076 280.100 C 162.975 279.715,162.893 280.030,162.893 280.800 M234.914 281.800 C 234.917 282.900,234.995 283.303,235.087 282.695 C 235.179 282.086,235.177 281.186,235.082 280.695 C 234.987 280.203,234.911 280.700,234.914 281.800 M226.540 284.000 C 226.540 285.870,226.609 286.635,226.693 285.700 C 226.777 284.765,226.777 283.235,226.693 282.300 C 226.609 281.365,226.540 282.130,226.540 284.000 M211.331 283.800 C 211.333 285.340,211.405 285.921,211.492 285.091 C 211.579 284.261,211.577 283.001,211.489 282.291 C 211.400 281.581,211.329 282.260,211.331 283.800 M188.934 282.227 C 188.802 282.572,188.888 283.048,189.125 283.285 C 189.432 283.592,189.494 283.480,189.340 282.890 C 189.174 282.258,189.343 282.024,190.062 281.887 L 191.000 281.709 190.087 281.654 C 189.586 281.625,189.067 281.882,188.934 282.227 M162.920 284.400 C 162.920 285.610,162.995 286.105,163.087 285.500 C 163.178 284.895,163.178 283.905,163.087 283.300 C 162.995 282.695,162.920 283.190,162.920 284.400 M160.893 284.000 C 160.893 284.770,160.975 285.085,161.076 284.700 C 161.176 284.315,161.176 283.685,161.076 283.300 C 160.975 282.915,160.893 283.230,160.893 284.000 M185.606 283.833 C 185.609 284.255,185.795 284.870,186.018 285.200 C 186.315 285.638,186.352 285.476,186.156 284.600 C 185.827 283.129,185.598 282.810,185.606 283.833 M191.701 285.000 C 191.705 285.880,191.787 286.193,191.883 285.695 C 191.979 285.198,191.975 284.478,191.875 284.095 C 191.775 283.713,191.696 284.120,191.701 285.000 M189.701 285.400 C 189.705 286.280,189.787 286.593,189.883 286.095 C 189.979 285.598,189.975 284.878,189.875 284.495 C 189.775 284.113,189.696 284.520,189.701 285.400 M237.700 284.267 C 237.425 284.377,237.200 284.626,237.200 284.821 C 237.200 285.016,237.454 285.078,237.764 284.959 C 239.023 284.475,238.949 286.941,237.654 288.600 C 237.134 289.267,237.188 289.254,237.978 288.525 C 239.555 287.072,239.329 283.615,237.700 284.267 M178.893 285.600 C 178.893 286.370,178.975 286.685,179.076 286.300 C 179.176 285.915,179.176 285.285,179.076 284.900 C 178.975 284.515,178.893 284.830,178.893 285.600 M212.893 286.000 C 212.893 286.770,212.975 287.085,213.076 286.700 C 213.176 286.315,213.176 285.685,213.076 285.300 C 212.975 284.915,212.893 285.230,212.893 286.000 M224.853 287.676 C 224.824 288.488,224.988 289.269,225.218 289.411 C 225.780 289.759,226.807 288.860,226.772 288.051 C 226.749 287.513,226.694 287.526,226.456 288.130 C 226.015 289.250,225.427 288.974,225.153 287.516 L 224.905 286.200 224.853 287.676 M233.209 286.842 C 233.195 287.841,235.055 289.604,236.081 289.564 C 236.834 289.534,236.774 289.462,235.751 289.166 C 234.935 288.929,234.279 288.352,233.860 287.502 C 233.507 286.786,233.214 286.489,233.209 286.842 M173.761 288.400 C 173.799 289.372,175.600 290.219,175.600 289.265 C 175.600 289.051,175.254 288.965,174.830 289.076 C 174.259 289.226,174.017 289.036,173.892 288.339 C 173.732 287.449,173.725 287.452,173.761 288.400 M191.646 288.067 C 191.621 288.653,191.375 289.224,191.100 289.335 C 190.708 289.493,190.711 289.544,191.113 289.568 C 191.747 289.608,192.130 288.687,191.880 287.723 C 191.754 287.236,191.678 287.348,191.646 288.067 M179.121 288.300 C 178.828 289.371,178.133 289.483,177.876 288.500 C 177.704 287.844,177.690 287.845,177.646 288.513 C 177.591 289.356,178.678 289.882,179.264 289.296 C 179.490 289.070,179.606 288.551,179.521 288.142 C 179.388 287.496,179.336 287.517,179.121 288.300 M204.846 288.300 C 204.792 289.360,203.741 289.514,203.476 288.500 C 203.304 287.844,203.290 287.845,203.246 288.513 C 203.191 289.356,204.278 289.882,204.864 289.296 C 205.090 289.070,205.189 288.551,205.084 288.142 C 204.927 287.531,204.885 287.559,204.846 288.300 M211.254 288.276 C 211.225 288.758,211.388 289.269,211.618 289.411 C 212.108 289.714,213.205 288.903,213.188 288.251 C 213.181 288.003,212.992 288.115,212.768 288.500 C 212.210 289.459,211.690 289.378,211.482 288.300 C 211.309 287.400,211.309 287.400,211.254 288.276 M162.162 288.700 C 162.680 289.312,163.320 289.581,164.162 289.540 L 165.400 289.480 164.200 289.307 C 163.540 289.211,162.640 288.833,162.200 288.467 C 161.406 287.805,161.406 287.807,162.162 288.700 M187.065 289.300 C 187.296 289.681,188.759 289.640,189.800 289.224 C 190.356 289.001,190.034 288.918,188.741 288.952 C 187.719 288.978,186.965 289.135,187.065 289.300 " stroke="none" fill="#a0c1aa" fill-rule="evenodd"></path></g></svg>