<svg id="svg" version="1.1" xmlns="http://www.w3.org/2000/svg" xmlns:xlink="http://www.w3.org/1999/xlink" width="400" height="400" viewBox="0, 0, 400,400"><g id="svgg"><path id="path0" d="M0.000 200.000 L 0.000 400.000 200.000 400.000 L 400.000 400.000 400.000 200.000 L 400.000 0.000 200.000 0.000 L 0.000 0.000 0.000 200.000 M177.819 165.200 C 179.177 172.638,185.849 183.627,195.878 194.943 C 198.089 197.438,198.132 197.250,194.491 201.008 C 190.584 205.042,187.958 209.474,186.863 213.882 C 185.893 217.784,185.245 219.200,184.810 218.364 C 183.689 216.210,183.279 207.661,184.150 204.600 C 184.321 203.998,183.951 203.454,182.650 202.400 C 172.363 194.062,169.254 175.672,175.921 162.600 L 176.533 161.400 177.048 162.600 C 177.332 163.260,177.679 164.430,177.819 165.200 M224.759 164.289 C 225.263 165.329,225.821 166.994,225.998 167.989 C 226.175 168.985,226.537 170.880,226.802 172.200 C 228.945 182.842,225.766 193.699,218.270 201.345 C 216.104 203.555,215.595 204.302,215.802 204.965 C 217.148 209.267,215.790 218.906,213.994 217.796 C 213.639 217.577,212.668 214.389,212.245 212.050 C 211.653 208.784,207.489 201.600,206.187 201.600 C 205.129 201.600,200.727 207.661,197.462 213.614 C 194.216 219.529,193.852 226.743,196.537 231.931 C 197.342 233.486,198.000 235.043,198.000 235.391 C 198.000 236.888,192.972 241.988,191.487 241.998 C 191.123 242.000,188.970 237.472,188.635 236.000 C 187.010 228.854,188.110 217.704,191.003 211.994 C 191.967 210.093,195.127 205.153,195.607 204.800 C 195.756 204.690,197.106 203.070,198.608 201.200 C 200.109 199.330,202.072 196.975,202.969 195.966 C 205.273 193.375,211.788 185.270,212.908 183.600 C 213.424 182.830,214.477 181.300,215.246 180.200 C 217.866 176.455,221.251 169.023,222.004 165.360 C 222.769 161.639,223.359 161.410,224.759 164.289 M203.038 165.789 C 210.193 167.914,211.593 178.345,205.280 182.492 C 199.091 186.559,191.402 183.016,190.538 175.700 C 189.718 168.752,196.067 163.719,203.038 165.789 M131.780 182.373 C 135.351 187.237,144.352 193.799,150.908 196.317 C 152.058 196.759,154.530 197.707,156.400 198.423 C 166.700 202.370,174.987 209.865,177.246 217.276 C 178.855 222.558,178.926 223.081,178.899 229.400 C 178.872 235.785,177.591 244.169,176.472 245.288 C 174.811 246.949,159.092 240.476,153.012 235.627 C 151.919 234.755,150.960 234.107,150.880 234.186 C 150.426 234.641,160.084 242.000,161.135 242.000 C 161.354 242.000,161.593 242.153,161.667 242.339 C 161.824 242.739,166.386 244.915,168.400 245.551 C 169.170 245.795,170.700 246.281,171.800 246.632 C 178.503 248.771,188.252 247.841,193.270 244.583 C 202.357 238.684,207.381 225.949,203.995 217.400 C 201.586 211.318,201.579 211.082,203.743 208.581 C 205.109 207.003,205.113 207.001,205.969 207.773 C 209.488 210.950,211.800 218.891,211.800 227.800 C 211.800 251.296,187.901 263.578,160.200 254.316 C 143.423 248.707,133.051 238.068,127.046 220.310 C 123.346 209.365,123.070 194.195,126.449 187.505 C 126.642 187.123,126.800 186.572,126.800 186.280 C 126.800 185.690,128.656 181.682,129.292 180.900 C 129.940 180.102,130.246 180.283,131.780 182.373 M271.327 182.500 C 275.400 191.187,276.997 206.032,274.694 213.800 C 274.368 214.900,273.875 216.790,273.599 218.000 C 273.323 219.210,272.970 220.380,272.816 220.600 C 272.661 220.820,272.301 221.630,272.015 222.400 C 269.564 229.014,263.631 238.857,260.012 242.312 C 246.384 255.326,224.339 260.644,207.633 254.948 C 203.137 253.415,202.954 253.035,205.430 250.367 C 209.698 245.767,209.124 246.051,212.236 246.996 C 219.202 249.111,232.090 246.632,238.661 241.913 C 241.119 240.148,240.420 240.124,236.392 241.834 C 232.802 243.358,231.648 243.733,227.800 244.626 C 223.024 245.735,222.376 245.361,221.943 241.252 C 221.790 239.793,221.471 237.520,221.234 236.200 C 219.983 229.208,221.042 219.548,223.629 214.364 C 224.993 211.632,230.393 205.009,231.753 204.400 C 231.999 204.290,232.920 203.735,233.800 203.167 C 236.785 201.241,240.028 199.610,242.466 198.810 C 243.803 198.371,245.819 197.580,246.948 197.052 C 248.077 196.524,250.260 195.513,251.800 194.805 C 258.275 191.827,264.151 187.139,269.225 180.900 C 269.924 180.040,270.311 180.335,271.327 182.500 M249.186 233.547 C 248.628 234.126,247.638 234.984,246.986 235.453 C 246.334 235.923,245.915 236.428,246.056 236.577 C 246.198 236.725,247.368 235.852,248.656 234.638 C 249.945 233.423,250.820 232.444,250.600 232.462 C 250.380 232.480,249.744 232.969,249.186 233.547 M242.577 238.567 C 242.150 238.879,241.918 239.252,242.062 239.395 C 242.358 239.691,244.000 238.767,244.000 238.304 C 244.000 237.836,243.433 237.941,242.577 238.567 " stroke="none" fill="#fbfbfb" fill-rule="evenodd"></path><path id="path1" d="M175.311 166.100 C 170.659 179.989,173.288 192.618,182.659 201.400 L 185.220 203.800 184.610 206.120 C 183.884 208.880,183.835 211.362,184.454 213.923 C 184.923 215.861,185.600 217.055,185.600 215.946 C 185.600 215.221,187.029 210.635,187.701 209.200 C 188.927 206.585,191.732 202.756,194.141 200.409 C 197.345 197.287,197.320 197.705,194.490 194.454 C 185.210 183.792,179.990 175.425,177.752 167.622 C 176.394 162.884,176.389 162.881,175.311 166.100 M196.200 166.756 C 190.831 169.234,189.468 176.290,193.513 180.658 C 198.314 185.841,207.010 183.321,208.478 176.320 C 209.919 169.451,202.642 163.783,196.200 166.756 M128.854 183.100 C 118.794 202.904,127.864 234.366,147.374 247.348 C 168.423 261.355,199.379 258.618,207.796 242.007 C 212.298 233.123,212.386 220.009,207.996 212.193 C 205.343 207.469,205.366 207.481,203.674 209.976 L 202.348 211.931 203.133 213.468 C 211.799 230.455,196.929 250.902,177.700 248.439 C 162.867 246.538,146.911 235.393,140.325 222.332 C 137.737 217.200,138.513 217.396,142.119 222.784 C 144.514 226.363,151.482 233.767,154.127 235.544 C 161.561 240.537,166.005 242.563,173.160 244.223 C 176.127 244.911,176.131 244.909,176.813 241.800 C 181.656 219.758,175.082 206.277,156.000 199.118 C 145.222 195.074,137.155 190.005,132.506 184.354 C 129.865 181.144,129.851 181.139,128.854 183.100 " stroke="none" fill="#2e834f" fill-rule="evenodd"></path><path id="path2" d="M222.255 167.632 C 220.697 173.235,215.181 182.571,208.878 190.273 C 207.185 192.342,205.346 194.628,204.790 195.352 C 204.235 196.077,202.089 198.589,200.021 200.933 C 191.326 210.795,189.240 215.567,188.903 226.380 C 188.535 238.199,190.954 242.957,194.951 238.278 C 197.145 235.710,197.178 235.361,195.532 231.994 C 194.038 228.938,193.530 223.191,194.388 219.058 C 195.416 214.104,204.125 200.400,206.244 200.400 C 207.963 200.400,211.672 206.559,213.046 211.695 C 214.224 216.093,214.231 216.103,214.995 214.274 C 215.717 212.545,215.776 209.008,215.135 205.817 L 214.670 203.501 217.088 201.250 C 225.517 193.409,228.179 183.117,225.366 169.238 C 224.824 166.568,224.087 165.200,223.189 165.200 C 223.047 165.200,222.627 166.295,222.255 167.632 M267.794 184.024 C 264.887 187.723,257.576 193.130,252.022 195.688 C 250.140 196.555,248.060 197.519,247.400 197.831 C 246.740 198.142,244.869 198.846,243.242 199.395 C 235.357 202.053,227.656 208.435,224.434 214.982 C 221.614 220.714,220.802 228.903,222.222 237.298 C 222.567 239.334,222.953 241.691,223.082 242.535 C 223.210 243.379,223.578 244.170,223.900 244.294 C 225.234 244.806,231.939 242.911,237.060 240.575 C 237.754 240.259,238.427 240.000,238.556 240.000 C 239.265 240.000,245.084 235.852,248.386 232.992 C 252.303 229.600,254.467 227.245,257.547 223.020 C 259.719 220.041,259.556 220.222,259.823 220.489 C 260.142 220.809,258.446 224.352,257.185 226.000 C 256.595 226.770,255.860 227.890,255.551 228.489 C 254.475 230.575,244.492 240.000,243.360 240.000 C 243.223 240.000,241.918 240.834,240.459 241.854 C 232.677 247.294,218.939 250.192,211.861 247.887 C 209.521 247.124,209.545 247.114,206.826 250.064 C 204.155 252.961,204.223 253.069,209.800 254.839 C 215.235 256.563,227.831 256.794,233.600 255.274 C 245.035 252.263,251.794 248.655,259.486 241.460 C 261.613 239.470,268.000 230.409,268.000 229.381 C 268.000 229.240,268.622 227.836,269.382 226.262 C 271.298 222.294,273.090 217.415,273.590 214.800 C 273.822 213.590,274.273 211.340,274.591 209.800 C 276.122 202.403,274.494 190.907,270.883 183.622 C 269.924 181.686,269.597 181.729,267.794 184.024 " stroke="none" fill="#accd4b" fill-rule="evenodd"></path><path id="path3" d="M175.046 165.207 C 173.583 169.633,172.792 173.632,172.845 176.326 C 172.885 178.341,172.949 178.144,173.412 174.600 C 173.989 170.179,174.094 169.706,175.307 166.100 C 176.390 162.881,176.394 162.883,177.752 167.622 C 179.990 175.425,185.210 183.792,194.490 194.454 C 197.320 197.705,197.345 197.287,194.141 200.409 C 191.732 202.756,188.927 206.585,187.701 209.200 C 187.065 210.557,185.600 215.205,185.600 215.866 C 185.600 217.207,184.860 216.204,184.593 214.500 C 184.429 213.455,184.206 212.849,184.096 213.153 C 183.842 213.863,184.825 218.000,185.248 218.000 C 185.425 218.000,185.767 217.235,186.008 216.300 C 187.855 209.141,190.180 204.957,194.912 200.276 L 197.666 197.552 196.733 196.419 C 183.983 180.937,177.600 170.542,177.600 165.262 C 177.600 164.410,176.693 162.000,176.373 162.000 C 176.226 162.000,175.629 163.443,175.046 165.207 M222.951 164.183 C 222.792 164.598,222.910 165.024,223.242 165.234 C 224.189 165.834,224.449 165.640,223.960 164.700 C 223.298 163.429,223.250 163.404,222.951 164.183 M195.150 166.746 C 190.493 169.699,189.195 175.453,192.186 179.885 C 197.608 187.919,210.213 183.212,209.072 173.579 C 208.294 167.013,200.647 163.260,195.150 166.746 M202.871 166.413 C 206.627 167.456,209.334 172.240,208.478 176.320 C 206.286 186.773,191.194 185.140,191.201 174.451 C 191.205 168.595,196.815 164.731,202.871 166.413 M172.848 181.424 C 172.713 188.293,177.157 197.761,182.614 202.233 C 184.401 203.697,184.412 203.722,184.198 205.754 C 183.972 207.903,184.459 207.344,184.926 204.919 C 185.152 203.745,184.991 203.484,182.991 201.775 C 177.527 197.107,174.518 191.152,173.403 182.800 C 172.911 179.120,172.894 179.077,172.848 181.424 M128.985 181.766 C 128.637 182.298,127.730 184.472,126.971 186.598 C 119.747 206.810,128.012 234.000,145.182 246.504 C 150.208 250.164,159.808 254.799,161.317 254.294 C 161.583 254.205,160.810 253.808,159.600 253.412 C 133.989 245.024,118.608 214.161,127.001 188.000 C 129.306 180.818,129.494 180.693,132.506 184.354 C 137.155 190.005,145.222 195.074,156.000 199.118 C 175.082 206.277,181.656 219.758,176.813 241.800 C 176.131 244.909,176.127 244.911,173.160 244.223 C 166.005 242.563,161.561 240.537,154.127 235.544 C 151.482 233.767,144.514 226.363,142.119 222.784 C 138.513 217.396,137.737 217.200,140.325 222.332 C 146.198 233.979,165.449 248.283,174.800 247.947 C 175.418 247.925,175.036 247.720,173.800 247.410 C 165.985 245.452,158.390 241.513,152.962 236.601 C 151.883 235.625,150.891 234.821,150.758 234.813 C 150.283 234.787,145.510 229.156,145.755 228.911 C 145.893 228.774,147.039 229.743,148.303 231.065 C 154.765 237.826,164.255 243.001,173.523 244.818 C 176.647 245.431,176.580 245.499,177.653 240.589 C 179.068 234.119,178.989 223.396,177.494 218.800 C 174.359 209.164,167.563 202.883,155.218 198.213 C 144.737 194.247,136.884 189.144,132.312 183.326 C 130.090 180.498,129.880 180.400,128.985 181.766 M202.575 197.700 L 201.400 199.000 202.700 197.825 C 203.415 197.179,204.000 196.594,204.000 196.525 C 204.000 196.216,203.670 196.488,202.575 197.700 M203.355 209.389 C 201.749 211.807,201.742 211.634,203.642 216.000 C 205.380 219.993,205.588 227.592,204.052 231.000 C 198.692 242.890,191.654 247.910,180.142 248.054 L 175.800 248.109 178.600 248.515 C 196.735 251.144,211.553 229.974,203.133 213.468 L 202.348 211.931 203.674 209.976 C 205.262 207.635,205.169 207.654,206.326 209.439 C 215.168 223.085,212.123 242.248,199.800 250.505 C 191.820 255.852,176.488 258.021,166.045 255.281 C 162.478 254.344,161.416 254.199,162.415 254.785 C 168.987 258.633,189.624 257.100,198.357 252.115 C 212.502 244.041,216.369 222.739,206.312 208.300 C 205.262 206.792,205.020 206.882,203.355 209.389 M183.720 210.000 C 183.720 211.210,183.795 211.705,183.887 211.100 C 183.978 210.495,183.978 209.505,183.887 208.900 C 183.795 208.295,183.720 208.790,183.720 210.000 M213.634 214.800 C 213.622 215.130,213.789 215.670,214.006 216.000 C 214.459 216.691,215.193 215.942,215.182 214.800 C 215.177 214.371,215.046 214.423,214.722 214.982 C 214.272 215.759,214.266 215.759,213.962 214.982 C 213.762 214.469,213.649 214.407,213.634 214.800 M145.532 228.601 C 145.409 228.724,144.992 228.324,144.606 227.712 L 143.904 226.600 144.830 227.489 C 145.339 227.978,145.655 228.478,145.532 228.601 M191.141 240.285 C 191.459 240.883,191.831 241.086,192.286 240.912 C 192.831 240.702,192.849 240.619,192.380 240.473 C 192.061 240.374,191.546 240.092,191.235 239.846 C 190.757 239.470,190.743 239.538,191.141 240.285 " stroke="none" fill="#a2cdb1" fill-rule="evenodd"></path><path id="path4" d="M222.668 162.700 C 222.569 162.865,222.271 164.062,222.004 165.360 C 221.251 169.023,217.866 176.455,215.246 180.200 C 214.477 181.300,213.424 182.830,212.908 183.600 C 211.788 185.270,205.273 193.375,202.969 195.966 C 202.072 196.975,200.109 199.330,198.608 201.200 C 197.106 203.070,195.756 204.690,195.607 204.800 C 195.127 205.153,191.967 210.093,191.003 211.994 C 188.110 217.704,187.010 228.854,188.635 236.000 C 188.970 237.472,191.123 242.000,191.487 241.998 C 192.972 241.988,198.000 236.888,198.000 235.391 C 198.000 235.043,197.342 233.486,196.537 231.931 C 193.852 226.743,194.216 219.529,197.462 213.614 C 200.727 207.661,205.129 201.600,206.187 201.600 C 207.489 201.600,211.653 208.784,212.245 212.050 C 212.668 214.389,213.639 217.577,213.994 217.796 C 215.790 218.906,217.148 209.267,215.802 204.965 C 215.595 204.302,216.104 203.555,218.270 201.345 C 225.766 193.699,228.945 182.842,226.802 172.200 C 226.537 170.880,226.175 168.985,225.998 167.989 C 225.400 164.624,223.409 161.460,222.668 162.700 M225.325 168.800 C 228.555 181.235,225.670 193.040,217.488 200.870 L 214.698 203.540 215.204 206.222 C 216.142 211.192,214.777 219.845,213.772 215.300 C 212.344 208.841,210.711 205.061,208.025 202.000 C 206.031 199.728,205.965 199.763,201.784 205.348 C 193.636 216.233,192.033 224.253,196.191 233.343 L 197.234 235.622 195.987 237.358 C 194.880 238.900,193.681 240.007,192.091 240.955 C 191.493 241.311,190.263 238.780,189.374 235.363 C 188.682 232.708,188.592 222.524,189.235 219.706 C 190.740 213.111,193.001 209.119,199.800 201.056 C 209.743 189.264,211.957 186.472,215.224 181.607 C 217.840 177.712,220.952 171.769,221.437 169.742 C 221.587 169.114,221.841 168.420,222.001 168.200 C 222.160 167.980,222.412 167.007,222.560 166.038 C 223.088 162.586,223.928 163.426,225.325 168.800 M198.500 165.487 C 199.105 165.578,200.095 165.578,200.700 165.487 C 201.305 165.395,200.810 165.320,199.600 165.320 C 198.390 165.320,197.895 165.395,198.500 165.487 M172.551 178.800 C 172.551 181.330,172.616 182.365,172.696 181.100 C 172.775 179.835,172.775 177.765,172.696 176.500 C 172.616 175.235,172.551 176.270,172.551 178.800 M129.149 181.100 C 128.651 181.734,128.666 181.749,129.300 181.251 C 129.893 180.786,130.107 180.786,130.700 181.251 C 131.334 181.749,131.349 181.734,130.851 181.100 C 130.549 180.715,130.166 180.400,130.000 180.400 C 129.834 180.400,129.451 180.715,129.149 181.100 M269.225 180.900 C 264.151 187.139,258.275 191.827,251.800 194.805 C 250.260 195.513,248.077 196.524,246.948 197.052 C 245.819 197.580,243.803 198.371,242.466 198.810 C 240.028 199.610,236.785 201.241,233.800 203.167 C 232.920 203.735,231.999 204.290,231.753 204.400 C 230.393 205.009,224.993 211.632,223.629 214.364 C 221.042 219.548,219.983 229.208,221.234 236.200 C 221.471 237.520,221.790 239.793,221.943 241.252 C 222.376 245.361,223.024 245.735,227.800 244.626 C 231.648 243.733,232.802 243.358,236.392 241.834 C 240.420 240.124,241.119 240.148,238.661 241.913 C 232.090 246.632,219.202 249.111,212.236 246.996 C 209.124 246.051,209.698 245.767,205.430 250.367 C 202.954 253.035,203.137 253.415,207.633 254.948 C 224.339 260.644,246.384 255.326,260.012 242.312 C 263.631 238.857,269.564 229.014,272.015 222.400 C 272.301 221.630,272.661 220.820,272.816 220.600 C 272.970 220.380,273.323 219.210,273.599 218.000 C 273.875 216.790,274.368 214.900,274.694 213.800 C 276.354 208.201,275.743 194.672,273.538 188.200 C 271.285 181.589,270.183 179.722,269.225 180.900 M271.527 184.700 C 278.013 201.227,275.500 218.961,264.316 235.600 C 253.121 252.255,227.590 260.788,208.195 254.357 C 203.678 252.859,203.767 253.219,207.072 249.831 C 209.658 247.181,209.785 247.106,210.972 247.526 C 224.095 252.165,244.727 243.043,256.038 227.600 C 258.282 224.537,260.223 220.890,259.823 220.489 C 259.555 220.221,259.806 219.931,257.054 223.684 C 249.434 234.074,239.473 240.942,227.850 243.819 C 223.833 244.813,223.401 244.711,223.081 242.686 C 222.969 241.979,222.592 239.690,222.242 237.600 C 219.492 221.184,224.046 210.030,236.586 202.467 C 238.105 201.551,240.799 200.248,242.574 199.573 C 252.031 195.971,253.580 195.240,258.000 192.299 C 263.032 188.950,266.222 186.153,268.669 182.944 C 270.063 181.118,270.139 181.165,271.527 184.700 M134.200 185.600 C 135.059 186.480,135.852 187.200,135.962 187.200 C 136.072 187.200,135.459 186.480,134.600 185.600 C 133.741 184.720,132.948 184.000,132.838 184.000 C 132.728 184.000,133.341 184.720,134.200 185.600 M195.200 194.600 C 195.946 195.370,196.647 196.000,196.757 196.000 C 196.867 196.000,196.346 195.370,195.600 194.600 C 194.854 193.830,194.153 193.200,194.043 193.200 C 193.933 193.200,194.454 193.830,195.200 194.600 M124.148 202.800 C 124.148 205.110,124.214 206.055,124.295 204.900 C 124.376 203.745,124.376 201.855,124.295 200.700 C 124.214 199.545,124.148 200.490,124.148 202.800 M193.978 201.100 L 192.600 202.600 194.100 201.222 C 194.925 200.463,195.600 199.788,195.600 199.722 C 195.600 199.416,195.262 199.704,193.978 201.100 M171.183 208.100 C 172.841 209.866,173.200 210.184,173.200 209.883 C 173.200 209.819,172.345 208.964,171.300 207.983 L 169.400 206.200 171.183 208.100 M183.693 213.200 C 183.693 213.970,183.775 214.285,183.876 213.900 C 183.976 213.515,183.976 212.885,183.876 212.500 C 183.775 212.115,183.693 212.430,183.693 213.200 M184.461 217.000 C 184.396 218.071,185.007 219.036,185.374 218.443 C 185.524 218.199,185.469 218.000,185.251 218.000 C 185.034 218.000,184.778 217.595,184.682 217.100 C 184.533 216.324,184.502 216.310,184.461 217.000 M178.937 229.000 C 178.939 230.760,179.009 231.430,179.093 230.489 C 179.178 229.549,179.177 228.109,179.091 227.289 C 179.005 226.470,178.936 227.240,178.937 229.000 M144.795 228.000 C 146.227 230.150,148.082 231.997,148.531 231.719 C 148.768 231.572,148.837 231.726,148.698 232.088 C 148.552 232.469,148.911 233.140,149.630 233.829 C 150.274 234.445,150.800 234.725,150.800 234.451 C 150.800 234.177,150.983 234.066,151.207 234.204 C 151.430 234.342,151.526 234.597,151.419 234.769 C 151.312 234.942,151.714 235.515,152.312 236.042 L 153.400 237.000 152.400 235.868 C 151.850 235.245,151.472 234.705,151.561 234.668 C 151.649 234.630,149.953 232.800,147.792 230.600 C 145.631 228.400,144.282 227.230,144.795 228.000 M248.656 234.638 C 247.368 235.852,246.198 236.725,246.056 236.577 C 245.915 236.428,246.334 235.923,246.986 235.453 C 247.638 234.984,248.628 234.126,249.186 233.547 C 249.744 232.969,250.380 232.480,250.600 232.462 C 250.820 232.444,249.945 233.423,248.656 234.638 M178.501 235.400 C 178.505 236.280,178.587 236.593,178.683 236.095 C 178.779 235.598,178.775 234.878,178.675 234.495 C 178.575 234.113,178.496 234.520,178.501 235.400 M244.000 238.304 C 244.000 238.767,242.358 239.691,242.062 239.395 C 241.918 239.252,242.150 238.879,242.577 238.567 C 243.433 237.941,244.000 237.836,244.000 238.304 M139.200 241.800 C 140.395 243.010,141.463 244.000,141.573 244.000 C 141.683 244.000,140.795 243.010,139.600 241.800 C 138.405 240.590,137.337 239.600,137.227 239.600 C 137.117 239.600,138.005 240.590,139.200 241.800 M176.500 247.887 C 177.105 247.978,178.095 247.978,178.700 247.887 C 179.305 247.795,178.810 247.720,177.600 247.720 C 176.390 247.720,175.895 247.795,176.500 247.887 M183.300 247.876 C 183.685 247.976,184.315 247.976,184.700 247.876 C 185.085 247.775,184.770 247.693,184.000 247.693 C 183.230 247.693,182.915 247.775,183.300 247.876 M173.111 257.093 C 174.051 257.178,175.491 257.177,176.311 257.091 C 177.130 257.005,176.360 256.936,174.600 256.937 C 172.840 256.939,172.170 257.009,173.111 257.093 M179.091 257.089 C 179.801 257.177,181.061 257.179,181.891 257.092 C 182.721 257.005,182.140 256.933,180.600 256.931 C 179.060 256.929,178.381 257.000,179.091 257.089 " stroke="none" fill="#dbedad" fill-rule="evenodd"></path></g></svg>