<svg id="svg" version="1.1" xmlns="http://www.w3.org/2000/svg" xmlns:xlink="http://www.w3.org/1999/xlink" width="400" height="400" viewBox="0, 0, 400,400"><g id="svgg"><path id="path0" d="M0.000 200.000 L 0.000 400.000 200.000 400.000 L 400.000 400.000 400.000 200.000 L 400.000 0.000 200.000 0.000 L 0.000 0.000 0.000 200.000 M209.916 156.017 C 231.831 158.367,250.690 173.766,257.658 195.000 C 260.924 204.950,261.314 222.288,258.252 221.367 C 256.545 220.854,254.799 219.898,254.759 219.454 C 254.736 219.204,254.746 216.840,254.782 214.200 C 254.930 203.243,251.657 191.692,246.239 184.053 C 245.558 183.092,244.581 181.678,244.068 180.912 C 242.194 178.109,232.282 169.200,231.038 169.200 C 230.878 169.200,230.153 168.747,229.427 168.193 C 221.027 161.787,202.142 159.356,189.600 163.067 C 166.938 169.772,153.130 188.168,152.525 212.464 L 152.339 219.928 150.357 220.780 C 147.353 222.073,146.800 220.836,146.800 212.820 C 146.800 178.445,175.787 152.357,209.916 156.017 M205.010 163.606 C 210.417 166.948,211.618 175.888,207.456 181.800 C 205.459 184.635,204.734 184.816,204.253 182.600 C 203.706 180.083,203.463 179.670,203.308 181.000 C 202.872 184.731,202.127 185.043,200.017 182.374 C 195.890 177.153,196.389 168.658,201.066 164.500 C 203.271 162.539,203.280 162.537,205.010 163.606 M192.138 180.206 C 197.808 181.872,201.978 187.071,202.321 192.900 C 202.440 194.928,202.356 196.000,202.080 196.000 C 201.608 196.000,199.414 192.906,199.032 191.701 C 198.897 191.275,198.315 190.493,197.739 189.963 L 196.692 189.000 197.685 190.600 C 198.956 192.650,199.692 194.895,199.368 195.739 C 199.058 196.546,199.044 196.547,197.573 195.786 C 196.921 195.449,194.778 195.024,192.813 194.843 C 185.716 194.188,178.956 188.109,179.681 183.034 C 180.036 180.550,187.525 178.850,192.138 180.206 M224.880 180.786 C 227.492 181.767,227.847 182.398,227.179 184.878 C 225.595 190.759,221.129 194.221,214.312 194.850 C 212.336 195.032,210.169 195.456,209.495 195.792 C 208.042 196.517,207.948 196.453,207.632 194.511 L 207.389 193.014 206.508 194.507 C 205.257 196.627,204.800 196.386,204.800 193.608 C 204.800 183.612,215.024 177.083,224.880 180.786 M208.069 191.639 C 207.310 192.854,207.766 193.016,208.555 191.812 C 208.920 191.256,209.078 190.800,208.905 190.800 C 208.733 190.800,208.357 191.178,208.069 191.639 M199.895 202.100 C 199.415 206.731,196.943 212.483,193.530 216.911 C 190.516 220.821,186.800 226.712,186.800 227.581 C 186.800 227.943,186.589 228.451,186.330 228.710 C 185.479 229.561,185.800 236.256,186.823 239.000 C 189.367 245.823,195.567 250.400,202.265 250.400 C 203.931 250.400,206.000 249.735,206.000 249.200 C 206.000 249.051,206.457 248.720,207.016 248.466 C 213.287 245.608,217.243 235.644,215.018 228.310 C 214.292 225.919,214.870 225.483,216.108 227.485 C 219.359 232.744,218.453 240.070,213.876 245.536 C 212.712 246.926,212.900 246.795,214.616 245.018 C 221.997 237.379,221.206 229.234,211.926 217.295 C 209.693 214.422,208.207 211.881,207.353 209.476 C 206.139 206.057,205.268 202.167,205.477 201.100 C 205.705 199.943,206.400 199.569,206.400 200.605 C 206.400 204.743,213.988 213.987,217.400 214.005 C 224.110 214.041,239.564 217.972,250.280 222.369 C 259.119 225.996,259.081 225.974,257.558 226.653 C 256.978 226.912,256.411 227.958,255.735 230.015 C 249.762 248.189,232.711 264.012,215.200 267.630 C 205.144 269.708,198.484 269.709,188.400 267.632 C 176.598 265.202,163.738 256.553,155.638 245.600 C 152.163 240.900,146.770 229.564,146.806 227.034 C 146.847 224.111,170.269 216.228,184.400 214.381 C 186.270 214.137,188.389 213.852,189.109 213.749 C 191.606 213.390,195.743 208.379,198.223 202.711 C 199.640 199.473,200.187 199.273,199.895 202.100 " stroke="none" fill="#fbfbfb" fill-rule="evenodd"></path><path id="path1" d="M206.400 204.130 C 206.400 204.482,208.566 210.404,209.221 211.845 C 209.633 212.750,210.792 214.550,211.797 215.845 C 218.436 224.403,219.985 227.688,219.994 233.237 C 220.027 252.389,195.440 258.036,186.815 240.857 C 183.309 233.873,184.718 227.478,191.859 217.974 C 195.101 213.658,196.852 210.544,197.975 207.097 C 198.822 204.496,198.224 204.597,196.630 207.324 C 195.785 208.768,194.165 210.925,193.030 212.115 L 190.966 214.280 186.983 214.757 C 180.120 215.580,175.681 216.502,167.200 218.870 C 159.965 220.890,147.596 225.820,147.602 226.681 C 147.615 228.495,150.856 236.564,153.112 240.400 C 178.121 282.920,240.446 275.501,255.600 228.200 C 255.882 227.320,256.305 226.476,256.540 226.325 C 257.041 226.002,252.660 223.924,247.000 221.800 C 238.216 218.503,227.769 215.935,218.400 214.770 C 214.763 214.317,214.525 214.226,212.850 212.649 C 210.986 210.893,207.200 205.465,207.200 204.549 C 207.200 204.247,207.020 204.000,206.800 204.000 C 206.580 204.000,206.400 204.059,206.400 204.130 M216.178 233.923 C 216.153 238.864,215.063 241.826,211.980 245.328 C 209.676 247.945,210.680 247.681,213.100 245.033 C 216.536 241.273,218.042 236.487,217.117 232.261 C 216.402 228.991,216.202 229.345,216.178 233.923 " stroke="none" fill="#094d3c" fill-rule="evenodd"></path><path id="path2" d="M199.000 156.625 C 198.340 156.714,196.270 156.991,194.400 157.240 C 188.819 157.984,175.851 162.847,174.400 164.740 C 174.290 164.884,173.721 165.248,173.135 165.550 C 159.042 172.804,147.605 193.882,147.605 212.600 C 147.604 219.786,148.080 221.000,150.420 219.790 L 151.600 219.179 151.601 213.290 C 151.604 180.293,179.067 156.278,211.400 161.001 C 237.232 164.774,255.600 186.546,255.600 213.392 L 255.600 219.241 257.058 219.850 C 258.929 220.632,259.025 220.464,259.316 215.871 C 260.962 189.988,244.211 166.093,219.200 158.644 C 213.795 157.035,203.546 156.010,199.000 156.625 M201.564 165.298 C 198.079 168.782,197.078 175.186,199.324 179.619 C 201.639 184.187,201.855 183.888,203.015 174.500 C 203.223 172.817,203.974 171.457,204.008 172.700 C 204.053 174.283,205.196 182.530,205.400 182.733 C 205.546 182.879,205.915 182.639,206.219 182.199 C 206.524 181.760,206.940 181.203,207.144 180.962 C 210.320 177.218,209.595 169.592,205.675 165.500 C 203.916 163.664,203.231 163.630,201.564 165.298 M185.200 180.657 C 179.945 182.806,180.058 182.656,181.259 185.865 C 183.126 190.855,187.095 193.504,193.422 193.982 C 195.414 194.133,197.259 194.389,197.522 194.552 C 198.634 195.239,197.914 192.649,196.436 190.649 C 195.006 188.712,194.293 188.017,191.536 185.871 L 190.600 185.143 192.200 185.427 C 194.449 185.827,197.854 188.195,199.528 190.524 C 200.843 192.355,200.969 192.435,201.268 191.629 C 202.231 189.025,196.647 182.403,192.470 181.197 C 190.648 180.670,186.009 180.326,185.200 180.657 M215.599 180.940 C 211.762 181.976,207.991 185.182,207.114 188.154 C 206.847 189.059,206.397 190.038,206.114 190.329 C 205.512 190.948,205.424 192.400,205.990 192.400 C 206.204 192.400,206.648 191.881,206.976 191.246 C 208.619 188.070,217.600 182.914,217.600 185.148 C 217.600 185.396,217.317 185.600,216.972 185.600 C 215.288 185.600,210.436 190.046,209.396 192.543 C 208.584 194.492,208.281 194.376,213.237 194.014 C 219.947 193.525,223.908 190.895,225.955 185.570 L 226.910 183.086 225.986 182.390 C 223.752 180.704,218.954 180.035,215.599 180.940 M198.306 203.908 C 197.826 204.870,197.820 205.067,198.273 205.067 C 198.573 205.067,198.926 204.638,199.057 204.115 C 199.411 202.704,198.967 202.582,198.306 203.908 M184.901 232.600 C 184.905 233.480,184.987 233.793,185.083 233.295 C 185.179 232.798,185.175 232.078,185.075 231.695 C 184.975 231.313,184.896 231.720,184.901 232.600 M212.581 245.700 L 211.000 247.400 212.700 245.819 C 213.635 244.949,214.400 244.184,214.400 244.119 C 214.400 243.816,214.052 244.119,212.581 245.700 M214.575 246.100 L 213.400 247.400 214.700 246.225 C 215.415 245.579,216.000 244.994,216.000 244.925 C 216.000 244.616,215.670 244.888,214.575 246.100 M189.600 245.325 C 189.600 245.394,190.185 245.979,190.900 246.625 L 192.200 247.800 191.025 246.500 C 189.930 245.288,189.600 245.016,189.600 245.325 M209.500 247.393 C 208.108 248.619,208.099 248.909,209.474 248.196 C 210.064 247.889,210.588 247.360,210.638 247.019 C 210.751 246.255,210.820 246.232,209.500 247.393 M159.200 249.310 C 159.200 249.371,160.595 250.766,162.300 252.410 L 165.400 255.400 162.410 252.300 C 159.633 249.421,159.200 249.017,159.200 249.310 " stroke="none" fill="#93bb5a" fill-rule="evenodd"></path><path id="path3" d="M198.400 156.353 C 197.630 156.489,200.060 156.600,203.800 156.600 C 207.769 156.600,209.767 156.490,208.600 156.335 C 206.136 156.009,200.290 156.019,198.400 156.353 M184.800 159.400 C 183.494 160.147,183.951 160.155,185.654 159.416 C 186.394 159.094,186.730 158.831,186.400 158.830 C 186.070 158.829,185.350 159.086,184.800 159.400 M201.100 160.696 C 202.475 160.774,204.725 160.774,206.100 160.696 C 207.475 160.618,206.350 160.554,203.600 160.554 C 200.850 160.554,199.725 160.618,201.100 160.696 M178.865 161.787 C 176.903 162.861,176.237 163.391,177.412 162.941 C 178.625 162.476,181.451 160.808,181.000 160.823 C 180.780 160.830,179.819 161.263,178.865 161.787 M226.572 161.466 C 228.189 162.342,230.400 163.248,230.400 163.035 C 230.400 162.833,226.032 160.792,225.652 160.816 C 225.513 160.825,225.927 161.118,226.572 161.466 M190.000 162.000 L 189.000 162.320 190.000 162.354 C 190.550 162.373,191.270 162.213,191.600 162.000 C 192.364 161.506,191.542 161.506,190.000 162.000 M215.800 162.000 C 216.240 162.189,216.870 162.344,217.200 162.344 C 217.578 162.344,217.504 162.217,217.000 162.000 C 216.560 161.811,215.930 161.656,215.600 161.656 C 215.222 161.656,215.296 161.783,215.800 162.000 M172.465 165.579 C 170.473 166.887,168.510 168.282,168.102 168.679 C 167.695 169.075,166.560 170.113,165.581 170.984 C 164.601 171.855,162.910 173.565,161.823 174.784 C 160.526 176.237,161.008 175.867,163.223 173.708 C 166.757 170.262,171.412 166.435,173.169 165.531 C 173.736 165.239,174.380 164.859,174.600 164.686 C 174.820 164.514,175.360 164.115,175.800 163.799 C 176.240 163.484,176.485 163.220,176.344 163.213 C 176.203 163.206,174.458 164.270,172.465 165.579 M201.459 165.005 C 199.613 166.850,198.397 168.823,198.404 169.961 C 198.406 170.313,198.829 169.696,199.343 168.592 C 201.418 164.135,203.326 163.218,205.778 165.500 C 207.038 166.673,207.173 166.739,206.396 165.800 C 203.883 162.761,203.727 162.736,201.459 165.005 M222.854 164.187 C 223.190 164.523,226.000 165.616,226.000 165.411 C 226.000 165.301,225.348 164.938,224.551 164.605 C 223.075 163.989,222.518 163.851,222.854 164.187 M234.200 165.465 C 235.222 166.433,237.733 168.071,237.127 167.374 C 236.757 166.948,235.857 166.259,235.127 165.843 C 234.397 165.427,233.980 165.257,234.200 165.465 M178.726 166.414 C 177.915 166.842,177.126 167.396,176.973 167.644 C 176.759 167.991,179.878 166.416,180.767 165.729 C 181.315 165.305,179.971 165.756,178.726 166.414 M231.000 168.393 C 232.760 169.554,234.920 171.037,235.800 171.688 L 237.400 172.872 236.098 171.706 C 234.451 170.229,229.656 166.943,228.600 166.567 C 228.160 166.410,229.240 167.232,231.000 168.393 M208.663 171.043 C 209.008 172.362,209.199 174.252,209.095 175.334 C 208.987 176.471,209.050 177.048,209.249 176.734 C 209.944 175.638,209.308 170.083,208.369 169.043 C 208.191 168.847,208.324 169.747,208.663 171.043 M173.000 170.235 L 171.800 171.266 173.100 170.406 C 173.815 169.933,174.400 169.468,174.400 169.373 C 174.400 169.073,174.231 169.178,173.000 170.235 M241.815 171.672 C 242.907 172.812,243.986 173.937,244.212 174.172 C 244.439 174.408,245.069 174.953,245.612 175.385 C 246.156 175.816,245.164 174.691,243.409 172.885 C 241.655 171.078,240.131 169.600,240.024 169.600 C 239.918 169.600,240.723 170.533,241.815 171.672 M197.843 171.433 C 197.523 172.265,197.582 176.012,197.928 176.886 C 198.078 177.264,198.200 176.049,198.200 174.187 C 198.200 170.510,198.199 170.504,197.843 171.433 M166.800 175.400 C 165.605 176.610,164.801 177.581,165.014 177.557 C 165.394 177.514,169.486 173.200,169.147 173.200 C 169.051 173.200,167.995 174.190,166.800 175.400 M202.901 175.800 C 202.905 176.680,202.987 176.993,203.083 176.495 C 203.179 175.998,203.175 175.278,203.075 174.895 C 202.975 174.513,202.896 174.920,202.901 175.800 M204.093 175.600 C 204.085 176.370,204.216 177.990,204.383 179.200 C 204.648 181.116,204.690 181.193,204.709 179.800 C 204.720 178.920,204.590 177.300,204.418 176.200 C 204.169 174.597,204.104 174.478,204.093 175.600 M240.000 175.325 C 240.000 175.394,240.585 175.979,241.300 176.625 L 242.600 177.800 241.425 176.500 C 240.330 175.288,240.000 175.016,240.000 175.325 M248.417 179.000 C 250.844 182.271,251.177 182.637,250.233 181.000 C 249.852 180.340,248.821 178.990,247.940 178.000 C 246.655 176.555,246.749 176.752,248.417 179.000 M158.285 178.976 C 157.468 179.953,156.800 180.859,156.800 180.990 C 156.800 181.211,158.318 179.511,159.559 177.900 C 160.667 176.462,159.714 177.266,158.285 178.976 M163.375 179.300 L 162.200 180.600 163.500 179.425 C 164.712 178.330,164.984 178.000,164.675 178.000 C 164.606 178.000,164.021 178.585,163.375 179.300 M243.943 179.888 C 244.985 181.389,245.905 182.117,245.277 180.944 C 245.055 180.530,244.463 179.833,243.961 179.396 L 243.049 178.600 243.943 179.888 M183.431 180.993 C 179.712 182.522,179.250 184.456,181.796 187.840 C 182.110 188.258,181.929 187.520,181.393 186.200 C 180.077 182.957,180.081 182.941,182.700 181.695 C 187.115 179.593,192.258 180.318,196.699 183.667 C 198.184 184.788,199.064 185.328,198.652 184.868 C 194.885 180.653,188.322 178.982,183.431 180.993 M199.213 180.209 C 199.196 180.755,201.559 183.600,202.029 183.600 C 202.233 183.600,202.379 182.925,202.353 182.100 C 202.309 180.719,202.285 180.689,202.053 181.731 C 201.778 182.959,201.302 182.720,199.794 180.600 C 199.481 180.160,199.220 179.984,199.213 180.209 M216.200 180.402 C 215.696 180.620,216.289 180.667,217.800 180.528 C 219.421 180.380,220.904 180.517,222.368 180.953 C 223.560 181.307,224.609 181.525,224.698 181.436 C 225.500 180.633,217.825 179.699,216.200 180.402 M211.559 182.378 C 210.582 183.025,209.336 184.060,208.791 184.678 L 207.800 185.800 208.800 184.935 C 209.350 184.459,210.786 183.424,211.991 182.635 C 213.196 181.846,213.992 181.200,213.759 181.200 C 213.527 181.200,212.537 181.730,211.559 182.378 M156.153 182.100 C 154.776 184.436,154.686 184.635,155.387 183.800 C 156.200 182.832,156.900 181.600,156.638 181.600 C 156.533 181.600,156.315 181.825,156.153 182.100 M204.828 182.500 C 204.813 183.105,204.980 183.600,205.200 183.600 C 205.669 183.600,205.669 183.293,205.200 182.200 C 204.895 181.491,204.853 181.525,204.828 182.500 M160.728 182.700 C 159.992 183.565,158.119 186.753,158.672 186.200 C 159.172 185.700,161.618 182.000,161.448 182.000 C 161.380 182.000,161.056 182.315,160.728 182.700 M247.237 184.400 C 248.396 186.196,248.400 186.201,248.398 185.767 C 248.397 185.565,247.932 184.860,247.365 184.200 L 246.334 183.000 247.237 184.400 M225.867 185.667 C 225.505 186.588,225.274 187.407,225.354 187.488 C 225.434 187.568,225.800 186.883,226.167 185.967 C 226.533 185.050,226.764 184.231,226.679 184.146 C 226.594 184.061,226.229 184.745,225.867 185.667 M215.000 185.200 C 214.286 185.507,214.278 185.547,214.924 185.572 C 215.382 185.590,215.544 185.783,215.365 186.100 C 215.139 186.500,215.190 186.500,215.621 186.100 C 215.918 185.825,216.484 185.600,216.880 185.600 C 217.276 185.600,217.600 185.420,217.600 185.200 C 217.600 184.721,216.116 184.721,215.000 185.200 M253.170 186.500 C 253.928 188.444,255.999 192.574,256.000 192.142 C 256.000 191.637,253.200 185.600,252.965 185.600 C 252.885 185.600,252.978 186.005,253.170 186.500 M206.578 188.211 C 205.470 190.716,205.388 191.081,206.100 190.329 C 206.614 189.786,208.038 186.000,207.728 186.000 C 207.634 186.000,207.116 186.995,206.578 188.211 M152.600 188.400 C 152.259 189.060,152.069 189.600,152.179 189.600 C 152.289 189.600,152.659 189.060,153.000 188.400 C 153.341 187.740,153.531 187.200,153.421 187.200 C 153.311 187.200,152.941 187.740,152.600 188.400 M194.800 188.636 C 195.570 189.525,196.605 190.780,197.100 191.426 C 197.818 192.362,197.788 192.235,196.949 190.800 C 196.371 189.810,195.336 188.555,194.649 188.010 L 193.400 187.020 194.800 188.636 M212.400 188.135 C 211.177 189.248,209.811 190.800,210.055 190.800 C 210.153 190.800,211.028 189.990,212.000 189.000 C 213.860 187.105,214.098 186.590,212.400 188.135 M208.452 189.500 C 207.544 190.545,206.409 191.809,205.929 192.308 C 205.322 192.939,205.183 193.343,205.474 193.634 C 205.765 193.925,206.162 193.527,206.780 192.326 C 207.269 191.377,208.320 189.925,209.115 189.100 C 209.911 188.275,210.459 187.600,210.332 187.600 C 210.205 187.600,209.359 188.455,208.452 189.500 M198.383 189.500 C 199.126 190.435,199.806 191.200,199.894 191.200 C 200.177 191.200,198.463 188.949,197.735 188.364 C 197.348 188.054,197.640 188.565,198.383 189.500 M223.153 189.912 C 222.137 190.950,220.967 192.029,220.553 192.308 C 219.915 192.739,219.949 192.746,220.776 192.353 C 221.722 191.905,223.650 190.136,224.758 188.700 C 225.700 187.479,225.060 187.962,223.153 189.912 M156.600 189.600 C 156.238 190.301,156.026 190.959,156.129 191.062 C 156.232 191.165,156.606 190.669,156.960 189.960 C 157.314 189.251,157.526 188.593,157.431 188.498 C 157.336 188.403,156.962 188.899,156.600 189.600 M183.800 190.400 C 184.659 191.280,185.452 192.000,185.562 192.000 C 185.672 192.000,185.059 191.280,184.200 190.400 C 183.341 189.520,182.548 188.800,182.438 188.800 C 182.328 188.800,182.941 189.520,183.800 190.400 M250.881 191.391 C 251.359 192.376,251.819 193.114,251.903 193.030 C 252.084 192.849,250.468 189.600,250.197 189.600 C 250.094 189.600,250.402 190.406,250.881 191.391 M201.200 191.849 C 201.200 192.391,201.097 192.413,200.578 191.982 C 200.023 191.521,200.009 191.591,200.454 192.633 C 201.283 194.576,201.600 194.644,201.600 192.880 C 201.600 191.956,201.510 191.200,201.400 191.200 C 201.290 191.200,201.200 191.492,201.200 191.849 M187.376 192.978 C 187.804 193.320,188.434 193.586,188.776 193.568 C 189.315 193.541,189.318 193.507,188.800 193.314 C 188.470 193.192,187.840 192.926,187.400 192.724 C 186.613 192.362,186.612 192.366,187.376 192.978 M198.040 193.690 C 198.003 194.691,197.916 194.748,196.974 194.390 C 196.410 194.176,194.835 194.029,193.474 194.065 L 191.000 194.129 193.800 194.390 C 195.340 194.533,197.095 194.860,197.700 195.115 C 198.908 195.626,198.991 195.445,198.400 193.600 L 198.080 192.600 198.040 193.690 M208.100 194.717 C 207.784 195.539,208.254 195.709,209.266 195.136 C 209.780 194.845,211.550 194.491,213.200 194.351 C 216.119 194.101,216.093 194.096,212.250 194.147 C 209.429 194.185,208.243 194.348,208.100 194.717 M257.838 199.000 C 258.170 200.984,258.402 201.304,258.394 199.767 C 258.391 199.125,258.204 198.330,257.979 198.000 C 257.686 197.570,257.646 197.854,257.838 199.000 M153.246 198.867 C 153.221 199.234,153.096 199.864,152.970 200.267 C 152.752 200.962,152.763 200.963,153.197 200.287 C 153.448 199.896,153.573 199.266,153.473 198.887 C 153.311 198.268,153.288 198.266,153.246 198.867 M253.656 199.200 C 253.656 199.530,253.811 200.160,254.000 200.600 C 254.217 201.104,254.344 201.178,254.344 200.800 C 254.344 200.470,254.189 199.840,254.000 199.400 C 253.783 198.896,253.656 198.822,253.656 199.200 M198.476 202.653 C 197.967 203.661,197.647 204.581,197.764 204.698 C 197.882 204.815,198.173 204.397,198.412 203.769 C 198.758 202.857,198.921 202.745,199.217 203.214 C 199.541 203.725,199.589 203.724,199.599 203.200 C 199.606 202.870,199.719 202.195,199.852 201.700 C 200.264 200.164,199.446 200.731,198.476 202.653 M205.600 201.967 C 205.600 203.771,206.056 204.767,206.426 203.771 C 206.684 203.075,206.754 203.107,207.146 204.100 C 207.385 204.705,207.665 205.200,207.769 205.200 C 208.072 205.200,207.158 202.821,206.761 202.576 C 206.562 202.453,206.400 202.003,206.400 201.576 C 206.400 201.149,206.220 200.800,206.000 200.800 C 205.780 200.800,205.600 201.325,205.600 201.967 M258.672 203.000 C 258.799 204.100,258.969 205.075,259.051 205.167 C 259.332 205.482,259.120 202.999,258.780 202.000 C 258.551 201.326,258.516 201.651,258.672 203.000 M198.673 204.953 C 198.523 205.345,198.411 205.966,198.425 206.333 C 198.442 206.775,198.581 206.674,198.837 206.034 C 199.049 205.503,199.161 204.882,199.085 204.654 C 199.009 204.427,198.824 204.561,198.673 204.953 M196.586 206.500 L 195.952 207.800 196.767 206.800 C 197.552 205.837,197.808 205.200,197.410 205.200 C 197.306 205.200,196.935 205.785,196.586 206.500 M208.000 205.759 C 208.000 207.861,214.371 214.421,216.329 214.336 L 217.800 214.272 216.400 214.109 C 214.686 213.909,212.681 212.082,209.957 208.237 C 208.881 206.718,208.000 205.603,208.000 205.759 M151.731 209.000 C 151.733 210.540,151.805 211.121,151.892 210.291 C 151.979 209.461,151.977 208.201,151.889 207.491 C 151.800 206.781,151.729 207.460,151.731 209.000 M255.384 212.995 C 255.399 219.470,255.438 219.796,256.200 219.931 C 256.944 220.062,256.951 220.034,256.306 219.536 C 255.709 219.075,255.595 218.110,255.490 212.600 L 255.368 206.200 255.384 212.995 M259.366 212.200 C 259.373 217.102,259.433 217.738,259.698 215.674 C 259.877 214.284,259.873 211.584,259.690 209.674 C 259.376 206.386,259.359 206.521,259.366 212.200 M147.350 212.200 C 147.351 214.620,147.416 215.558,147.496 214.285 C 147.576 213.012,147.575 211.032,147.494 209.885 C 147.414 208.738,147.349 209.780,147.350 212.200 M193.809 210.389 C 191.732 212.979,190.676 213.825,189.171 214.108 C 188.313 214.270,188.339 214.297,189.389 214.346 C 190.569 214.400,194.476 210.901,195.616 208.769 C 196.330 207.436,195.787 207.922,193.809 210.389 M207.453 208.800 C 207.881 210.486,208.412 211.721,208.620 211.514 C 208.728 211.405,208.453 210.525,208.008 209.558 C 207.563 208.591,207.313 208.250,207.453 208.800 M196.030 212.120 C 195.815 212.688,194.314 214.918,192.696 217.076 C 188.725 222.373,187.880 223.613,188.096 223.829 C 188.196 223.930,188.964 222.974,189.801 221.706 C 190.638 220.438,192.353 218.050,193.612 216.400 C 196.106 213.130,196.986 211.653,196.644 211.310 C 196.522 211.189,196.246 211.553,196.030 212.120 M151.600 216.206 L 151.600 219.213 150.176 219.892 C 148.939 220.482,148.704 220.494,148.382 219.985 C 148.073 219.497,148.011 219.515,148.006 220.100 C 147.999 220.959,148.663 220.984,150.551 220.195 L 152.000 219.589 152.000 216.395 C 152.000 214.638,151.910 213.200,151.800 213.200 C 151.690 213.200,151.600 214.553,151.600 216.206 M209.971 214.242 C 210.188 214.704,211.029 215.874,211.839 216.842 C 213.942 219.351,217.159 224.259,218.235 226.600 C 218.740 227.700,219.164 228.368,219.177 228.084 C 219.229 226.917,214.545 219.372,211.846 216.276 C 211.307 215.658,210.576 214.758,210.221 214.276 C 209.611 213.446,209.597 213.444,209.971 214.242 M183.000 214.800 L 181.800 215.105 183.000 215.105 C 183.660 215.105,184.740 214.968,185.400 214.800 L 186.600 214.495 185.400 214.495 C 184.740 214.495,183.660 214.632,183.000 214.800 M219.800 214.800 C 220.460 214.968,221.540 215.105,222.200 215.105 L 223.400 215.105 222.200 214.800 C 221.540 214.632,220.460 214.495,219.800 214.495 L 218.600 214.495 219.800 214.800 M178.400 215.600 C 177.608 215.854,177.567 215.920,178.200 215.920 C 178.640 215.920,179.450 215.776,180.000 215.600 C 180.792 215.346,180.833 215.280,180.200 215.280 C 179.760 215.280,178.950 215.424,178.400 215.600 M225.200 215.600 C 225.750 215.776,226.560 215.920,227.000 215.920 C 227.633 215.920,227.592 215.854,226.800 215.600 C 226.250 215.424,225.440 215.280,225.000 215.280 C 224.367 215.280,224.408 215.346,225.200 215.600 M174.400 216.400 L 173.400 216.720 174.400 216.732 C 174.950 216.738,175.760 216.589,176.200 216.400 L 177.000 216.056 176.200 216.068 C 175.760 216.074,174.950 216.224,174.400 216.400 M229.000 216.400 C 229.440 216.589,230.250 216.738,230.800 216.732 L 231.800 216.720 230.800 216.400 C 230.250 216.224,229.440 216.074,229.000 216.068 L 228.200 216.056 229.000 216.400 M171.000 217.200 L 170.200 217.544 171.000 217.544 C 171.440 217.544,172.160 217.389,172.600 217.200 L 173.400 216.856 172.600 216.856 C 172.160 216.856,171.440 217.011,171.000 217.200 M232.600 217.200 C 233.040 217.389,233.760 217.538,234.200 217.532 C 234.843 217.523,234.804 217.457,234.000 217.200 C 232.632 216.762,231.581 216.762,232.600 217.200 M168.200 218.000 C 167.696 218.217,167.622 218.344,168.000 218.344 C 168.330 218.344,168.960 218.189,169.400 218.000 C 169.904 217.783,169.978 217.656,169.600 217.656 C 169.270 217.656,168.640 217.811,168.200 218.000 M237.200 218.417 C 238.410 218.835,239.670 219.169,240.000 219.158 C 240.866 219.129,236.756 217.663,235.800 217.659 C 235.360 217.657,235.990 217.998,237.200 218.417 M165.400 218.800 L 164.600 219.144 165.400 219.166 C 165.840 219.178,166.470 219.013,166.800 218.800 C 167.595 218.286,166.596 218.286,165.400 218.800 M240.800 219.354 C 240.800 219.606,244.873 220.860,245.066 220.668 C 245.163 220.570,244.392 220.200,243.350 219.845 C 241.442 219.195,240.800 219.071,240.800 219.354 M258.800 220.027 C 258.800 220.280,258.454 220.344,257.950 220.184 C 257.378 220.003,257.189 220.059,257.374 220.357 C 257.780 221.015,259.200 220.893,259.200 220.200 C 259.200 219.870,259.110 219.600,259.000 219.600 C 258.890 219.600,258.800 219.792,258.800 220.027 M247.158 221.608 C 248.125 222.053,249.005 222.328,249.114 222.220 C 249.321 222.012,248.086 221.481,246.400 221.053 C 245.850 220.913,246.191 221.163,247.158 221.608 M155.400 222.378 C 154.520 222.795,153.980 223.136,154.200 223.138 C 154.746 223.142,157.902 221.664,157.400 221.640 C 157.180 221.630,156.280 221.962,155.400 222.378 M251.158 223.237 C 252.125 223.666,252.988 223.945,253.075 223.858 C 253.248 223.686,250.165 222.382,249.692 222.428 C 249.531 222.444,250.191 222.808,251.158 223.237 M149.100 225.026 C 148.055 225.570,147.200 226.113,147.200 226.231 C 147.200 226.350,147.335 226.368,147.500 226.271 C 147.665 226.174,148.655 225.709,149.700 225.237 C 150.745 224.766,151.600 224.295,151.600 224.190 C 151.600 223.836,151.005 224.035,149.100 225.026 M253.820 224.324 C 254.338 224.765,256.400 225.627,256.400 225.402 C 256.400 225.181,254.159 224.000,253.740 224.000 C 253.575 224.000,253.611 224.146,253.820 224.324 M186.981 225.637 C 186.629 226.318,186.412 226.945,186.499 227.032 C 186.586 227.119,186.956 226.562,187.322 225.795 C 188.144 224.070,187.859 223.938,186.981 225.637 M256.700 226.385 C 255.682 227.377,255.840 227.780,256.871 226.820 C 257.350 226.374,257.665 225.940,257.571 225.856 C 257.477 225.772,257.085 226.010,256.700 226.385 M215.228 227.900 C 215.262 229.240,215.927 231.026,215.972 229.900 C 215.987 229.515,216.166 229.200,216.369 229.200 C 216.572 229.200,216.469 228.660,216.140 228.000 C 215.398 226.513,215.192 226.490,215.228 227.900 M147.234 227.800 C 147.222 228.240,147.387 228.870,147.600 229.200 C 148.114 229.995,148.114 228.996,147.600 227.800 L 147.256 227.000 147.234 227.800 M255.429 229.029 C 255.281 229.615,255.238 230.172,255.332 230.266 C 255.427 230.360,255.624 229.958,255.771 229.371 C 255.919 228.785,255.962 228.228,255.868 228.134 C 255.773 228.040,255.576 228.442,255.429 229.029 M219.438 230.200 C 219.770 232.184,220.002 232.504,219.994 230.967 C 219.991 230.325,219.804 229.530,219.579 229.200 C 219.286 228.770,219.246 229.054,219.438 230.200 M148.012 230.400 C 148.012 230.730,148.187 231.270,148.400 231.600 C 148.745 232.133,148.788 232.133,148.788 231.600 C 148.788 231.270,148.613 230.730,148.400 230.400 C 148.055 229.867,148.012 229.867,148.012 230.400 M216.834 230.400 C 216.846 230.730,217.011 231.360,217.200 231.800 L 217.544 232.600 217.566 231.800 C 217.578 231.360,217.413 230.730,217.200 230.400 C 216.855 229.867,216.815 229.867,216.834 230.400 M185.324 233.000 C 185.326 234.320,185.401 234.812,185.490 234.093 C 185.579 233.374,185.577 232.294,185.486 231.693 C 185.395 231.092,185.322 231.680,185.324 233.000 M216.101 233.400 C 216.105 234.280,216.187 234.593,216.283 234.095 C 216.379 233.598,216.375 232.878,216.275 232.495 C 216.175 232.113,216.096 232.520,216.101 233.400 M219.664 234.650 C 219.629 235.118,219.505 236.107,219.389 236.850 C 219.196 238.086,219.215 238.117,219.608 237.214 C 219.845 236.672,219.968 235.682,219.883 235.014 C 219.791 234.297,219.702 234.148,219.664 234.650 M149.600 234.610 C 149.600 234.970,152.400 240.400,152.586 240.400 C 152.682 240.400,152.532 239.905,152.251 239.300 C 149.996 234.440,149.600 233.739,149.600 234.610 M251.490 238.537 C 250.439 240.552,249.869 241.840,250.222 241.400 C 250.984 240.453,253.707 235.172,253.526 234.996 C 253.457 234.929,252.540 236.522,251.490 238.537 M185.634 237.000 C 185.622 237.440,185.787 238.070,186.000 238.400 C 186.514 239.195,186.514 238.196,186.000 237.000 L 185.656 236.200 185.634 237.000 M215.646 236.867 C 215.621 237.234,215.496 237.864,215.370 238.267 C 215.152 238.962,215.163 238.963,215.597 238.287 C 215.848 237.896,215.973 237.266,215.873 236.887 C 215.711 236.268,215.688 236.266,215.646 236.867 M217.050 238.050 C 216.909 238.753,216.869 239.402,216.959 239.492 C 217.050 239.583,217.248 239.091,217.400 238.400 C 217.552 237.709,217.593 237.059,217.491 236.958 C 217.389 236.856,217.191 237.347,217.050 238.050 M217.000 242.480 C 215.790 244.507,212.291 248.000,211.470 248.000 C 211.227 248.000,211.946 247.055,213.068 245.900 C 214.190 244.745,215.314 243.350,215.566 242.800 L 216.023 241.800 215.312 242.800 C 213.762 244.978,211.495 247.159,210.084 247.828 C 209.268 248.216,208.826 248.608,209.102 248.701 C 209.379 248.793,209.503 249.033,209.379 249.234 C 208.963 249.908,209.828 249.610,211.622 248.463 C 213.715 247.124,216.834 243.867,217.787 242.026 C 218.854 239.962,218.318 240.271,217.000 242.480 M153.324 241.821 C 155.640 246.418,164.216 255.374,170.054 259.294 C 173.737 261.766,181.714 265.762,182.467 265.511 C 182.720 265.427,182.044 265.031,180.964 264.633 C 171.711 261.218,161.402 253.035,155.574 244.479 C 153.142 240.910,152.457 240.100,153.324 241.821 M187.226 241.400 C 187.164 242.552,193.615 249.319,194.209 248.725 C 194.323 248.610,193.697 248.041,192.818 247.460 C 191.407 246.526,189.125 243.970,187.724 241.753 C 187.461 241.339,187.237 241.180,187.226 241.400 M248.606 243.488 L 247.904 244.600 248.830 243.711 C 249.339 243.222,249.655 242.722,249.532 242.599 C 249.409 242.476,248.992 242.876,248.606 243.488 M211.678 244.754 C 210.772 245.828,209.214 247.223,208.216 247.854 C 206.281 249.076,205.972 249.572,207.100 249.646 C 208.926 249.766,204.260 250.522,201.800 250.505 C 199.971 250.493,199.277 250.600,199.800 250.815 C 200.908 251.270,204.569 251.278,205.681 250.828 C 206.187 250.623,207.083 250.352,207.673 250.227 C 208.560 250.038,208.715 249.824,208.566 248.999 C 208.466 248.450,208.528 248.000,208.704 248.000 C 209.136 248.000,211.842 245.346,212.844 243.938 C 214.101 242.173,213.499 242.594,211.678 244.754 M246.556 246.300 C 242.855 251.173,237.734 255.953,232.782 259.157 C 227.778 262.394,227.533 262.585,230.200 261.165 C 235.411 258.390,243.712 251.131,246.740 246.700 C 248.287 244.437,248.167 244.178,246.556 246.300 M194.800 248.995 C 194.800 249.261,197.590 250.407,198.149 250.370 C 198.397 250.354,197.880 250.007,197.000 249.600 C 195.309 248.817,194.800 248.677,194.800 248.995 M183.600 266.000 C 183.930 266.213,184.470 266.388,184.800 266.388 C 185.333 266.388,185.333 266.345,184.800 266.000 C 184.470 265.787,183.930 265.612,183.600 265.612 C 183.067 265.612,183.067 265.655,183.600 266.000 M217.466 266.274 C 216.403 266.600,215.618 266.952,215.723 267.056 C 215.936 267.269,220.400 266.043,220.400 265.772 C 220.400 265.495,219.529 265.644,217.466 266.274 M186.200 266.800 C 187.396 267.314,188.395 267.314,187.600 266.800 C 187.270 266.587,186.640 266.422,186.200 266.434 L 185.400 266.456 186.200 266.800 M189.200 267.600 C 189.750 267.776,190.560 267.926,191.000 267.932 L 191.800 267.944 191.000 267.600 C 190.560 267.411,189.750 267.262,189.200 267.268 L 188.200 267.280 189.200 267.600 M212.600 267.600 L 211.800 267.944 212.600 267.944 C 213.040 267.944,213.760 267.789,214.200 267.600 L 215.000 267.256 214.200 267.256 C 213.760 267.256,213.040 267.411,212.600 267.600 M193.800 268.405 C 195.382 268.750,199.489 268.939,199.167 268.651 C 199.075 268.570,197.470 268.402,195.600 268.279 C 193.172 268.120,192.657 268.156,193.800 268.405 M206.000 268.400 L 203.800 268.670 205.800 268.712 C 206.900 268.735,208.520 268.605,209.400 268.423 L 211.000 268.092 209.600 268.111 C 208.830 268.122,207.210 268.252,206.000 268.400 " stroke="none" fill="#a1c0a2" fill-rule="evenodd"></path><path id="path4" d="M198.200 155.880 C 168.944 158.550,146.800 183.081,146.800 212.820 C 146.800 220.836,147.353 222.073,150.357 220.780 L 152.339 219.928 152.525 212.464 C 153.130 188.168,166.938 169.772,189.600 163.067 C 202.142 159.356,221.027 161.787,229.427 168.193 C 230.153 168.747,230.878 169.200,231.038 169.200 C 232.282 169.200,242.194 178.109,244.068 180.912 C 244.581 181.678,245.558 183.092,246.239 184.053 C 251.657 191.692,254.930 203.243,254.782 214.200 C 254.746 216.840,254.736 219.204,254.759 219.454 C 254.799 219.898,256.545 220.854,258.252 221.367 C 261.314 222.288,260.924 204.950,257.658 195.000 C 249.340 169.652,224.729 153.459,198.200 155.880 M209.071 156.401 C 215.965 157.286,221.528 158.806,226.718 161.226 C 228.103 161.872,229.304 162.400,229.386 162.400 C 229.805 162.400,236.461 166.726,238.200 168.128 C 246.409 174.748,253.593 184.555,256.248 192.767 C 256.574 193.775,256.991 194.960,257.175 195.400 C 259.047 199.881,260.273 210.929,259.555 216.853 C 259.062 220.917,258.847 221.258,257.295 220.429 C 256.913 220.225,256.285 219.961,255.900 219.842 C 255.270 219.647,255.200 218.961,255.200 213.018 C 255.200 209.385,255.030 205.644,254.823 204.706 C 254.615 203.768,254.241 202.010,253.992 200.800 C 250.198 182.394,233.950 165.908,215.800 162.048 C 214.700 161.814,212.955 161.438,211.923 161.211 C 205.881 159.887,193.827 160.982,186.024 163.563 C 176.982 166.554,166.251 174.908,160.773 183.221 C 158.479 186.702,155.200 193.092,155.200 194.081 C 155.200 194.388,155.051 194.811,154.870 195.020 C 154.457 195.495,153.595 198.593,152.405 203.879 C 152.145 205.035,151.941 208.987,151.946 212.783 L 151.955 219.608 150.529 220.204 C 147.831 221.331,147.760 221.203,147.345 214.370 C 146.744 204.500,150.089 191.681,155.452 183.292 C 156.194 182.133,156.800 181.096,156.800 180.988 C 156.800 180.254,163.362 172.923,166.726 169.898 C 177.509 160.204,195.072 154.606,209.071 156.401 M201.066 164.500 C 196.389 168.658,195.890 177.153,200.017 182.374 C 202.127 185.043,202.872 184.731,203.308 181.000 C 203.463 179.670,203.706 180.083,204.253 182.600 C 204.734 184.816,205.459 184.635,207.456 181.800 C 211.618 175.888,210.417 166.948,205.010 163.606 C 203.280 162.537,203.271 162.539,201.066 164.500 M205.539 164.833 C 208.225 167.628,209.911 172.029,209.466 175.084 C 209.051 177.935,208.709 179.200,208.355 179.200 C 208.160 179.200,208.000 179.468,208.000 179.795 C 208.000 180.123,207.685 180.768,207.300 181.229 C 204.680 184.367,204.920 184.605,204.312 178.265 C 204.046 175.479,203.708 173.200,203.562 173.200 C 203.313 173.200,203.204 174.028,202.550 180.900 C 202.259 183.953,202.083 184.090,200.645 182.381 C 196.348 177.274,196.691 169.772,201.439 165.024 C 203.655 162.808,203.596 162.811,205.539 164.833 M182.400 180.921 C 179.365 182.414,179.189 182.871,180.402 186.114 C 182.307 191.205,186.674 194.276,192.813 194.843 C 194.778 195.024,196.921 195.449,197.573 195.786 C 199.044 196.547,199.058 196.546,199.368 195.739 C 199.692 194.895,198.956 192.650,197.685 190.600 L 196.692 189.000 197.739 189.963 C 198.315 190.493,198.897 191.275,199.032 191.701 C 199.414 192.906,201.608 196.000,202.080 196.000 C 202.356 196.000,202.440 194.928,202.321 192.900 C 201.745 183.119,191.030 176.676,182.400 180.921 M215.234 180.009 C 209.827 181.147,204.800 187.700,204.800 193.608 C 204.800 196.386,205.257 196.627,206.508 194.507 L 207.389 193.014 207.632 194.511 C 207.948 196.453,208.042 196.517,209.495 195.792 C 210.169 195.456,212.336 195.032,214.312 194.850 C 221.861 194.153,228.981 187.382,227.400 182.402 C 226.830 180.605,219.370 179.138,215.234 180.009 M192.503 180.791 C 197.190 182.190,201.746 188.040,201.518 192.365 L 201.400 194.600 200.706 193.065 C 199.641 190.710,197.806 188.615,195.426 187.035 C 191.929 184.714,190.631 185.198,193.972 187.578 C 196.018 189.035,198.113 192.094,198.590 194.321 L 198.873 195.641 197.387 195.021 C 196.571 194.679,195.033 194.400,193.971 194.400 C 187.268 194.400,180.000 188.591,180.000 183.234 C 180.000 180.938,187.855 179.403,192.503 180.791 M222.543 180.598 C 225.608 181.528,227.278 182.712,226.975 183.741 C 225.062 190.250,220.456 193.951,213.808 194.322 C 212.044 194.420,210.088 194.761,209.463 195.080 C 208.837 195.398,208.222 195.555,208.096 195.429 C 207.877 195.210,208.039 194.794,209.556 191.677 C 210.348 190.049,212.093 188.221,214.171 186.842 C 215.346 186.062,215.567 185.766,215.047 185.666 C 213.177 185.306,208.381 189.120,206.850 192.186 C 205.775 194.338,205.238 194.159,205.498 191.737 C 206.313 184.157,215.178 178.364,222.543 180.598 M208.555 191.812 C 208.190 192.369,207.814 192.747,207.718 192.651 C 207.481 192.414,208.516 190.800,208.905 190.800 C 209.078 190.800,208.920 191.256,208.555 191.812 M185.900 214.282 C 186.395 214.378,187.205 214.378,187.700 214.282 C 188.195 214.187,187.790 214.109,186.800 214.109 C 185.810 214.109,185.405 214.187,185.900 214.282 M218.100 214.276 C 218.485 214.376,219.115 214.376,219.500 214.276 C 219.885 214.175,219.570 214.093,218.800 214.093 C 218.030 214.093,217.715 214.175,218.100 214.276 M180.100 215.076 C 180.485 215.176,181.115 215.176,181.500 215.076 C 181.885 214.975,181.570 214.893,180.800 214.893 C 180.030 214.893,179.715 214.975,180.100 215.076 M214.687 226.300 C 214.598 226.465,214.660 227.050,214.823 227.600 C 215.115 228.583,215.121 228.584,215.160 227.676 C 215.187 227.050,215.361 226.849,215.700 227.053 C 216.040 227.257,216.024 227.137,215.651 226.677 C 215.035 225.917,214.916 225.871,214.687 226.300 M216.000 227.678 C 216.000 227.805,216.269 228.424,216.598 229.054 C 216.926 229.684,217.190 229.930,217.185 229.600 C 217.179 229.270,216.910 228.651,216.587 228.224 C 216.264 227.796,216.000 227.551,216.000 227.678 M215.737 233.400 C 215.739 235.160,215.809 235.830,215.893 234.889 C 215.978 233.949,215.977 232.509,215.891 231.689 C 215.805 230.870,215.736 231.640,215.737 233.400 M217.740 234.800 C 217.740 236.670,217.809 237.435,217.893 236.500 C 217.977 235.565,217.977 234.035,217.893 233.100 C 217.809 232.165,217.740 232.930,217.740 234.800 M185.701 235.000 C 185.705 235.880,185.787 236.193,185.883 235.695 C 185.979 235.198,185.975 234.478,185.875 234.095 C 185.775 233.713,185.696 234.120,185.701 235.000 M248.000 244.800 C 247.530 245.460,247.236 246.000,247.346 246.000 C 247.456 246.000,247.930 245.460,248.400 244.800 C 248.870 244.140,249.164 243.600,249.054 243.600 C 248.944 243.600,248.470 244.140,248.000 244.800 M215.433 244.300 C 215.268 244.465,214.998 244.600,214.832 244.600 C 214.667 244.600,213.497 245.545,212.233 246.700 C 210.970 247.855,210.104 248.800,210.309 248.800 C 210.515 248.800,211.148 248.369,211.717 247.842 C 212.285 247.315,212.818 246.952,212.901 247.035 C 212.984 247.118,213.752 246.469,214.607 245.593 C 215.463 244.717,216.066 244.000,215.948 244.000 C 215.830 244.000,215.598 244.135,215.433 244.300 M190.800 245.800 C 191.546 246.570,192.247 247.200,192.357 247.200 C 192.467 247.200,191.946 246.570,191.200 245.800 C 190.454 245.030,189.753 244.400,189.643 244.400 C 189.533 244.400,190.054 245.030,190.800 245.800 M210.378 245.900 L 209.000 247.400 210.500 246.022 C 211.325 245.263,212.000 244.588,212.000 244.522 C 212.000 244.216,211.662 244.504,210.378 245.900 M206.032 249.051 C 205.995 249.579,204.314 250.303,202.600 250.530 C 201.940 250.617,202.120 250.637,203.000 250.574 C 204.872 250.440,208.109 249.713,207.133 249.646 C 206.767 249.621,206.376 249.375,206.265 249.100 C 206.138 248.785,206.051 248.767,206.032 249.051 M158.800 249.710 C 158.800 249.771,160.195 251.166,161.900 252.810 L 165.000 255.800 162.010 252.700 C 159.233 249.821,158.800 249.417,158.800 249.710 M167.600 257.746 C 167.600 257.856,168.140 258.330,168.800 258.800 C 169.460 259.270,170.000 259.564,170.000 259.454 C 170.000 259.344,169.460 258.870,168.800 258.400 C 168.140 257.930,167.600 257.636,167.600 257.746 M198.700 269.097 C 200.295 269.173,202.905 269.173,204.500 269.097 C 206.095 269.021,204.790 268.959,201.600 268.959 C 198.410 268.959,197.105 269.021,198.700 269.097 " stroke="none" fill="#cde5ab" fill-rule="evenodd"></path></g></svg>