<svg id="svg" version="1.1" xmlns="http://www.w3.org/2000/svg" xmlns:xlink="http://www.w3.org/1999/xlink" width="400" height="400" viewBox="0, 0, 400,400"><g id="svgg"><path id="path0" d="M0.000 200.000 L 0.000 400.000 200.000 400.000 L 400.000 400.000 400.000 200.000 L 400.000 0.000 200.000 0.000 L 0.000 0.000 0.000 200.000 M173.938 140.227 C 179.461 142.085,182.758 147.999,182.792 156.113 C 182.802 158.528,182.608 158.602,177.696 158.057 C 175.553 157.819,171.640 157.433,169.000 157.199 C 166.360 156.965,162.490 156.605,160.400 156.399 C 158.310 156.193,155.385 155.915,153.900 155.781 C 150.669 155.488,150.520 155.025,152.212 150.530 C 155.633 141.441,164.726 137.129,173.938 140.227 M233.450 139.957 C 238.027 141.270,239.240 146.167,236.632 152.800 C 235.169 156.521,235.156 156.666,236.339 156.032 C 239.292 154.452,243.295 156.903,244.642 161.114 C 245.796 164.720,244.130 167.768,239.495 170.537 L 237.189 171.915 238.592 172.742 C 239.503 173.280,240.226 174.150,240.656 175.224 L 241.318 176.878 242.842 175.096 C 247.656 169.464,257.773 170.083,262.500 176.300 C 264.180 178.511,265.422 178.979,266.418 177.778 C 267.455 176.529,268.337 176.332,269.796 177.025 C 271.212 177.697,272.559 177.690,280.695 176.967 C 284.732 176.609,284.822 176.668,284.198 179.270 C 283.549 181.972,282.897 183.840,281.953 185.695 C 281.759 186.077,281.600 186.580,281.600 186.813 C 281.600 187.789,276.179 198.052,275.515 198.333 C 275.342 198.407,275.200 198.644,275.200 198.861 C 275.200 199.344,272.773 202.948,272.323 203.133 C 272.145 203.207,272.000 203.490,272.000 203.763 C 272.000 204.913,262.880 214.769,258.649 218.191 C 253.110 222.671,238.810 231.200,236.837 231.200 C 236.591 231.200,236.077 231.365,235.695 231.566 C 235.313 231.768,234.314 232.231,233.477 232.596 C 232.639 232.961,232.011 233.381,232.081 233.530 C 232.151 233.678,232.772 234.970,233.460 236.400 C 237.091 243.945,238.381 246.979,238.085 247.275 C 237.904 247.456,221.116 247.558,200.778 247.502 L 163.800 247.400 163.908 246.000 C 163.967 245.230,164.537 242.804,165.175 240.609 C 166.400 236.390,166.402 236.000,165.195 236.000 C 164.779 236.000,164.024 235.839,163.519 235.642 C 163.013 235.445,161.790 235.053,160.800 234.772 C 159.810 234.491,158.829 234.112,158.620 233.930 C 158.411 233.749,157.837 233.600,157.344 233.600 C 156.851 233.600,156.336 233.420,156.200 233.200 C 156.064 232.980,155.639 232.800,155.255 232.800 C 154.871 232.800,153.667 232.368,152.579 231.840 C 151.490 231.313,149.880 230.557,149.000 230.161 C 148.120 229.765,147.310 229.342,147.200 229.221 C 147.090 229.099,146.280 228.626,145.400 228.170 C 142.578 226.706,141.870 226.250,138.201 223.534 C 132.752 219.499,124.000 210.708,124.000 209.269 C 124.000 209.011,123.859 208.800,123.686 208.800 C 123.381 208.800,123.011 208.258,120.695 204.428 C 119.651 202.700,117.090 197.542,116.411 195.800 C 116.240 195.360,115.897 194.497,115.650 193.881 C 114.391 190.751,114.741 190.527,121.400 190.215 C 125.366 190.029,129.067 189.749,137.900 188.967 C 139.495 188.825,140.800 188.613,140.800 188.495 C 140.800 187.477,136.783 180.567,135.800 179.896 C 127.264 174.063,123.673 163.828,127.347 155.803 C 128.591 153.086,129.242 153.002,132.135 155.186 C 139.013 160.379,142.004 168.531,139.566 175.438 C 138.112 179.559,138.109 179.539,140.650 184.392 C 142.671 188.254,143.088 188.812,143.790 188.591 C 144.236 188.451,146.009 188.237,147.730 188.115 C 151.132 187.875,151.600 187.482,151.600 184.872 C 151.600 178.982,161.076 166.800,165.658 166.800 C 168.281 166.800,168.961 177.156,166.814 184.397 C 166.586 185.166,166.400 185.949,166.400 186.138 C 166.400 186.483,170.729 186.279,175.600 185.706 C 177.478 185.485,178.168 185.248,178.084 184.853 C 177.758 183.310,179.198 182.301,181.457 182.488 L 183.634 182.669 182.274 181.234 C 174.334 172.859,178.702 167.980,186.966 175.993 C 190.373 179.297,190.183 179.231,190.263 177.146 C 190.499 170.992,197.009 174.480,199.322 182.000 C 199.464 182.462,199.569 182.415,199.775 181.800 C 201.159 177.676,203.495 176.713,205.721 179.347 C 206.158 179.864,205.980 179.254,205.271 177.800 C 201.822 170.730,201.091 168.421,201.077 164.555 C 201.054 158.238,206.339 154.936,209.935 159.021 L 211.600 160.913 211.614 157.756 C 211.659 147.769,217.004 143.047,221.871 148.694 L 223.142 150.170 223.409 148.985 C 225.024 141.817,228.630 138.575,233.450 139.957 M165.037 143.541 C 164.921 143.728,165.192 144.853,165.639 146.041 C 166.086 147.228,166.685 149.060,166.970 150.111 C 167.480 151.990,167.850 152.696,168.154 152.367 C 168.338 152.168,172.000 143.592,172.000 143.361 C 172.000 143.036,165.240 143.211,165.037 143.541 M157.455 148.500 C 154.640 152.928,154.411 152.593,160.547 153.008 C 165.079 153.314,165.003 153.623,161.461 149.300 C 158.634 145.848,159.084 145.938,157.455 148.500 M174.082 150.856 C 170.661 154.223,170.617 154.094,175.255 154.311 L 178.903 154.483 178.625 152.626 C 178.382 151.010,177.382 148.000,177.087 148.000 C 177.030 148.000,175.678 149.285,174.082 150.856 M247.800 175.763 C 245.533 177.048,243.600 180.839,243.600 184.001 C 243.600 187.688,245.492 190.542,247.370 189.686 C 249.142 188.879,251.030 186.830,249.440 187.440 C 248.678 187.732,248.273 186.960,248.570 185.777 C 248.743 185.086,249.092 184.800,249.759 184.800 C 250.278 184.800,250.926 184.530,251.200 184.200 C 251.474 183.870,252.036 183.600,252.449 183.600 C 252.912 183.600,253.200 183.317,253.200 182.862 C 253.200 181.703,254.699 180.541,255.523 181.060 C 256.598 181.738,256.334 182.927,254.962 183.596 C 253.776 184.174,253.745 184.251,254.235 185.400 C 254.516 186.060,254.870 187.553,255.021 188.718 C 255.358 191.305,255.549 191.159,256.444 187.634 C 257.307 184.235,258.474 181.619,259.569 180.628 C 260.654 179.646,260.632 179.524,259.100 178.012 C 255.865 174.818,251.129 173.875,247.800 175.763 M252.388 179.577 C 252.924 180.578,252.122 182.482,251.237 182.312 C 250.488 182.167,249.782 180.346,250.127 179.447 C 250.470 178.553,251.883 178.635,252.388 179.577 M206.548 181.300 C 206.681 181.795,206.792 182.425,206.795 182.700 C 206.798 182.975,207.070 183.200,207.400 183.200 C 208.148 183.200,208.147 183.045,207.390 181.580 C 206.667 180.183,206.207 180.030,206.548 181.300 M249.852 183.119 C 249.053 183.919,246.800 183.389,246.800 182.402 C 246.800 181.373,247.579 181.217,249.108 181.939 C 250.233 182.469,250.337 182.634,249.852 183.119 M207.165 207.503 C 202.998 210.309,202.277 211.497,204.103 212.543 C 208.115 214.843,210.479 216.054,210.639 215.894 C 210.871 215.663,208.702 206.799,208.415 206.803 C 208.297 206.804,207.734 207.119,207.165 207.503 M213.628 210.700 C 213.670 216.557,213.665 216.553,217.321 213.612 C 221.062 210.603,221.064 210.961,217.291 208.680 C 213.339 206.290,213.595 206.149,213.628 210.700 M186.183 215.552 C 180.015 218.354,179.049 227.389,184.537 230.948 C 190.796 235.006,198.423 231.083,198.391 223.821 C 198.365 217.785,191.502 213.136,186.183 215.552 M200.883 217.000 C 201.122 219.876,201.050 219.841,205.006 219.010 C 209.395 218.089,209.409 217.998,205.408 216.261 C 200.798 214.259,200.658 214.281,200.883 217.000 M218.100 217.258 C 214.069 218.744,214.069 218.739,217.897 221.238 L 220.993 223.259 221.250 221.930 C 221.695 219.620,221.953 215.999,221.671 216.021 C 221.522 216.033,219.915 216.590,218.100 217.258 M189.760 219.840 C 190.037 220.563,189.232 222.466,188.555 222.686 C 187.986 222.870,187.034 220.610,187.342 219.807 C 187.651 219.003,189.448 219.027,189.760 219.840 M211.599 220.900 C 211.598 221.175,211.403 222.990,211.165 224.932 C 210.641 229.201,210.328 228.887,214.402 228.176 C 218.270 227.501,218.778 227.187,217.740 226.117 C 217.333 225.698,215.971 224.240,214.713 222.877 C 212.475 220.452,211.601 219.897,211.599 220.900 M206.800 221.377 C 206.030 221.663,204.708 222.188,203.862 222.544 L 202.323 223.191 204.053 224.804 C 206.034 226.651,205.934 226.701,208.123 222.801 C 209.332 220.647,209.186 220.490,206.800 221.377 M192.967 221.443 C 193.905 221.803,193.734 223.094,192.656 223.800 C 190.818 225.004,189.645 223.555,191.200 222.000 C 192.095 221.105,192.090 221.106,192.967 221.443 M186.933 222.373 C 187.509 222.949,186.840 223.600,185.676 223.594 C 184.195 223.585,183.517 223.081,183.844 222.230 C 184.127 221.493,186.146 221.586,186.933 222.373 M187.430 225.777 C 187.735 226.993,187.384 227.600,186.376 227.600 C 185.519 227.600,185.371 226.775,186.014 225.574 C 186.577 224.521,187.135 224.601,187.430 225.777 M191.614 225.817 C 192.009 226.293,192.017 226.543,191.652 226.908 C 191.070 227.490,189.866 226.851,189.671 225.857 C 189.503 225.004,190.915 224.975,191.614 225.817 " stroke="none" fill="#fbfbfb" fill-rule="evenodd"></path><path id="path1" d="M229.200 140.515 C 227.334 141.376,225.395 144.274,224.462 147.600 C 224.246 148.370,223.918 149.525,223.734 150.167 C 223.337 151.556,222.400 152.033,222.400 150.847 C 222.400 149.669,219.798 147.200,218.557 147.200 L 217.541 147.200 217.746 150.500 C 218.172 157.378,218.895 162.071,219.683 163.074 C 219.917 163.373,219.886 163.866,219.597 164.406 C 219.345 164.877,219.261 165.563,219.412 165.931 C 219.562 166.299,219.860 167.860,220.074 169.400 C 220.289 170.940,220.558 172.875,220.674 173.700 C 220.976 175.857,221.283 175.613,223.187 171.700 C 224.123 169.775,225.229 167.508,225.645 166.662 C 226.060 165.816,226.400 164.871,226.400 164.562 C 226.400 164.253,226.541 164.000,226.713 164.000 C 226.885 164.000,227.275 163.145,227.580 162.100 C 227.885 161.055,228.263 159.930,228.421 159.600 C 228.729 158.953,229.391 157.346,229.945 155.900 C 230.134 155.405,230.506 154.280,230.771 153.400 C 231.036 152.520,231.400 151.440,231.581 151.000 C 231.761 150.560,232.130 149.390,232.400 148.400 C 232.670 147.410,233.037 146.240,233.215 145.800 C 233.394 145.360,233.652 144.460,233.789 143.800 C 233.926 143.140,234.136 142.218,234.256 141.752 C 234.624 140.318,231.359 139.519,229.200 140.515 M163.200 140.652 C 157.803 142.353,153.277 147.551,152.249 153.228 L 151.991 154.656 155.695 155.121 C 157.733 155.377,162.010 155.777,165.200 156.010 C 168.390 156.244,172.170 156.601,173.600 156.806 C 175.030 157.010,177.505 157.262,179.100 157.365 L 182.000 157.553 182.000 155.138 C 182.000 148.824,179.258 143.783,174.542 141.428 C 172.554 140.435,165.434 139.948,163.200 140.652 M172.500 142.360 C 173.197 142.452,172.573 144.973,171.140 147.852 C 170.907 148.321,170.844 149.107,171.000 149.600 C 171.206 150.250,171.139 150.446,170.754 150.318 C 170.444 150.215,169.863 150.817,169.353 151.771 C 168.142 154.033,167.249 153.917,166.506 151.400 C 166.181 150.300,165.774 149.040,165.601 148.600 C 165.036 147.162,164.000 143.520,164.000 142.973 C 164.000 142.360,169.492 141.964,172.500 142.360 M234.888 143.500 C 233.907 146.842,231.156 155.452,230.830 156.200 C 230.638 156.640,230.264 157.630,230.000 158.400 C 229.736 159.170,229.357 160.205,229.160 160.700 C 228.307 162.833,227.979 163.653,227.636 164.500 C 226.738 166.723,226.751 166.826,227.911 166.553 C 228.510 166.412,229.171 166.140,229.380 165.948 C 229.589 165.757,230.086 165.600,230.485 165.600 C 230.884 165.600,231.568 165.420,232.005 165.200 C 232.442 164.980,233.158 164.620,233.595 164.400 C 234.032 164.180,234.664 164.000,235.000 164.000 C 235.336 164.000,235.923 163.833,236.305 163.629 C 237.085 163.213,237.583 163.021,241.000 161.823 C 246.167 160.010,241.924 155.449,236.282 156.751 C 233.795 157.326,233.823 157.364,235.007 155.026 C 237.646 149.812,238.275 145.712,236.804 143.300 C 235.783 141.625,235.427 141.662,234.888 143.500 M160.162 146.500 C 163.867 150.375,166.221 153.964,165.100 154.029 C 161.527 154.238,154.885 153.418,154.143 152.676 C 154.022 152.555,154.483 151.642,155.168 150.647 C 155.852 149.652,156.522 148.289,156.656 147.619 C 156.790 146.948,157.153 146.400,157.463 146.400 C 157.772 146.400,158.129 146.130,158.255 145.800 C 158.577 144.962,158.754 145.027,160.162 146.500 M177.974 147.369 C 178.756 148.311,179.853 154.307,179.338 154.822 C 178.864 155.296,176.945 155.433,172.743 155.290 C 168.764 155.155,168.824 154.613,173.291 150.348 C 177.309 146.513,177.279 146.532,177.974 147.369 M214.534 148.500 C 212.959 150.262,212.000 154.488,212.000 159.673 C 212.000 161.491,211.833 162.800,211.600 162.800 C 211.380 162.800,211.200 162.627,211.200 162.416 C 211.200 161.566,208.978 158.427,208.090 158.022 C 206.823 157.445,206.307 157.825,206.871 158.919 C 207.859 160.836,208.000 161.218,208.000 161.971 C 208.000 162.401,208.144 162.842,208.321 162.951 C 208.497 163.060,208.893 164.072,209.200 165.200 C 209.507 166.328,209.903 167.340,210.079 167.449 C 210.256 167.558,210.400 167.999,210.400 168.429 C 210.400 168.859,210.565 169.523,210.767 169.905 C 211.655 171.584,212.800 174.441,212.800 174.977 C 212.800 175.299,213.002 176.066,213.250 176.681 C 213.497 177.297,213.878 178.250,214.096 178.800 C 214.315 179.350,214.652 180.113,214.847 180.495 C 215.041 180.877,215.200 181.530,215.200 181.946 C 215.200 184.194,216.721 183.800,218.077 181.200 C 218.364 180.650,218.698 180.110,218.820 180.000 C 219.788 179.126,220.308 176.879,219.933 175.200 C 219.711 174.210,219.372 172.230,219.179 170.800 C 218.986 169.370,218.636 166.850,218.400 165.200 C 218.165 163.550,217.803 160.670,217.596 158.800 C 217.265 155.807,216.506 148.722,216.428 147.900 C 216.371 147.292,215.316 147.626,214.534 148.500 M128.179 155.241 C 125.453 160.512,125.908 166.827,129.419 172.449 C 130.656 174.430,136.197 180.000,136.930 180.000 C 137.195 180.000,137.732 180.741,138.125 181.647 C 138.517 182.553,138.947 183.187,139.079 183.055 C 139.211 182.923,138.895 182.015,138.377 181.038 L 137.434 179.262 138.285 177.331 C 141.776 169.406,139.283 161.411,131.469 155.468 C 129.127 153.687,128.988 153.677,128.179 155.241 M203.524 159.500 C 200.106 163.165,201.681 171.375,207.573 180.600 C 208.135 181.480,208.867 182.740,209.199 183.400 C 210.297 185.578,212.190 187.969,212.828 187.985 C 214.249 188.019,215.980 184.529,214.879 183.849 C 214.703 183.740,214.307 182.728,214.000 181.600 C 213.693 180.472,213.297 179.460,213.121 179.351 C 212.944 179.242,212.800 178.801,212.800 178.371 C 212.800 177.941,212.626 177.277,212.413 176.895 C 212.200 176.513,211.761 175.390,211.439 174.400 C 211.117 173.410,210.289 171.070,209.600 169.200 C 208.911 167.330,208.080 164.990,207.753 164.000 C 207.427 163.010,207.011 161.840,206.830 161.400 C 206.648 160.960,206.301 160.105,206.058 159.500 C 205.816 158.895,205.377 158.400,205.083 158.400 C 204.790 158.400,204.088 158.895,203.524 159.500 M241.329 162.730 C 240.191 163.103,239.126 163.541,238.963 163.704 C 238.800 163.867,238.334 164.000,237.928 164.000 C 237.522 164.000,236.877 164.159,236.495 164.353 C 235.326 164.948,233.877 165.523,232.200 166.057 C 231.320 166.337,230.420 166.677,230.200 166.811 C 229.980 166.946,229.024 167.301,228.076 167.600 C 226.492 168.100,224.800 169.712,224.800 170.721 C 224.800 170.940,224.260 172.127,223.600 173.359 C 220.757 178.667,220.110 179.849,219.585 180.682 C 218.683 182.115,218.621 182.113,224.800 180.818 C 225.790 180.610,227.410 180.248,228.400 180.014 C 229.390 179.779,231.100 179.420,232.200 179.216 C 233.300 179.013,234.920 178.665,235.800 178.444 C 236.680 178.223,238.030 177.886,238.800 177.695 C 241.241 177.089,239.840 172.800,237.201 172.800 C 235.339 172.800,235.906 171.739,238.453 170.456 C 241.503 168.919,244.049 166.038,244.297 163.841 C 244.535 161.724,244.475 161.701,241.329 162.730 M164.000 168.077 C 162.768 168.796,159.330 171.473,158.194 172.598 C 155.485 175.281,151.396 183.899,152.209 185.214 C 152.336 185.420,152.244 186.267,152.004 187.095 C 151.297 189.534,151.083 193.090,151.562 194.464 C 152.046 195.853,150.952 198.903,149.813 199.340 C 149.143 199.597,149.432 200.964,150.309 201.687 C 150.860 202.142,150.875 202.095,150.437 201.273 C 149.645 199.787,151.184 197.744,152.274 198.834 C 154.089 200.649,164.355 190.873,165.750 186.000 C 165.908 185.450,166.323 184.010,166.673 182.800 C 167.885 178.612,167.264 167.738,165.791 167.360 C 165.576 167.305,164.770 167.628,164.000 168.077 M246.571 172.969 C 244.306 173.999,241.956 176.583,241.266 178.800 C 241.026 179.570,240.644 180.811,240.416 181.557 C 240.154 182.416,240.134 183.444,240.362 184.357 C 240.560 185.151,240.927 186.683,241.176 187.763 C 241.468 189.025,242.212 190.420,243.260 191.672 C 244.615 193.290,244.842 193.802,244.607 194.709 C 244.015 196.989,243.932 199.782,244.412 201.237 C 244.857 202.584,244.819 202.901,244.069 204.173 C 243.606 204.958,243.382 205.600,243.571 205.600 C 243.760 205.600,244.008 205.355,244.123 205.056 C 244.375 204.399,249.083 201.200,249.797 201.200 C 250.075 201.200,251.036 202.151,251.933 203.313 C 254.421 206.538,255.560 207.511,256.005 206.791 C 256.315 206.290,256.447 206.311,256.905 206.938 C 257.393 207.605,257.491 207.614,257.970 207.036 C 258.260 206.686,258.928 206.400,259.454 206.400 C 259.980 206.400,260.723 206.236,261.105 206.036 C 261.487 205.836,263.060 205.101,264.600 204.403 C 268.108 202.811,271.455 200.619,272.037 199.531 C 272.992 197.747,271.535 196.520,269.495 197.389 C 268.814 197.679,267.600 197.044,267.600 196.398 C 267.600 196.231,268.419 195.218,269.420 194.147 C 273.414 189.872,273.039 185.642,268.877 188.038 C 266.750 189.263,266.679 188.890,268.330 185.155 C 269.876 181.657,270.554 179.378,270.269 178.636 C 269.868 177.591,269.050 178.300,268.000 180.604 C 267.450 181.810,266.865 182.798,266.700 182.799 C 266.262 182.801,266.333 182.088,266.800 181.800 C 267.020 181.664,267.200 181.203,267.200 180.776 C 267.200 180.349,267.336 180.000,267.502 180.000 C 267.903 180.000,268.949 177.615,268.670 177.337 C 268.328 176.995,265.801 179.078,265.204 180.193 C 264.551 181.412,264.000 181.497,264.000 180.378 C 264.000 179.121,260.943 174.899,259.280 173.859 C 255.810 171.689,250.241 171.299,246.571 172.969 M179.600 172.593 C 179.600 172.699,180.237 173.442,181.016 174.243 C 181.795 175.045,182.347 175.787,182.243 175.891 C 182.139 175.995,181.405 175.432,180.613 174.640 C 176.726 170.753,177.981 175.221,182.194 180.269 C 184.871 183.476,185.322 184.307,184.100 183.788 C 176.480 180.546,177.224 185.511,185.200 191.128 C 186.630 192.135,188.325 193.387,188.967 193.910 L 190.134 194.861 188.567 194.575 C 187.705 194.417,186.583 194.133,186.074 193.944 C 183.490 192.984,179.200 193.631,179.200 194.981 C 179.200 196.493,180.586 197.335,185.520 198.823 C 187.436 199.400,188.093 200.000,186.810 200.000 C 182.882 200.000,183.339 205.063,187.325 205.710 C 190.644 206.249,198.931 204.393,205.300 201.684 C 206.608 201.128,207.395 200.000,206.475 200.000 C 206.164 200.000,205.492 199.454,203.102 197.262 C 202.450 196.664,201.319 196.162,200.318 196.027 L 198.632 195.800 199.787 195.044 C 200.924 194.300,200.952 194.301,201.585 195.082 C 201.939 195.519,202.762 196.054,203.414 196.271 C 204.066 196.488,204.666 197.009,204.747 197.427 C 204.903 198.230,206.260 199.600,206.899 199.600 C 207.436 199.600,207.028 184.951,206.439 183.100 C 206.103 182.042,205.732 181.600,205.181 181.600 C 204.250 181.600,204.144 180.984,205.017 180.649 C 205.893 180.313,205.073 178.884,203.826 178.571 C 202.210 178.165,201.284 179.025,200.447 181.708 L 199.669 184.200 199.004 182.600 C 196.103 175.620,193.452 173.005,191.378 175.079 C 190.825 175.632,190.743 176.226,190.934 178.279 C 191.216 181.296,191.254 181.283,189.108 178.914 C 184.922 174.291,179.600 170.753,179.600 172.593 M256.419 175.210 C 260.376 177.228,261.427 179.286,259.655 181.542 C 258.456 183.069,257.254 186.216,256.386 190.100 C 255.716 193.100,255.426 193.002,254.611 189.500 C 253.278 183.774,251.919 182.605,251.000 186.393 C 250.128 189.989,246.802 191.620,244.858 189.405 C 238.422 182.075,247.655 170.738,256.419 175.210 M183.508 177.125 C 183.748 177.845,182.922 177.694,182.643 176.967 C 182.493 176.577,182.582 176.394,182.875 176.492 C 183.136 176.579,183.421 176.864,183.508 177.125 M239.107 178.627 C 238.745 178.988,234.319 179.970,232.980 179.986 C 232.309 179.994,231.589 180.162,231.380 180.359 C 231.171 180.556,230.280 180.816,229.400 180.936 C 226.629 181.314,225.026 181.643,224.200 182.002 C 223.760 182.194,222.770 182.443,222.000 182.556 C 218.341 183.094,218.097 183.225,216.629 185.435 C 214.406 188.783,214.292 188.744,222.800 187.564 C 231.808 186.315,238.707 183.157,239.409 179.961 C 239.673 178.755,239.545 178.188,239.107 178.627 M250.635 179.543 C 250.272 180.130,250.812 181.200,251.471 181.200 C 251.844 181.200,252.009 180.885,251.928 180.331 C 251.789 179.391,251.020 178.921,250.635 179.543 M186.629 180.571 C 187.259 181.202,187.363 181.600,186.896 181.600 C 186.729 181.600,186.368 181.240,186.093 180.800 C 185.512 179.870,185.803 179.746,186.629 180.571 M254.403 182.196 C 254.119 182.539,254.010 182.944,254.162 183.096 C 254.501 183.434,255.662 182.748,255.661 182.210 C 255.659 181.548,254.947 181.541,254.403 182.196 M191.784 185.794 C 193.902 187.881,195.761 189.570,195.917 189.547 C 196.073 189.524,196.785 189.527,197.500 189.553 C 198.883 189.603,199.354 190.400,198.000 190.400 C 196.846 190.400,197.009 190.982,198.613 192.587 C 199.391 193.364,199.868 194.000,199.674 194.000 C 199.341 194.000,192.436 187.313,189.019 183.681 C 186.127 180.607,187.878 181.945,191.784 185.794 M247.600 182.353 C 247.600 182.548,247.960 182.801,248.400 182.916 C 249.345 183.163,249.486 182.595,248.567 182.243 C 247.728 181.921,247.600 181.935,247.600 182.353 M266.400 184.200 C 266.400 184.530,266.220 184.800,266.000 184.800 C 265.780 184.800,265.600 184.530,265.600 184.200 C 265.600 183.870,265.780 183.600,266.000 183.600 C 266.220 183.600,266.400 183.870,266.400 184.200 M140.164 185.542 C 140.281 185.731,140.566 186.386,140.799 186.998 C 141.032 187.610,141.321 188.013,141.441 187.893 C 141.678 187.656,140.515 185.200,140.166 185.200 C 140.049 185.200,140.048 185.354,140.164 185.542 M264.800 187.400 C 264.800 187.730,264.620 188.000,264.400 188.000 C 264.180 188.000,264.000 187.730,264.000 187.400 C 264.000 187.070,264.180 186.800,264.400 186.800 C 264.620 186.800,264.800 187.070,264.800 187.400 M141.609 188.625 C 141.623 189.224,143.181 191.055,143.191 190.483 C 143.196 190.199,142.840 189.580,142.400 189.108 C 141.960 188.636,141.604 188.418,141.609 188.625 M204.000 190.600 C 204.000 191.810,203.820 192.800,203.600 192.800 C 203.380 192.800,203.200 191.810,203.200 190.600 C 203.200 189.390,203.380 188.400,203.600 188.400 C 203.820 188.400,204.000 189.390,204.000 190.600 M201.029 189.371 C 201.650 189.993,201.805 191.200,201.264 191.200 C 200.973 191.200,200.000 189.492,200.000 188.981 C 200.000 188.630,200.463 188.806,201.029 189.371 M126.759 191.004 C 123.779 191.821,120.000 194.278,120.000 195.398 C 120.000 198.358,129.757 201.271,133.829 199.527 C 138.935 197.340,140.347 195.598,138.412 193.874 C 135.355 191.150,130.546 189.966,126.759 191.004 M263.200 191.000 C 263.200 191.330,263.020 191.600,262.800 191.600 C 262.580 191.600,262.400 191.330,262.400 191.000 C 262.400 190.670,262.580 190.400,262.800 190.400 C 263.020 190.400,263.200 190.670,263.200 191.000 M262.104 193.301 C 261.866 193.795,261.545 194.560,261.390 195.000 C 261.204 195.525,261.041 195.623,260.915 195.285 C 260.690 194.680,261.959 191.826,262.301 192.168 C 262.430 192.296,262.341 192.806,262.104 193.301 M144.002 192.676 C 144.001 192.938,144.192 193.272,144.427 193.417 C 144.662 193.562,144.746 193.963,144.614 194.308 C 144.481 194.654,144.604 195.083,144.886 195.262 C 146.305 196.162,146.364 195.079,144.988 193.400 C 144.447 192.740,144.003 192.414,144.002 192.676 M226.173 193.653 C 225.555 194.847,225.563 195.402,226.235 198.165 C 226.468 199.124,226.407 199.288,225.892 199.091 C 223.967 198.352,224.690 204.484,227.036 208.796 C 228.340 211.190,232.087 214.800,233.270 214.800 C 233.738 214.800,234.162 215.134,234.284 215.600 C 234.531 216.543,234.924 216.614,235.572 215.834 C 235.946 215.383,235.884 215.217,235.264 215.020 C 234.173 214.674,234.049 213.826,234.463 209.549 C 235.202 201.916,233.168 196.383,228.411 193.086 C 227.080 192.163,226.923 192.203,226.173 193.653 M141.400 195.600 C 141.083 196.113,142.807 196.113,143.600 195.600 C 144.057 195.305,143.895 195.211,142.924 195.206 C 142.222 195.203,141.536 195.380,141.400 195.600 M198.000 196.400 C 198.000 196.620,197.460 196.800,196.800 196.800 C 196.140 196.800,195.600 196.620,195.600 196.400 C 195.600 196.180,196.140 196.000,196.800 196.000 C 197.460 196.000,198.000 196.180,198.000 196.400 M260.800 196.600 C 260.800 196.930,260.620 197.200,260.400 197.200 C 260.180 197.200,260.000 196.930,260.000 196.600 C 260.000 196.270,260.180 196.000,260.400 196.000 C 260.620 196.000,260.800 196.270,260.800 196.600 M256.000 197.443 C 256.000 198.224,255.701 198.136,255.205 197.209 C 254.859 196.564,254.894 196.461,255.391 196.652 C 255.726 196.780,256.000 197.136,256.000 197.443 M147.200 197.817 C 147.200 197.936,147.560 198.420,148.000 198.892 C 148.890 199.847,149.075 199.396,148.243 198.300 C 147.727 197.621,147.200 197.376,147.200 197.817 M260.000 198.576 C 260.000 198.893,259.820 199.264,259.600 199.400 C 259.380 199.536,259.200 199.277,259.200 198.824 C 259.200 198.371,259.380 198.000,259.600 198.000 C 259.820 198.000,260.000 198.259,260.000 198.576 M257.043 199.100 C 257.684 199.944,257.739 200.400,257.200 200.400 C 256.980 200.400,256.800 200.130,256.800 199.800 C 256.800 199.470,256.620 199.200,256.400 199.200 C 256.180 199.200,256.000 199.020,256.000 198.800 C 256.000 198.191,256.452 198.321,257.043 199.100 M259.200 200.576 C 259.200 200.893,259.008 201.272,258.773 201.417 C 258.538 201.562,258.396 202.267,258.458 202.984 C 258.613 204.779,257.499 205.956,256.547 205.004 C 255.942 204.399,255.957 204.306,256.747 203.752 C 257.229 203.415,257.600 202.722,257.600 202.160 C 257.600 201.193,258.295 200.046,258.900 200.015 C 259.065 200.007,259.200 200.259,259.200 200.576 M154.096 203.922 C 154.407 205.112,163.192 218.128,164.339 219.098 C 166.204 220.676,168.540 220.250,167.647 218.495 C 167.247 217.708,166.437 215.794,166.000 214.600 C 165.363 212.861,164.878 211.727,164.057 210.062 C 163.586 209.106,163.200 207.992,163.200 207.586 C 163.200 207.180,163.020 206.736,162.800 206.600 C 162.580 206.464,162.400 206.003,162.400 205.576 C 162.400 205.149,162.232 204.800,162.027 204.800 C 161.487 204.800,161.104 206.267,161.400 207.200 C 161.769 208.363,161.120 208.181,159.775 206.746 C 157.361 204.170,153.682 202.341,154.096 203.922 M207.076 203.805 C 204.370 204.663,202.387 205.790,202.601 206.348 C 202.873 207.057,202.094 208.011,201.446 207.762 C 200.709 207.479,199.658 208.838,198.583 211.465 C 197.507 214.093,197.436 214.115,194.000 212.841 C 179.987 207.649,170.923 225.987,183.372 234.345 C 185.571 235.822,192.334 235.892,195.243 234.467 C 197.919 233.158,200.800 230.148,200.800 228.662 C 200.800 227.524,202.996 228.011,204.733 229.533 C 207.687 232.123,217.905 230.796,221.315 227.381 C 225.275 223.414,226.007 222.488,225.373 222.245 C 224.904 222.065,224.861 221.834,225.183 221.232 C 226.164 219.399,225.150 211.200,223.942 211.200 C 223.707 211.200,223.621 210.924,223.750 210.586 C 224.603 208.362,216.009 202.740,214.634 204.622 C 214.107 205.342,212.800 205.011,212.800 204.157 C 212.800 203.851,212.575 203.581,212.300 203.558 C 210.090 203.372,208.152 203.463,207.076 203.805 M151.823 205.100 C 151.292 208.099,151.393 208.037,149.086 206.765 C 146.530 205.355,144.978 205.301,143.400 206.567 L 142.200 207.529 143.149 208.542 C 143.670 209.099,144.660 209.837,145.349 210.181 C 146.037 210.526,147.500 211.343,148.600 211.998 C 149.700 212.653,152.310 214.008,154.400 215.011 C 156.490 216.013,158.513 217.006,158.895 217.217 C 159.277 217.427,159.862 217.600,160.195 217.600 C 160.528 217.600,160.800 217.780,160.800 218.000 C 160.800 218.220,160.980 218.400,161.200 218.400 C 162.346 218.400,159.306 213.177,154.371 206.667 C 153.509 205.530,152.803 204.375,152.802 204.100 C 152.798 202.966,152.070 203.710,151.823 205.100 M163.200 204.920 C 163.200 205.426,163.353 206.011,163.540 206.220 C 163.727 206.429,164.826 209.030,165.982 212.000 C 169.234 220.349,170.410 222.150,171.743 220.817 C 172.395 220.165,170.970 213.441,169.281 209.200 C 167.578 204.925,163.200 201.844,163.200 204.920 M216.487 207.187 C 222.360 210.895,222.209 210.647,219.800 212.621 C 217.813 214.250,217.773 214.336,218.522 215.361 C 219.012 216.032,219.140 216.036,220.593 215.429 C 222.929 214.453,223.163 215.128,222.360 220.524 C 221.669 225.175,221.571 225.178,215.643 220.744 L 213.161 218.888 214.235 218.044 C 214.825 217.580,215.609 217.200,215.977 217.200 C 217.272 217.200,218.168 216.237,217.437 215.631 C 216.898 215.184,216.593 215.263,215.430 216.150 C 213.065 217.954,212.800 217.478,212.800 211.424 C 212.800 204.674,212.696 204.794,216.487 207.187 M209.603 207.700 C 209.842 208.635,210.188 209.850,210.372 210.400 C 212.668 217.255,212.316 218.091,208.125 215.736 C 200.102 211.230,200.841 211.803,201.800 210.835 C 206.515 206.075,208.940 205.101,209.603 207.700 M242.379 206.712 C 242.060 207.091,241.496 207.872,241.125 208.448 C 240.754 209.024,239.437 210.689,238.200 212.148 C 236.962 213.606,236.098 214.800,236.279 214.800 C 236.460 214.800,236.830 214.444,237.101 214.009 C 237.488 213.390,237.864 213.273,238.837 213.467 C 240.003 213.701,240.048 213.667,239.576 212.910 C 239.109 212.162,239.945 210.252,241.200 209.200 C 241.331 209.090,241.855 208.405,242.363 207.677 C 243.344 206.273,243.355 205.551,242.379 206.712 M142.000 210.166 C 142.000 211.070,144.852 213.831,146.600 214.619 C 147.480 215.016,148.251 215.375,148.313 215.417 C 148.376 215.459,147.791 216.129,147.013 216.907 C 144.159 219.761,145.346 221.714,148.894 220.000 C 149.805 219.560,150.705 219.200,150.894 219.200 C 151.084 219.200,151.984 218.840,152.894 218.400 C 153.805 217.960,154.801 217.600,155.108 217.600 C 155.796 217.600,155.563 216.755,154.776 216.391 C 154.459 216.244,153.750 215.885,153.200 215.592 C 152.650 215.300,151.480 214.687,150.600 214.230 C 149.720 213.774,148.910 213.310,148.800 213.200 C 148.312 212.712,146.755 212.000,146.175 212.000 C 145.825 212.000,144.998 211.460,144.338 210.800 C 143.060 209.522,142.000 209.235,142.000 210.166 M244.400 212.052 C 243.410 212.489,242.540 213.016,242.467 213.223 C 242.393 213.430,241.988 213.600,241.567 213.600 C 241.145 213.600,240.800 213.780,240.800 214.000 C 240.800 214.220,241.119 214.400,241.509 214.400 C 241.899 214.400,242.844 214.912,243.609 215.539 C 246.684 218.056,250.933 218.559,253.742 216.739 C 257.850 214.076,249.406 209.840,244.400 212.052 M203.000 214.295 C 204.100 214.679,205.108 215.142,205.240 215.323 C 205.372 215.505,205.732 215.704,206.040 215.766 C 211.077 216.782,211.119 219.452,206.100 219.570 C 205.343 219.587,204.800 219.809,204.800 220.100 C 204.801 221.354,200.868 220.420,200.430 219.063 C 198.893 214.295,199.544 213.088,203.000 214.295 M193.353 215.396 C 199.247 218.091,200.795 223.940,197.089 229.506 C 191.802 237.447,177.742 231.411,180.355 222.322 C 182.357 215.359,187.399 212.672,193.353 215.396 M232.415 218.016 C 231.653 218.667,231.203 219.195,231.415 219.189 C 231.627 219.183,232.430 218.648,233.200 218.000 C 233.970 217.352,234.420 216.824,234.200 216.827 C 233.980 216.830,233.177 217.365,232.415 218.016 M156.400 217.977 C 155.669 218.379,153.867 219.137,150.400 220.500 C 149.850 220.716,149.087 221.052,148.705 221.247 C 148.323 221.441,147.738 221.600,147.405 221.600 C 146.462 221.600,146.693 222.712,147.785 223.427 C 148.492 223.890,149.452 224.034,151.186 223.936 L 153.601 223.800 153.601 225.313 C 153.600 227.038,154.422 227.628,155.708 226.826 C 156.149 226.550,157.115 225.982,157.855 225.562 C 161.059 223.746,164.938 221.502,165.157 221.337 C 165.521 221.064,164.240 220.000,163.546 220.000 C 163.130 220.000,162.477 219.841,162.095 219.647 C 161.713 219.452,160.860 219.071,160.200 218.800 C 159.540 218.529,158.687 218.148,158.305 217.953 C 157.482 217.535,157.198 217.538,156.400 217.977 M215.679 222.632 C 219.289 226.363,219.763 226.999,219.480 227.735 C 219.269 228.287,211.052 229.803,210.413 229.408 C 209.766 229.008,210.159 222.893,211.037 219.700 C 211.337 218.612,212.499 219.346,215.679 222.632 M210.400 220.020 C 210.400 220.251,210.131 220.959,209.803 221.595 C 209.474 222.230,209.323 223.055,209.467 223.429 C 209.648 223.902,209.558 224.053,209.170 223.923 C 208.835 223.812,208.177 224.425,207.515 225.469 C 206.912 226.421,206.179 227.200,205.888 227.200 C 205.153 227.200,201.532 223.614,201.702 223.055 C 202.106 221.727,210.400 218.833,210.400 220.020 M188.000 220.776 C 188.000 221.782,188.646 222.179,188.958 221.365 C 189.341 220.366,189.245 220.000,188.600 220.000 C 188.270 220.000,188.000 220.349,188.000 220.776 M165.200 222.495 C 162.263 224.254,158.275 226.400,157.945 226.400 C 157.755 226.400,157.600 226.559,157.600 226.753 C 157.600 226.948,157.240 227.201,156.800 227.316 C 155.170 227.742,155.876 228.800,157.790 228.800 C 161.066 228.800,170.987 223.389,169.966 222.159 C 169.294 221.349,166.822 221.524,165.200 222.495 M191.467 222.267 C 191.102 222.631,191.129 223.600,191.504 223.600 C 191.671 223.600,192.032 223.240,192.307 222.800 C 192.808 221.998,192.152 221.581,191.467 222.267 M184.600 222.800 C 184.736 223.020,185.107 223.200,185.424 223.200 C 185.741 223.200,186.000 223.020,186.000 222.800 C 186.000 222.580,185.629 222.400,185.176 222.400 C 184.723 222.400,184.464 222.580,184.600 222.800 M227.600 234.278 C 218.799 237.207,199.362 239.620,189.282 239.035 C 183.941 238.725,176.773 238.095,175.000 237.781 C 174.340 237.664,172.299 237.291,170.464 236.953 C 168.630 236.615,167.079 236.397,167.020 236.469 C 166.784 236.752,164.430 245.059,164.318 246.000 L 164.200 247.000 200.681 247.093 C 222.040 247.147,237.254 247.036,237.385 246.825 C 237.507 246.626,236.716 244.588,235.627 242.295 C 234.537 240.002,233.195 237.108,232.645 235.863 C 231.515 233.309,230.999 233.147,227.600 234.278 " stroke="none" fill="#2e704f" fill-rule="evenodd"></path><path id="path2" d="M166.900 140.291 C 167.725 140.378,169.075 140.378,169.900 140.291 C 170.725 140.205,170.050 140.134,168.400 140.134 C 166.750 140.134,166.075 140.205,166.900 140.291 M173.600 150.049 C 172.206 151.271,172.205 151.272,173.488 150.419 C 174.196 149.948,174.882 149.391,175.012 149.181 C 175.397 148.557,175.077 148.754,173.600 150.049 M175.700 155.476 C 176.085 155.576,176.715 155.576,177.100 155.476 C 177.485 155.375,177.170 155.293,176.400 155.293 C 175.630 155.293,175.315 155.375,175.700 155.476 M170.900 156.676 C 171.285 156.776,171.915 156.776,172.300 156.676 C 172.685 156.575,172.370 156.493,171.600 156.493 C 170.830 156.493,170.515 156.575,170.900 156.676 M178.500 157.476 C 178.885 157.576,179.515 157.576,179.900 157.476 C 180.285 157.375,179.970 157.293,179.200 157.293 C 178.430 157.293,178.115 157.375,178.500 157.476 M268.603 177.205 C 268.897 177.681,268.141 179.520,267.401 180.130 C 267.161 180.328,267.241 180.398,267.600 180.305 C 267.930 180.219,268.376 179.758,268.592 179.282 C 269.094 178.170,269.962 177.836,270.269 178.636 C 270.554 179.378,269.876 181.657,268.330 185.155 C 266.679 188.890,266.750 189.263,268.877 188.038 C 273.039 185.642,273.414 189.872,269.420 194.147 C 267.678 196.011,267.023 196.976,268.116 196.069 C 268.499 195.752,268.754 195.834,269.099 196.387 C 269.402 196.872,269.933 197.093,270.615 197.018 C 271.942 196.872,272.722 198.251,272.037 199.531 C 271.455 200.619,268.108 202.811,264.600 204.403 C 263.060 205.101,261.487 205.836,261.105 206.036 C 260.723 206.236,259.980 206.400,259.454 206.400 C 258.928 206.400,258.260 206.686,257.970 207.036 C 257.491 207.614,257.393 207.605,256.905 206.938 C 256.447 206.311,256.315 206.290,256.005 206.791 C 255.560 207.511,254.421 206.538,251.933 203.313 C 251.036 202.151,250.075 201.200,249.797 201.200 C 249.083 201.200,244.375 204.399,244.123 205.056 C 244.008 205.355,243.760 205.600,243.571 205.600 C 243.382 205.600,243.606 204.958,244.069 204.173 C 244.819 202.901,244.857 202.584,244.412 201.237 C 243.909 199.711,243.995 196.387,244.572 195.100 C 244.799 194.594,244.708 194.400,244.243 194.400 C 243.315 194.400,243.170 200.049,244.055 201.703 C 244.422 202.389,240.591 208.682,238.761 210.400 C 238.409 210.730,237.531 211.775,236.809 212.723 C 236.026 213.751,235.275 214.361,234.948 214.235 C 234.647 214.120,234.400 214.187,234.400 214.386 C 234.400 214.584,234.769 214.863,235.221 215.007 C 235.877 215.215,235.947 215.381,235.572 215.834 C 234.924 216.614,234.531 216.543,234.284 215.600 C 234.162 215.134,233.738 214.800,233.270 214.800 C 229.861 214.800,224.200 205.044,224.965 200.489 C 225.103 199.670,225.320 198.011,225.448 196.803 C 225.851 192.984,226.710 191.906,228.411 193.086 C 232.832 196.150,234.993 201.314,234.646 207.986 C 234.522 210.368,234.565 211.672,234.745 210.986 C 234.920 210.319,235.234 209.469,235.442 209.097 C 236.387 207.408,234.026 196.800,232.706 196.800 C 232.538 196.800,232.400 196.578,232.400 196.307 C 232.400 195.579,227.950 191.600,227.136 191.600 C 226.413 191.600,225.694 192.910,224.805 195.849 C 224.125 198.095,224.415 205.393,225.247 207.000 C 227.318 210.996,227.796 211.587,231.720 215.012 C 232.161 215.397,232.782 215.544,233.320 215.392 C 233.930 215.220,233.572 215.735,232.152 217.072 C 229.312 219.744,227.221 221.201,226.236 221.194 C 225.745 221.190,225.582 221.066,225.841 220.894 C 227.163 220.013,226.253 210.698,224.755 209.772 C 224.560 209.652,224.396 209.248,224.391 208.876 C 224.352 206.099,217.629 202.739,211.063 202.215 C 204.994 201.731,196.331 208.436,197.412 212.781 C 197.627 213.647,197.767 213.490,198.598 211.447 C 199.661 208.830,200.709 207.480,201.454 207.766 C 201.767 207.885,201.875 207.739,201.737 207.380 C 201.601 207.025,201.759 206.800,202.145 206.800 C 202.491 206.800,202.691 206.575,202.588 206.300 C 201.698 203.912,214.088 202.621,218.182 204.676 C 220.027 205.602,224.032 209.852,223.750 210.586 C 223.621 210.924,223.707 211.200,223.942 211.200 C 225.150 211.200,226.164 219.399,225.183 221.232 C 224.861 221.834,224.904 222.065,225.373 222.245 C 226.007 222.488,225.275 223.414,221.315 227.381 C 217.782 230.919,207.719 232.116,204.534 229.376 C 203.910 228.840,203.280 228.401,203.133 228.400 C 202.986 228.400,202.560 228.283,202.186 228.139 C 200.668 227.557,202.447 229.601,204.112 230.352 C 208.921 232.523,215.309 232.335,219.400 229.902 C 220.060 229.510,220.873 229.091,221.208 228.972 C 221.542 228.853,222.221 228.163,222.717 227.439 C 224.170 225.318,225.760 223.676,226.816 223.205 C 229.395 222.054,231.474 220.504,234.995 217.108 C 237.988 214.221,239.200 213.441,239.200 214.400 C 239.200 214.620,239.736 214.800,240.392 214.800 C 241.159 214.800,242.321 215.358,243.651 216.365 C 246.425 218.464,249.957 219.376,251.056 218.277 C 251.209 218.125,251.771 218.000,252.305 218.000 C 256.473 218.000,256.116 212.574,251.892 211.721 C 251.282 211.597,250.686 211.340,250.568 211.148 C 250.450 210.957,249.191 210.800,247.771 210.800 C 245.369 210.800,244.310 211.110,242.800 212.255 C 242.470 212.505,241.597 212.617,240.859 212.503 C 240.122 212.390,239.679 212.185,239.875 212.049 C 240.257 211.781,245.014 205.492,245.255 204.935 C 245.452 204.479,249.039 202.000,249.502 202.000 C 249.706 202.000,251.061 203.419,252.513 205.154 C 255.309 208.495,256.496 209.014,258.167 207.627 C 258.541 207.317,259.329 207.011,259.918 206.949 C 261.088 206.824,261.008 206.857,266.200 204.348 C 272.948 201.087,275.580 196.470,270.724 196.413 C 269.058 196.393,269.007 195.710,270.544 194.009 C 272.197 192.180,273.200 190.371,273.200 189.220 C 273.200 187.386,270.151 186.009,268.887 187.273 C 267.867 188.293,268.055 187.193,269.397 184.290 C 271.253 180.272,271.299 178.279,269.556 177.377 C 268.833 177.003,268.434 176.931,268.603 177.205 M237.099 182.793 C 234.405 184.912,230.711 186.155,222.400 187.739 L 219.400 188.311 221.676 188.355 C 222.928 188.380,224.064 188.220,224.200 188.000 C 224.336 187.780,225.112 187.598,225.924 187.595 C 229.806 187.583,239.489 183.356,238.318 182.185 C 238.210 182.077,237.662 182.351,237.099 182.793 M239.632 184.300 C 239.615 185.235,239.780 186.000,240.000 186.000 C 240.220 186.000,240.400 186.549,240.400 187.220 C 240.400 188.645,241.235 190.398,242.695 192.036 C 244.311 193.850,244.662 193.403,243.115 191.500 C 241.645 189.692,240.811 187.741,240.782 186.040 C 240.772 185.468,240.517 184.460,240.214 183.800 L 239.665 182.600 239.632 184.300 M139.221 184.113 C 139.209 184.504,139.459 184.924,139.775 185.046 C 140.091 185.167,140.259 185.503,140.147 185.793 C 140.036 186.082,140.107 186.419,140.305 186.541 C 140.892 186.904,140.607 185.361,139.898 184.343 C 139.349 183.554,139.239 183.516,139.221 184.113 M206.833 185.100 C 207.024 185.925,207.185 189.537,207.190 193.127 L 207.200 199.654 206.300 199.406 C 205.471 199.178,205.455 199.203,206.100 199.723 C 207.136 200.559,206.966 200.975,205.300 201.684 C 198.931 204.393,190.644 206.249,187.325 205.710 C 184.413 205.238,182.884 202.023,184.933 200.680 C 186.174 199.867,186.126 198.838,184.833 198.557 C 178.312 197.137,176.866 193.600,182.807 193.600 C 184.094 193.600,185.610 193.776,186.174 193.990 C 186.762 194.214,187.200 194.226,187.200 194.019 C 187.200 193.821,187.491 193.600,187.846 193.529 C 188.256 193.447,187.490 192.714,185.746 191.521 C 181.945 188.920,179.489 186.608,178.910 185.087 L 178.420 183.800 178.579 185.121 C 178.787 186.861,182.972 190.989,186.334 192.770 C 187.775 193.533,187.211 193.609,184.402 193.031 C 177.326 191.572,175.765 196.433,182.617 198.588 C 185.030 199.347,185.166 199.545,184.000 200.600 C 182.060 202.355,183.657 205.499,186.912 206.334 C 188.960 206.858,195.153 206.011,198.200 204.788 C 198.640 204.611,199.360 204.379,199.800 204.272 C 203.097 203.470,207.400 201.598,207.402 200.966 C 207.403 200.581,207.583 200.206,207.802 200.133 C 208.276 199.975,208.181 193.022,207.634 187.800 C 207.427 185.820,207.244 184.065,207.228 183.900 C 207.213 183.735,207.039 183.600,206.842 183.600 C 206.633 183.600,206.629 184.225,206.833 185.100 M209.035 183.944 C 208.868 184.214,208.949 184.697,209.215 185.018 C 209.480 185.338,209.599 185.600,209.478 185.600 C 209.357 185.600,209.900 186.315,210.685 187.189 C 211.470 188.063,212.286 188.671,212.499 188.539 C 212.711 188.408,212.730 188.188,212.540 188.050 C 212.027 187.678,209.835 184.722,209.569 184.043 C 209.394 183.597,209.264 183.573,209.035 183.944 M165.280 187.280 C 165.016 187.544,164.800 187.921,164.800 188.118 C 164.800 188.315,164.420 189.010,163.956 189.661 C 163.492 190.313,163.203 190.936,163.313 191.046 C 163.423 191.156,163.929 190.651,164.437 189.923 C 164.945 189.195,165.460 188.510,165.581 188.400 C 165.833 188.170,166.104 186.800,165.898 186.800 C 165.822 186.800,165.544 187.016,165.280 187.280 M264.000 187.400 C 264.000 187.730,264.180 188.000,264.400 188.000 C 264.620 188.000,264.800 187.730,264.800 187.400 C 264.800 187.070,264.620 186.800,264.400 186.800 C 264.180 186.800,264.000 187.070,264.000 187.400 M141.215 188.853 C 141.413 189.543,142.111 190.931,142.766 191.938 C 143.586 193.199,143.835 193.917,143.565 194.243 C 143.138 194.757,140.400 195.211,140.400 194.767 C 140.400 194.355,137.578 192.289,137.340 192.527 C 137.226 192.641,137.688 193.229,138.366 193.833 C 139.928 195.224,139.922 196.014,138.343 196.912 C 136.786 197.799,137.096 198.281,138.692 197.456 C 141.934 195.779,146.106 195.975,146.570 197.824 C 146.815 198.798,147.295 199.461,149.900 202.420 C 150.958 203.622,151.156 204.122,150.960 205.100 C 150.828 205.762,150.902 206.416,151.124 206.553 C 151.358 206.698,151.643 206.128,151.800 205.202 C 151.949 204.321,152.189 203.579,152.335 203.554 C 155.021 203.092,156.197 203.515,158.917 205.923 C 160.225 207.080,160.449 207.183,159.953 206.400 C 158.625 204.302,155.398 202.482,153.302 202.650 C 152.256 202.734,151.636 202.693,151.924 202.560 C 152.338 202.368,152.310 202.163,151.789 201.588 C 150.657 200.337,151.175 199.383,152.905 199.533 C 153.786 199.608,154.400 199.484,154.400 199.231 C 154.400 198.994,154.760 198.800,155.200 198.800 C 155.640 198.800,156.000 198.660,156.000 198.488 C 156.000 198.316,157.009 197.461,158.241 196.588 C 160.535 194.963,162.795 192.836,162.798 192.300 C 162.802 191.661,162.029 192.050,161.099 193.155 C 158.795 195.893,153.038 199.598,152.274 198.834 C 151.184 197.744,149.645 199.787,150.437 201.273 C 150.875 202.095,150.860 202.142,150.309 201.687 C 149.432 200.964,149.143 199.597,149.813 199.340 C 150.952 198.903,152.046 195.853,151.562 194.464 C 151.316 193.757,151.214 192.123,151.333 190.789 C 151.462 189.345,151.398 188.477,151.174 188.616 C 150.968 188.743,150.800 190.692,150.800 192.947 C 150.800 197.318,150.359 198.666,149.089 198.179 C 148.710 198.033,148.400 197.664,148.400 197.357 C 148.400 197.051,148.211 196.800,147.980 196.800 C 147.748 196.800,147.311 196.215,147.007 195.500 C 146.704 194.785,145.993 193.580,145.428 192.822 C 144.863 192.065,144.400 191.230,144.400 190.969 C 144.400 190.544,141.452 187.600,141.027 187.600 C 140.933 187.600,141.018 188.164,141.215 188.853 M216.100 188.289 C 215.385 188.378,214.800 188.596,214.800 188.773 C 214.800 189.259,218.078 189.598,218.784 189.185 C 219.312 188.876,219.296 188.823,218.676 188.812 C 218.278 188.805,218.064 188.620,218.200 188.400 C 218.336 188.180,218.212 188.029,217.924 188.064 C 217.636 188.099,216.815 188.201,216.100 188.289 M143.191 190.483 C 143.186 190.767,142.830 190.550,142.400 190.000 C 141.373 188.687,141.373 188.006,142.400 189.108 C 142.840 189.580,143.196 190.199,143.191 190.483 M131.248 190.362 C 130.862 190.607,131.223 190.799,132.448 191.001 C 133.411 191.160,134.380 191.428,134.600 191.596 C 135.266 192.105,136.800 192.476,136.797 192.127 C 136.792 191.662,134.808 190.800,133.744 190.800 C 133.251 190.800,132.736 190.620,132.600 190.400 C 132.299 189.913,131.972 189.904,131.248 190.362 M120.467 193.656 C 118.832 195.328,119.345 197.910,121.328 197.987 C 121.508 197.994,122.408 198.516,123.328 199.147 C 124.248 199.778,125.675 200.408,126.500 200.547 C 127.325 200.686,128.609 200.907,129.353 201.038 C 130.156 201.180,130.816 201.098,130.976 200.838 C 131.125 200.597,131.822 200.387,132.524 200.372 C 133.226 200.356,134.160 200.182,134.600 199.984 C 135.107 199.756,134.447 199.723,132.800 199.894 C 131.370 200.042,129.840 200.148,129.400 200.130 C 126.615 200.012,124.880 199.795,125.012 199.580 C 125.097 199.444,124.583 199.054,123.871 198.715 C 120.368 197.044,119.352 195.368,121.038 194.042 C 121.608 193.593,122.007 193.022,121.924 192.773 C 121.841 192.524,121.186 192.921,120.467 193.656 M145.986 195.100 C 146.002 195.674,145.624 195.730,144.886 195.262 C 144.604 195.083,144.481 194.654,144.614 194.308 C 144.746 193.963,144.662 193.562,144.427 193.417 C 144.192 193.272,144.001 192.938,144.002 192.676 C 144.005 192.051,145.967 194.449,145.986 195.100 M200.162 194.862 C 199.991 195.137,200.051 195.215,200.311 195.055 C 200.549 194.908,200.858 194.970,200.996 195.193 C 201.134 195.417,200.922 195.615,200.524 195.634 C 200.060 195.656,200.184 195.785,200.869 195.991 C 201.456 196.169,202.167 196.456,202.448 196.630 C 203.081 197.021,204.800 197.123,204.573 196.756 C 204.482 196.609,203.919 196.366,203.322 196.216 C 202.724 196.066,201.993 195.596,201.695 195.172 C 201.080 194.293,200.576 194.191,200.162 194.862 M143.600 195.600 C 142.807 196.113,141.083 196.113,141.400 195.600 C 141.536 195.380,142.222 195.203,142.924 195.206 C 143.895 195.211,144.057 195.305,143.600 195.600 M148.243 198.300 C 149.075 199.396,148.890 199.847,148.000 198.892 C 147.560 198.420,147.200 197.936,147.200 197.817 C 147.200 197.376,147.727 197.621,148.243 198.300 M161.901 204.143 C 160.384 205.010,160.095 205.709,160.800 206.800 C 161.116 207.288,161.189 207.238,161.194 206.529 C 161.201 205.536,162.280 204.279,162.832 204.620 C 163.035 204.745,163.200 204.657,163.200 204.424 C 163.200 203.432,165.693 204.013,166.963 205.300 C 169.589 207.962,172.915 219.410,171.544 221.070 C 171.079 221.634,171.087 221.701,171.600 221.530 C 172.624 221.187,172.276 216.526,170.857 211.600 C 169.984 208.568,169.827 208.152,169.045 206.800 C 167.050 203.350,164.772 202.503,161.901 204.143 M142.816 206.075 C 141.929 207.027,141.774 207.813,142.395 208.197 C 142.615 208.333,142.693 208.186,142.570 207.866 C 141.968 206.297,146.003 205.058,148.000 206.200 C 149.459 207.034,149.961 206.908,148.800 206.000 C 147.334 204.853,143.914 204.896,142.816 206.075 M242.363 207.677 C 241.855 208.405,241.331 209.090,241.200 209.200 C 239.945 210.252,239.109 212.162,239.576 212.910 C 240.048 213.667,240.003 213.701,238.837 213.467 C 237.864 213.273,237.488 213.390,237.101 214.009 C 236.830 214.444,236.460 214.800,236.279 214.800 C 236.098 214.800,236.962 213.606,238.200 212.148 C 239.437 210.689,240.754 209.024,241.125 208.448 C 242.092 206.947,242.931 205.998,243.122 206.189 C 243.213 206.280,242.871 206.949,242.363 207.677 M141.467 209.067 C 140.956 209.577,141.206 210.718,142.033 211.656 C 142.754 212.472,142.827 212.492,142.573 211.800 C 142.411 211.360,142.247 210.596,142.209 210.103 C 142.129 209.071,141.850 208.683,141.467 209.067 M250.227 211.789 C 252.258 212.394,255.204 214.494,255.195 215.329 C 255.183 216.474,252.350 217.677,249.624 217.694 C 246.798 217.712,245.848 217.371,243.609 215.539 C 242.844 214.912,241.899 214.400,241.509 214.400 C 241.119 214.400,240.800 214.220,240.800 214.000 C 240.800 213.780,241.145 213.600,241.567 213.600 C 241.988 213.600,242.393 213.430,242.467 213.223 C 242.992 211.738,247.355 210.932,250.227 211.789 M185.015 211.975 C 184.871 212.209,184.403 212.400,183.976 212.400 C 183.549 212.400,183.200 212.580,183.200 212.800 C 183.200 213.327,183.365 213.309,185.062 212.600 C 186.878 211.841,190.901 211.828,193.375 212.573 C 194.422 212.887,195.575 213.028,195.939 212.885 C 197.001 212.467,193.892 211.921,189.339 211.725 C 186.720 211.612,185.185 211.701,185.015 211.975 M143.762 213.800 C 144.356 214.350,145.156 214.800,145.541 214.800 C 145.925 214.800,146.456 215.016,146.720 215.280 C 147.087 215.647,147.200 215.649,147.200 215.285 C 147.200 215.024,146.592 214.557,145.849 214.246 C 145.106 213.936,144.375 213.483,144.225 213.241 C 144.075 212.998,143.667 212.800,143.318 212.800 C 142.857 212.800,142.978 213.073,143.762 213.800 M180.470 214.422 C 179.274 215.936,179.841 215.933,181.615 214.416 C 182.768 213.431,182.866 213.233,182.200 213.238 C 181.760 213.242,180.981 213.774,180.470 214.422 M202.021 214.123 C 202.465 214.629,205.200 215.600,205.200 215.252 C 205.200 215.055,204.795 214.805,204.300 214.698 C 203.805 214.591,203.040 214.361,202.600 214.188 C 202.160 214.014,201.899 213.985,202.021 214.123 M205.600 214.162 C 205.600 214.284,206.365 214.783,207.300 215.270 C 208.584 215.940,208.819 216.196,208.260 216.316 C 207.632 216.450,207.684 216.559,208.606 217.037 C 209.827 217.670,210.520 217.790,209.600 217.208 C 209.270 217.000,209.000 216.601,209.000 216.322 C 209.000 216.044,208.235 215.394,207.300 214.878 C 206.365 214.362,205.600 214.040,205.600 214.162 M217.996 216.204 C 217.457 216.855,217.880 216.991,218.743 216.444 C 219.072 216.235,219.129 216.004,218.888 215.854 C 218.669 215.719,218.268 215.877,217.996 216.204 M178.236 217.693 C 176.851 220.810,176.715 226.167,177.952 228.900 C 179.185 231.624,179.850 231.977,178.895 229.400 C 178.528 228.410,178.086 227.600,177.914 227.600 C 177.213 227.600,177.596 221.241,178.431 219.009 C 179.441 216.309,179.294 215.313,178.236 217.693 M145.696 217.195 C 145.052 218.226,145.060 220.839,145.711 222.094 C 146.752 224.101,147.368 224.404,150.271 224.339 L 153.000 224.278 150.561 224.039 C 148.087 223.797,146.800 223.151,146.800 222.151 C 146.800 221.848,146.609 221.600,146.376 221.600 C 146.143 221.600,146.064 221.420,146.200 221.200 C 146.336 220.980,146.257 220.800,146.024 220.800 C 145.291 220.800,145.563 218.555,146.429 217.454 C 147.003 216.724,147.094 216.400,146.725 216.400 C 146.432 216.400,145.969 216.758,145.696 217.195 M233.200 218.000 C 232.430 218.648,231.627 219.183,231.415 219.189 C 231.203 219.195,231.653 218.667,232.415 218.016 C 233.177 217.365,233.980 216.830,234.200 216.827 C 234.420 216.824,233.970 217.352,233.200 218.000 M205.024 221.013 C 204.015 221.776,204.784 221.769,206.254 221.002 C 207.171 220.525,207.240 220.407,206.600 220.415 C 206.160 220.421,205.451 220.690,205.024 221.013 M167.722 224.488 C 165.027 226.291,164.641 227.259,167.169 225.874 C 168.030 225.403,168.648 224.878,168.543 224.708 C 168.439 224.539,168.551 224.400,168.793 224.400 C 169.035 224.400,169.620 224.040,170.092 223.600 C 171.494 222.294,170.374 222.713,167.722 224.488 M216.800 224.125 C 216.800 224.194,217.385 224.779,218.100 225.425 L 219.400 226.600 218.225 225.300 C 217.130 224.088,216.800 223.816,216.800 224.125 M153.072 225.492 C 152.710 226.068,153.430 227.600,154.063 227.600 C 154.361 227.600,154.370 227.442,154.092 227.100 C 153.869 226.825,153.617 226.240,153.534 225.800 C 153.428 225.243,153.287 225.149,153.072 225.492 M162.200 227.600 C 159.794 228.756,156.000 229.245,156.000 228.400 C 156.000 228.180,155.715 228.000,155.367 228.000 C 155.018 228.000,154.808 228.225,154.899 228.500 C 155.204 229.423,160.486 229.363,162.170 228.417 C 162.970 227.968,163.889 227.600,164.212 227.600 C 164.535 227.600,164.800 227.330,164.800 227.000 C 164.800 226.670,164.755 226.411,164.700 226.424 C 164.645 226.436,163.520 226.966,162.200 227.600 M219.200 227.533 C 219.200 227.790,218.705 228.025,218.100 228.054 C 217.090 228.104,217.078 228.124,217.946 228.288 C 218.919 228.473,219.960 227.827,219.473 227.340 C 219.323 227.190,219.200 227.277,219.200 227.533 M199.667 230.777 C 198.970 231.644,198.407 232.589,198.417 232.877 C 198.438 233.555,201.200 230.437,201.200 229.733 C 201.200 228.948,201.059 229.044,199.667 230.777 M180.318 232.792 C 180.822 233.212,181.228 233.701,181.219 233.878 C 181.198 234.275,183.311 235.372,185.228 235.961 C 187.028 236.514,192.800 236.544,192.800 236.000 C 192.800 235.780,193.329 235.600,193.976 235.600 C 194.623 235.600,195.266 235.417,195.404 235.193 C 195.542 234.970,195.823 234.891,196.028 235.017 C 196.585 235.362,197.194 234.850,196.958 234.235 C 196.793 233.805,196.416 233.858,195.093 234.498 C 191.226 236.366,184.957 235.838,182.115 233.406 C 181.212 232.633,180.231 232.006,179.936 232.013 C 179.614 232.021,179.765 232.331,180.318 232.792 M230.229 232.754 C 230.108 232.949,229.513 233.203,228.905 233.320 C 228.297 233.437,226.450 233.916,224.800 234.385 C 217.811 236.369,211.350 237.344,201.000 237.975 C 195.073 238.336,180.627 238.188,179.932 237.758 C 179.735 237.636,178.635 237.455,177.487 237.356 C 174.816 237.125,171.012 236.473,169.130 235.922 C 167.290 235.384,166.386 235.709,166.446 236.887 C 166.481 237.565,166.540 237.620,166.676 237.100 C 166.896 236.256,166.758 236.260,170.656 236.985 C 175.846 237.951,176.044 237.980,180.400 238.376 C 193.834 239.598,204.386 239.139,217.200 236.775 C 221.703 235.945,222.601 235.729,227.137 234.389 C 228.752 233.911,230.499 233.602,231.019 233.702 C 231.836 233.858,231.911 233.781,231.569 233.141 C 231.142 232.345,230.581 232.183,230.229 232.754 " stroke="none" fill="#cca17b" fill-rule="evenodd"></path><path id="path3" d="M278.000 177.200 C 277.450 177.376,275.559 177.538,273.797 177.560 L 270.594 177.600 270.733 179.348 C 270.841 180.704,270.550 181.794,269.433 184.211 C 268.059 187.184,267.860 188.300,268.887 187.273 C 270.151 186.009,273.200 187.386,273.200 189.220 C 273.200 190.371,272.197 192.180,270.544 194.009 C 269.007 195.710,269.058 196.393,270.724 196.413 C 275.580 196.470,272.948 201.087,266.200 204.348 C 261.008 206.857,261.088 206.824,259.918 206.949 C 259.329 207.011,258.541 207.317,258.167 207.627 C 256.496 209.014,255.309 208.495,252.513 205.154 C 251.061 203.419,249.706 202.000,249.502 202.000 C 249.039 202.000,245.452 204.479,245.255 204.935 C 245.014 205.492,240.257 211.781,239.875 212.049 C 239.679 212.185,240.122 212.390,240.859 212.503 C 241.597 212.617,242.470 212.505,242.800 212.255 C 244.310 211.110,245.369 210.800,247.771 210.800 C 249.191 210.800,250.450 210.957,250.568 211.148 C 250.686 211.340,251.282 211.597,251.892 211.721 C 256.116 212.574,256.473 218.000,252.305 218.000 C 251.771 218.000,251.209 218.125,251.056 218.277 C 249.957 219.376,246.425 218.464,243.651 216.365 C 242.321 215.358,241.159 214.800,240.392 214.800 C 239.736 214.800,239.200 214.620,239.200 214.400 C 239.200 213.441,237.988 214.221,234.995 217.108 C 231.474 220.504,229.395 222.054,226.816 223.205 C 225.760 223.676,224.170 225.318,222.717 227.439 C 222.221 228.163,221.542 228.853,221.208 228.972 C 220.873 229.091,220.060 229.510,219.400 229.902 C 215.120 232.446,208.713 232.532,203.687 230.111 C 202.524 229.551,201.534 229.162,201.487 229.247 C 201.439 229.331,201.104 229.940,200.741 230.600 C 200.379 231.260,199.339 232.378,198.430 233.085 C 197.521 233.792,196.780 234.512,196.784 234.685 C 196.788 234.858,196.536 235.002,196.224 235.005 C 195.912 235.008,195.524 235.143,195.362 235.305 C 195.199 235.467,194.557 235.600,193.933 235.600 C 193.310 235.600,192.800 235.780,192.800 236.000 C 192.800 237.638,181.150 235.421,181.103 233.774 C 181.097 233.568,180.775 233.178,180.387 232.906 C 177.327 230.763,176.119 222.268,178.232 217.761 C 179.085 215.941,181.345 213.200,181.993 213.200 C 182.223 213.200,182.813 212.992,183.305 212.738 C 183.797 212.483,184.513 212.123,184.895 211.938 C 185.805 211.495,192.658 211.501,193.526 211.944 C 194.790 212.590,197.200 212.790,197.200 212.248 C 197.200 207.698,205.400 201.763,211.063 202.215 C 217.629 202.739,224.352 206.099,224.391 208.876 C 224.396 209.248,224.560 209.652,224.755 209.772 C 225.689 210.349,226.852 216.419,226.489 218.819 C 226.068 221.600,226.317 221.753,228.571 220.100 C 232.246 217.404,233.941 215.600,232.800 215.600 C 232.385 215.600,232.109 215.383,229.346 212.892 C 227.824 211.520,226.904 210.197,225.247 207.000 C 224.415 205.393,224.125 198.095,224.805 195.849 C 225.694 192.910,226.413 191.600,227.136 191.600 C 227.950 191.600,232.400 195.579,232.400 196.307 C 232.400 196.578,232.538 196.800,232.706 196.800 C 234.149 196.800,236.372 207.421,235.324 209.308 C 234.749 210.342,234.624 214.400,235.166 214.400 C 235.368 214.400,236.115 213.635,236.827 212.700 C 237.539 211.765,238.409 210.730,238.761 210.400 C 240.920 208.373,244.423 202.391,243.959 201.523 C 243.353 200.390,243.383 194.781,243.997 194.402 C 244.386 194.161,243.062 192.077,241.962 191.200 C 241.332 190.697,240.400 188.323,240.400 187.220 C 240.400 186.549,240.220 186.000,240.000 186.000 C 239.780 186.000,239.600 185.291,239.600 184.424 C 239.600 182.491,239.019 182.056,237.870 183.128 C 235.889 184.977,228.912 187.586,225.924 187.595 C 225.112 187.598,224.336 187.780,224.200 188.000 C 224.064 188.220,223.018 188.406,221.876 188.413 C 220.734 188.420,219.484 188.666,219.097 188.959 C 216.868 190.651,208.693 187.588,209.067 185.200 C 209.154 184.642,208.646 184.000,208.117 184.000 C 207.615 184.000,207.556 184.586,207.743 187.700 C 208.181 194.960,208.204 199.999,207.802 200.133 C 207.583 200.206,207.403 200.581,207.402 200.966 C 207.400 201.598,203.097 203.470,199.800 204.272 C 199.360 204.379,198.640 204.611,198.200 204.788 C 195.153 206.011,188.960 206.858,186.912 206.334 C 183.657 205.499,182.060 202.355,184.000 200.600 C 185.166 199.545,185.030 199.347,182.617 198.588 C 175.765 196.433,177.326 191.572,184.402 193.031 C 187.211 193.609,187.775 193.533,186.334 192.770 C 184.734 191.922,179.548 187.531,178.857 186.439 C 178.222 185.434,178.114 185.410,175.600 185.706 C 174.170 185.874,171.511 186.118,169.692 186.247 C 167.002 186.439,166.308 186.624,165.978 187.241 C 165.755 187.659,165.713 188.003,165.886 188.006 C 166.059 188.009,166.004 188.144,165.765 188.306 C 165.525 188.468,164.656 189.590,163.833 190.800 C 161.817 193.765,160.896 194.721,158.250 196.588 C 157.012 197.461,156.000 198.316,156.000 198.488 C 156.000 198.660,155.640 198.800,155.200 198.800 C 154.760 198.800,154.400 198.994,154.400 199.231 C 154.400 199.484,153.786 199.608,152.905 199.533 C 151.175 199.383,150.657 200.337,151.789 201.588 C 152.310 202.163,152.338 202.368,151.924 202.560 C 151.636 202.693,152.247 202.735,153.281 202.653 C 155.100 202.507,158.498 204.141,159.394 205.591 C 159.747 206.162,160.400 206.102,160.400 205.499 C 160.400 204.632,163.795 203.091,165.082 203.374 C 167.054 203.807,169.317 206.406,170.154 209.200 C 173.422 220.104,172.895 222.745,166.800 226.030 C 165.810 226.563,164.940 227.135,164.867 227.300 C 164.793 227.465,164.484 227.600,164.179 227.600 C 163.874 227.600,162.983 227.960,162.200 228.400 C 158.593 230.426,153.071 228.772,153.018 225.649 C 153.001 224.632,152.915 224.596,150.252 224.481 C 148.393 224.400,147.297 224.154,146.863 223.721 C 144.928 221.785,144.580 218.281,146.172 216.749 C 147.244 215.717,146.937 214.800,145.520 214.800 C 143.611 214.800,140.591 210.216,141.655 208.933 C 141.955 208.572,142.150 207.984,142.090 207.625 C 141.747 205.601,146.529 204.264,148.576 205.813 C 150.937 207.598,152.019 204.827,149.900 202.420 C 147.295 199.461,146.815 198.798,146.570 197.824 C 146.176 196.255,145.637 196.058,142.800 196.452 C 139.442 196.918,139.026 197.062,137.634 198.233 C 136.145 199.486,133.952 200.400,132.436 200.400 C 131.782 200.400,131.125 200.597,130.976 200.838 C 130.821 201.090,130.173 201.180,129.453 201.050 C 128.764 200.925,127.480 200.704,126.600 200.559 C 125.720 200.413,124.280 199.817,123.400 199.235 C 122.520 198.652,121.319 197.933,120.730 197.636 C 119.330 196.931,118.969 195.462,119.890 194.221 C 120.647 193.200,124.317 190.800,125.119 190.800 C 125.384 190.800,125.600 190.665,125.601 190.500 C 125.602 190.179,117.607 190.275,116.100 190.613 C 115.078 190.843,114.912 192.047,115.650 193.881 C 115.897 194.497,116.240 195.360,116.411 195.800 C 118.014 199.916,122.986 208.800,123.686 208.800 C 123.859 208.800,124.000 209.011,124.000 209.269 C 124.000 210.708,132.752 219.499,138.201 223.534 C 141.870 226.250,142.578 226.706,145.400 228.170 C 146.280 228.626,147.090 229.099,147.200 229.221 C 147.310 229.342,148.120 229.765,149.000 230.161 C 149.880 230.557,151.490 231.313,152.579 231.840 C 153.667 232.368,154.871 232.800,155.255 232.800 C 155.639 232.800,156.064 232.980,156.200 233.200 C 156.336 233.420,156.851 233.600,157.344 233.600 C 157.837 233.600,158.411 233.749,158.620 233.930 C 158.829 234.112,159.810 234.493,160.800 234.777 C 161.790 235.061,163.050 235.443,163.600 235.627 C 165.044 236.110,166.097 236.167,166.930 235.807 C 167.331 235.634,168.321 235.685,169.130 235.922 C 171.012 236.473,174.816 237.125,177.487 237.356 C 178.635 237.455,179.735 237.636,179.932 237.758 C 180.627 238.188,195.073 238.336,201.000 237.975 C 211.330 237.345,217.763 236.376,224.800 234.390 C 226.450 233.924,228.250 233.442,228.800 233.318 C 229.350 233.194,230.025 232.915,230.300 232.697 C 230.636 232.432,230.990 232.459,231.377 232.781 C 231.938 233.246,233.164 232.901,235.695 231.566 C 236.077 231.365,236.591 231.200,236.837 231.200 C 238.810 231.200,253.110 222.671,258.649 218.191 C 262.880 214.769,272.000 204.913,272.000 203.763 C 272.000 203.490,272.145 203.207,272.323 203.133 C 272.773 202.948,275.200 199.344,275.200 198.861 C 275.200 198.644,275.342 198.407,275.515 198.333 C 276.179 198.052,281.600 187.789,281.600 186.813 C 281.600 186.580,281.759 186.077,281.953 185.695 C 283.292 183.063,284.922 177.456,284.478 177.011 C 284.157 176.690,279.136 176.836,278.000 177.200 M144.500 188.448 C 143.068 188.861,142.893 189.248,143.800 190.000 C 144.130 190.274,144.400 190.711,144.400 190.971 C 144.400 191.232,144.863 192.065,145.428 192.822 C 145.993 193.580,146.704 194.785,147.007 195.500 C 147.311 196.215,147.748 196.800,147.980 196.800 C 148.211 196.800,148.400 197.051,148.400 197.357 C 148.400 197.664,148.710 198.033,149.089 198.179 C 150.391 198.679,150.800 197.327,150.800 192.524 L 150.800 188.000 148.300 188.036 C 146.925 188.056,145.215 188.241,144.500 188.448 M135.200 189.200 C 134.650 189.376,133.570 189.545,132.800 189.574 L 131.400 189.628 132.400 190.200 C 132.950 190.514,133.698 190.778,134.062 190.786 C 135.043 190.807,137.827 192.384,139.343 193.778 C 140.339 194.693,140.982 194.969,141.906 194.877 C 143.967 194.671,144.063 194.052,142.458 191.316 L 141.000 188.833 138.600 188.856 C 137.280 188.869,135.750 189.024,135.200 189.200 " stroke="none" fill="#e3b393" fill-rule="evenodd"></path><path id="path4" d="M163.800 139.756 C 158.166 141.261,154.374 144.786,152.212 150.530 C 150.520 155.025,150.669 155.488,153.900 155.781 C 155.385 155.915,158.310 156.193,160.400 156.399 C 162.490 156.605,166.360 156.965,169.000 157.199 C 171.640 157.433,175.553 157.819,177.696 158.057 C 183.261 158.674,183.404 158.483,182.426 151.726 C 181.099 142.556,172.942 137.314,163.800 139.756 M228.442 140.287 C 226.456 141.265,224.314 144.968,223.409 148.985 L 223.142 150.170 221.871 148.694 C 217.004 143.047,211.659 147.769,211.614 157.756 L 211.600 160.913 209.935 159.021 C 206.339 154.936,201.054 158.238,201.077 164.555 C 201.091 168.421,201.822 170.730,205.271 177.800 C 205.980 179.254,206.158 179.864,205.721 179.347 C 203.495 176.713,201.159 177.676,199.775 181.800 C 199.569 182.415,199.464 182.462,199.322 182.000 C 197.009 174.480,190.499 170.992,190.263 177.146 C 190.183 179.231,190.373 179.297,186.966 175.993 C 184.438 173.542,180.684 171.183,180.154 171.713 C 180.055 171.812,180.565 172.132,181.287 172.424 C 182.672 172.986,185.257 174.837,186.600 176.230 C 187.040 176.686,188.169 177.901,189.108 178.930 C 191.255 181.280,191.216 181.294,190.934 178.279 C 190.674 175.490,191.239 174.400,192.947 174.400 C 194.672 174.400,196.721 177.170,199.015 182.600 L 199.691 184.200 200.346 181.955 C 201.157 179.172,201.782 178.400,203.226 178.400 C 204.707 178.400,205.944 179.959,205.008 180.644 C 204.178 181.251,204.245 181.600,205.192 181.600 C 205.704 181.600,206.074 181.954,206.236 182.600 C 206.374 183.150,206.647 183.600,206.843 183.600 C 207.040 183.600,207.221 184.005,207.246 184.500 C 207.281 185.177,207.338 185.227,207.476 184.700 C 207.576 184.315,208.018 184.000,208.456 184.000 C 209.429 184.000,209.210 183.040,207.747 180.883 C 203.370 174.433,200.468 164.550,202.049 161.474 C 202.713 160.182,204.472 158.400,205.083 158.400 C 205.377 158.400,205.816 158.895,206.058 159.500 C 206.301 160.105,206.648 160.960,206.830 161.400 C 207.011 161.840,207.427 163.010,207.753 164.000 C 208.080 164.990,208.911 167.330,209.600 169.200 C 210.289 171.070,211.117 173.410,211.439 174.400 C 211.761 175.390,212.200 176.513,212.413 176.895 C 212.626 177.277,212.800 177.941,212.800 178.371 C 212.800 178.801,212.944 179.242,213.121 179.351 C 213.297 179.460,213.693 180.472,214.000 181.600 C 214.307 182.728,214.703 183.740,214.879 183.849 C 215.713 184.365,215.144 186.256,213.809 187.404 C 212.105 188.869,212.061 189.200,213.573 189.200 C 214.434 189.200,214.821 188.963,215.028 188.310 C 215.184 187.821,215.929 186.490,216.685 185.352 C 218.092 183.233,218.360 183.091,222.000 182.556 C 222.770 182.443,223.760 182.194,224.200 182.002 C 225.026 181.643,226.629 181.314,229.400 180.936 C 230.280 180.816,231.171 180.556,231.380 180.359 C 231.589 180.162,232.309 179.994,232.980 179.986 C 234.306 179.970,238.470 179.051,239.168 178.620 C 239.802 178.228,239.695 179.608,238.985 180.969 C 238.497 181.905,238.478 182.203,238.888 182.462 C 239.675 182.961,240.119 182.660,240.487 181.375 C 241.422 178.113,241.813 177.263,243.121 175.647 C 246.495 171.480,254.125 170.636,259.280 173.859 C 260.943 174.899,264.000 179.121,264.000 180.378 C 264.000 181.529,264.512 181.401,265.112 180.100 C 265.905 178.377,268.316 176.727,269.283 177.245 C 269.715 177.476,270.168 177.565,270.290 177.444 C 270.411 177.322,270.024 177.037,269.429 176.811 C 268.277 176.373,267.332 176.676,266.418 177.778 C 265.422 178.979,264.180 178.511,262.500 176.300 C 257.773 170.083,247.656 169.464,242.842 175.096 L 241.318 176.878 240.656 175.224 C 240.226 174.150,239.503 173.280,238.592 172.742 L 237.189 171.915 239.495 170.537 C 244.130 167.768,245.796 164.720,244.642 161.114 C 243.295 156.903,239.292 154.452,236.339 156.032 C 235.156 156.666,235.169 156.521,236.632 152.800 C 240.105 143.966,235.440 136.840,228.442 140.287 M174.400 141.353 C 179.360 143.838,181.993 148.533,181.998 154.900 C 182.000 157.579,181.991 157.600,180.900 157.602 C 179.690 157.604,162.088 155.865,155.906 155.133 L 152.011 154.672 152.265 153.036 C 152.508 151.476,153.090 150.127,155.096 146.477 C 158.117 140.980,168.274 138.284,174.400 141.353 M233.177 140.452 C 234.219 140.815,234.431 141.070,234.256 141.752 C 234.136 142.218,233.926 143.140,233.789 143.800 C 233.652 144.460,233.394 145.360,233.215 145.800 C 233.037 146.240,232.670 147.410,232.400 148.400 C 232.130 149.390,231.761 150.560,231.581 151.000 C 231.400 151.440,231.036 152.520,230.771 153.400 C 230.506 154.280,230.134 155.405,229.945 155.900 C 229.391 157.346,228.729 158.953,228.421 159.600 C 228.263 159.930,227.885 161.055,227.580 162.100 C 227.275 163.145,226.885 164.000,226.713 164.000 C 226.541 164.000,226.400 164.253,226.400 164.562 C 226.400 164.871,226.060 165.816,225.645 166.662 C 225.229 167.508,224.123 169.775,223.187 171.700 C 221.283 175.613,220.976 175.857,220.674 173.700 C 220.558 172.875,220.289 170.940,220.074 169.400 C 219.860 167.860,219.562 166.299,219.412 165.931 C 219.261 165.563,219.345 164.877,219.597 164.406 C 219.886 163.866,219.917 163.373,219.683 163.074 C 218.895 162.071,218.172 157.378,217.746 150.500 L 217.541 147.200 218.557 147.200 C 219.798 147.200,222.400 149.669,222.400 150.847 C 222.400 152.033,223.337 151.556,223.734 150.167 C 223.918 149.525,224.246 148.370,224.462 147.600 C 226.095 141.782,229.346 139.116,233.177 140.452 M166.457 142.320 C 164.061 142.433,163.927 142.491,164.137 143.320 C 164.259 143.804,164.594 145.130,164.880 146.267 C 165.166 147.404,165.535 148.469,165.700 148.634 C 165.865 148.798,166.006 149.308,166.013 149.767 C 166.020 150.225,166.290 150.949,166.613 151.376 C 166.936 151.804,167.200 152.479,167.200 152.876 C 167.200 153.978,167.957 153.741,168.719 152.403 C 169.093 151.744,169.535 151.204,169.700 151.203 C 169.865 151.201,170.000 150.936,170.000 150.613 C 170.000 150.246,170.233 150.115,170.620 150.263 C 171.117 150.454,171.189 150.296,170.982 149.470 C 170.807 148.773,171.059 147.707,171.762 146.171 C 172.790 143.924,173.079 142.437,172.500 142.360 C 171.548 142.235,168.665 142.216,166.457 142.320 M236.804 143.300 C 238.275 145.712,237.646 149.812,235.007 155.026 C 233.823 157.364,233.795 157.326,236.282 156.751 C 241.924 155.449,246.167 160.010,241.000 161.823 C 237.583 163.021,237.085 163.213,236.305 163.629 C 235.923 163.833,235.336 164.000,235.000 164.000 C 234.664 164.000,234.032 164.180,233.595 164.400 C 233.158 164.620,232.442 164.980,232.005 165.200 C 231.568 165.420,230.884 165.600,230.485 165.600 C 230.086 165.600,229.589 165.757,229.380 165.948 C 229.171 166.140,228.510 166.412,227.911 166.553 C 226.751 166.826,226.738 166.723,227.636 164.500 C 227.979 163.653,228.307 162.833,229.160 160.700 C 229.357 160.205,229.736 159.170,230.000 158.400 C 230.264 157.630,230.638 156.640,230.830 156.200 C 231.156 155.452,233.907 146.842,234.888 143.500 C 235.427 141.662,235.783 141.625,236.804 143.300 M172.000 143.361 C 172.000 143.592,168.338 152.168,168.154 152.367 C 167.850 152.696,167.480 151.990,166.970 150.111 C 166.685 149.060,166.086 147.228,165.639 146.041 C 165.192 144.853,164.921 143.728,165.037 143.541 C 165.240 143.211,172.000 143.036,172.000 143.361 M157.900 146.033 C 157.515 146.455,157.200 146.952,157.200 147.138 C 157.200 147.324,156.471 148.604,155.579 149.984 C 153.657 152.958,153.549 152.775,157.610 153.425 C 165.128 154.629,166.788 154.159,164.303 151.531 C 163.743 150.939,162.009 148.862,160.230 146.653 C 158.901 145.001,158.854 144.989,157.900 146.033 M161.461 149.300 C 165.003 153.623,165.079 153.314,160.547 153.008 C 154.411 152.593,154.640 152.928,157.455 148.500 C 159.084 145.938,158.634 145.848,161.461 149.300 M175.172 148.700 C 174.187 149.745,172.526 151.337,171.480 152.238 C 168.544 154.765,169.011 155.200,174.655 155.200 C 180.091 155.200,180.038 155.253,179.013 150.851 C 177.918 146.146,177.694 146.021,175.172 148.700 M216.428 147.900 C 216.506 148.722,217.265 155.807,217.596 158.800 C 217.803 160.670,218.165 163.550,218.400 165.200 C 218.636 166.850,218.986 169.370,219.179 170.800 C 219.372 172.230,219.711 174.210,219.933 175.200 C 220.308 176.879,219.788 179.126,218.820 180.000 C 218.698 180.110,218.364 180.650,218.077 181.200 C 216.721 183.800,215.200 184.194,215.200 181.946 C 215.200 181.530,215.041 180.877,214.847 180.495 C 214.652 180.113,214.315 179.350,214.096 178.800 C 213.878 178.250,213.497 177.297,213.250 176.681 C 213.002 176.066,212.800 175.299,212.800 174.977 C 212.800 174.441,211.655 171.584,210.767 169.905 C 210.565 169.523,210.400 168.859,210.400 168.429 C 210.400 167.999,210.256 167.558,210.079 167.449 C 209.903 167.340,209.507 166.328,209.200 165.200 C 208.893 164.072,208.497 163.060,208.321 162.951 C 208.144 162.842,208.000 162.401,208.000 161.971 C 208.000 161.218,207.859 160.836,206.871 158.919 C 206.307 157.825,206.823 157.445,208.090 158.022 C 208.978 158.427,211.200 161.566,211.200 162.416 C 211.200 162.627,211.380 162.800,211.600 162.800 C 211.833 162.800,212.000 161.491,212.000 159.673 C 212.000 154.488,212.959 150.262,214.534 148.500 C 215.316 147.626,216.371 147.292,216.428 147.900 M177.768 149.385 C 178.086 150.146,178.472 151.605,178.625 152.626 L 178.903 154.483 175.255 154.311 C 170.617 154.094,170.661 154.223,174.082 150.856 C 177.491 147.501,177.054 147.675,177.768 149.385 M127.347 155.803 C 123.717 163.732,127.968 175.701,135.925 179.960 C 136.407 180.218,137.268 181.350,137.839 182.476 C 138.505 183.791,138.984 184.350,139.176 184.038 C 139.509 183.500,140.169 184.365,141.317 186.845 C 141.684 187.640,142.277 188.532,142.634 188.828 C 142.990 189.124,142.165 187.249,140.799 184.662 C 138.091 179.532,138.099 179.595,139.566 175.438 C 142.004 168.531,139.013 160.379,132.135 155.186 C 129.242 153.002,128.591 153.086,127.347 155.803 M131.469 155.468 C 139.239 161.377,141.769 169.399,138.332 177.229 L 137.529 179.059 138.416 180.945 C 138.904 181.982,139.198 182.935,139.071 183.063 C 138.943 183.190,138.517 182.553,138.125 181.647 C 137.732 180.741,137.195 180.000,136.930 180.000 C 136.197 180.000,130.656 174.430,129.419 172.449 C 125.908 166.827,125.453 160.512,128.179 155.241 C 128.988 153.677,129.127 153.687,131.469 155.468 M244.297 163.841 C 244.049 166.038,241.503 168.919,238.453 170.456 C 235.906 171.739,235.339 172.800,237.201 172.800 C 239.840 172.800,241.241 177.089,238.800 177.695 C 238.030 177.886,236.680 178.223,235.800 178.444 C 234.920 178.665,233.300 179.013,232.200 179.216 C 231.100 179.420,229.390 179.779,228.400 180.014 C 219.736 182.069,218.661 182.150,219.585 180.682 C 220.110 179.849,220.757 178.667,223.600 173.359 C 224.260 172.127,224.800 170.940,224.800 170.721 C 224.800 169.712,226.492 168.100,228.076 167.600 C 229.024 167.301,229.980 166.946,230.200 166.811 C 230.420 166.677,231.320 166.337,232.200 166.057 C 233.877 165.523,235.326 164.948,236.495 164.353 C 236.877 164.159,237.522 164.000,237.928 164.000 C 238.334 164.000,238.800 163.867,238.963 163.704 C 239.311 163.356,243.151 162.065,243.952 162.026 C 244.374 162.006,244.455 162.435,244.297 163.841 M161.769 168.898 C 156.375 172.542,152.600 178.495,151.558 185.000 C 151.382 186.100,151.116 187.450,150.967 188.000 C 150.713 188.934,150.740 188.957,151.384 188.349 C 151.808 187.949,152.120 186.947,152.193 185.749 C 152.455 181.506,155.138 175.625,158.194 172.598 C 160.669 170.148,165.366 167.008,165.986 167.391 C 166.718 167.844,167.357 172.034,167.328 176.200 C 167.301 180.201,167.123 181.312,165.772 185.900 C 165.626 186.395,165.668 186.800,165.865 186.800 C 166.223 186.800,167.159 183.433,168.011 179.080 C 168.513 176.516,167.942 170.517,166.966 168.100 C 166.239 166.301,165.429 166.425,161.769 168.898 M178.397 172.603 C 177.270 173.962,178.973 177.752,182.274 181.234 L 183.634 182.669 181.471 182.489 C 179.551 182.330,179.235 182.415,178.654 183.244 C 177.706 184.597,177.850 185.099,178.829 183.854 C 179.780 182.645,180.954 182.519,183.062 183.400 C 185.462 184.403,185.422 184.090,182.754 180.983 C 178.639 176.192,177.743 174.189,179.062 172.731 C 179.426 172.329,179.538 172.000,179.311 172.000 C 179.084 172.000,178.673 172.272,178.397 172.603 M179.200 173.013 C 179.200 173.390,182.046 176.087,182.240 175.893 C 182.343 175.791,181.773 175.053,180.973 174.253 C 179.549 172.829,179.200 172.585,179.200 173.013 M249.616 174.272 C 243.821 175.483,240.872 184.865,244.858 189.405 C 246.802 191.620,250.128 189.989,251.000 186.393 C 251.908 182.650,253.391 183.852,254.587 189.300 C 255.402 193.007,255.653 193.122,256.343 190.100 C 257.287 185.962,258.353 183.175,259.587 181.617 C 261.136 179.660,261.112 179.138,259.389 177.416 C 256.864 174.891,252.843 173.597,249.616 174.272 M255.913 175.764 C 259.530 177.612,260.895 179.428,259.569 180.628 C 258.474 181.619,257.307 184.235,256.444 187.634 C 255.549 191.159,255.358 191.305,255.021 188.718 C 254.870 187.553,254.516 186.060,254.235 185.400 C 253.745 184.251,253.776 184.174,254.962 183.596 C 256.334 182.927,256.598 181.738,255.523 181.060 C 254.699 180.541,253.200 181.703,253.200 182.862 C 253.200 183.317,252.912 183.600,252.449 183.600 C 252.036 183.600,251.474 183.870,251.200 184.200 C 250.926 184.530,250.278 184.800,249.759 184.800 C 249.092 184.800,248.743 185.086,248.570 185.777 C 248.273 186.960,248.678 187.732,249.440 187.440 C 251.030 186.830,249.142 188.879,247.370 189.686 C 245.492 190.542,243.600 187.688,243.600 184.001 C 243.600 176.972,249.957 172.720,255.913 175.764 M182.643 176.967 C 182.776 177.315,183.061 177.600,183.276 177.600 C 183.802 177.600,183.473 176.691,182.875 176.492 C 182.582 176.394,182.493 176.577,182.643 176.967 M250.127 179.447 C 249.782 180.346,250.488 182.167,251.237 182.312 C 252.122 182.482,252.924 180.578,252.388 179.577 C 251.883 178.635,250.470 178.553,250.127 179.447 M251.928 180.331 C 252.009 180.885,251.844 181.200,251.471 181.200 C 250.812 181.200,250.272 180.130,250.635 179.543 C 251.020 178.921,251.789 179.391,251.928 180.331 M186.093 180.800 C 186.562 181.551,187.200 181.880,187.200 181.371 C 187.200 181.073,186.125 180.000,185.825 180.000 C 185.698 180.000,185.818 180.360,186.093 180.800 M207.390 181.580 C 208.147 183.045,208.148 183.200,207.400 183.200 C 207.070 183.200,206.798 182.975,206.795 182.700 C 206.792 182.425,206.681 181.795,206.548 181.300 C 206.207 180.030,206.667 180.183,207.390 181.580 M267.046 181.100 C 266.911 181.485,266.695 182.025,266.566 182.300 C 266.438 182.575,266.507 182.800,266.720 182.800 C 266.933 182.800,267.218 182.485,267.354 182.100 C 267.489 181.715,267.705 181.175,267.834 180.900 C 267.962 180.625,267.893 180.400,267.680 180.400 C 267.467 180.400,267.182 180.715,267.046 181.100 M247.300 181.494 C 246.272 181.849,246.769 183.130,248.044 183.410 C 250.032 183.846,250.826 182.749,249.108 181.939 C 248.389 181.599,247.575 181.399,247.300 181.494 M255.661 182.210 C 255.662 182.748,254.501 183.434,254.162 183.096 C 253.813 182.746,254.793 181.531,255.290 181.697 C 255.494 181.765,255.660 181.995,255.661 182.210 M189.019 183.680 C 192.278 187.144,199.369 194.000,199.691 194.000 C 199.876 194.000,199.391 193.364,198.613 192.587 C 197.009 190.982,196.846 190.400,198.000 190.400 C 199.354 190.400,198.883 189.603,197.500 189.553 C 196.785 189.527,196.076 189.523,195.925 189.544 C 195.774 189.566,193.890 187.877,191.739 185.792 C 187.677 181.853,186.276 180.766,189.019 183.680 M248.567 182.243 C 249.486 182.595,249.345 183.163,248.400 182.916 C 247.960 182.801,247.600 182.548,247.600 182.353 C 247.600 181.935,247.728 181.921,248.567 182.243 M265.600 184.200 C 265.600 184.530,265.780 184.800,266.000 184.800 C 266.220 184.800,266.400 184.530,266.400 184.200 C 266.400 183.870,266.220 183.600,266.000 183.600 C 265.780 183.600,265.600 183.870,265.600 184.200 M140.014 186.620 C 140.022 186.829,140.299 187.450,140.631 188.000 L 141.233 189.000 140.972 188.000 C 140.699 186.957,139.989 185.933,140.014 186.620 M218.200 188.400 C 218.064 188.620,218.323 188.800,218.776 188.800 C 219.229 188.800,219.600 188.620,219.600 188.400 C 219.600 188.180,219.341 188.000,219.024 188.000 C 218.707 188.000,218.336 188.180,218.200 188.400 M203.200 190.600 C 203.200 191.810,203.380 192.800,203.600 192.800 C 203.820 192.800,204.000 191.810,204.000 190.600 C 204.000 189.390,203.820 188.400,203.600 188.400 C 203.380 188.400,203.200 189.390,203.200 190.600 M200.000 188.981 C 200.000 189.492,200.973 191.200,201.264 191.200 C 201.805 191.200,201.650 189.993,201.029 189.371 C 200.463 188.806,200.000 188.630,200.000 188.981 M125.561 190.456 L 124.600 191.313 126.000 191.032 C 126.770 190.877,128.345 190.646,129.500 190.519 C 132.417 190.198,132.132 189.600,129.061 189.600 C 127.033 189.600,126.329 189.772,125.561 190.456 M122.889 191.823 C 121.568 192.748,121.812 193.269,123.197 192.481 C 123.856 192.107,124.396 191.665,124.397 191.500 C 124.401 191.029,123.856 191.146,122.889 191.823 M261.396 193.352 C 261.026 194.132,260.810 195.002,260.915 195.285 C 261.041 195.623,261.204 195.525,261.390 195.000 C 261.545 194.560,261.866 193.795,262.104 193.301 C 262.341 192.806,262.430 192.296,262.301 192.168 C 262.173 192.040,261.766 192.573,261.396 193.352 M187.200 194.000 C 187.200 194.220,187.425 194.402,187.700 194.405 C 187.975 194.408,188.650 194.521,189.200 194.655 C 190.175 194.894,190.180 194.884,189.400 194.263 C 188.501 193.546,187.200 193.391,187.200 194.000 M199.992 195.205 C 199.219 195.682,199.617 195.966,200.573 195.619 C 200.999 195.464,201.170 195.229,200.954 195.095 C 200.738 194.962,200.306 195.011,199.992 195.205 M268.076 196.084 C 267.536 196.624,268.163 197.600,269.049 197.600 C 269.730 197.600,269.732 197.207,269.053 196.314 C 268.663 195.800,268.418 195.742,268.076 196.084 M195.600 196.400 C 195.600 196.620,196.140 196.800,196.800 196.800 C 197.460 196.800,198.000 196.620,198.000 196.400 C 198.000 196.180,197.460 196.000,196.800 196.000 C 196.140 196.000,195.600 196.180,195.600 196.400 M260.000 196.600 C 260.000 196.930,260.180 197.200,260.400 197.200 C 260.620 197.200,260.800 196.930,260.800 196.600 C 260.800 196.270,260.620 196.000,260.400 196.000 C 260.180 196.000,260.000 196.270,260.000 196.600 M203.200 197.128 C 203.200 197.638,205.243 199.290,205.525 199.008 C 205.664 198.870,205.589 198.631,205.359 198.478 C 205.130 198.325,204.825 197.885,204.683 197.500 C 204.427 196.806,203.200 196.498,203.200 197.128 M225.606 197.900 C 225.603 198.615,225.780 199.200,226.000 199.200 C 226.508 199.200,226.508 197.986,226.000 197.200 C 225.706 196.745,225.611 196.914,225.606 197.900 M135.206 198.823 C 133.859 199.574,133.847 199.600,134.862 199.600 C 135.439 199.600,136.336 199.246,136.856 198.813 C 138.105 197.772,137.080 197.778,135.206 198.823 M259.200 198.600 C 259.200 198.930,259.380 199.200,259.600 199.200 C 259.820 199.200,260.000 198.930,260.000 198.600 C 260.000 198.270,259.820 198.000,259.600 198.000 C 259.380 198.000,259.200 198.270,259.200 198.600 M185.800 199.600 C 185.936 199.820,186.407 200.000,186.847 200.000 C 187.287 200.000,187.536 199.820,187.400 199.600 C 187.264 199.380,186.793 199.200,186.353 199.200 C 185.913 199.200,185.664 199.380,185.800 199.600 M258.238 200.758 C 257.813 201.228,257.704 201.617,257.954 201.771 C 258.177 201.909,258.563 201.642,258.812 201.177 C 259.417 200.046,259.095 199.811,258.238 200.758 M152.802 203.867 C 152.803 204.270,153.509 205.530,154.371 206.667 C 159.306 213.177,162.346 218.400,161.200 218.400 C 160.980 218.400,160.800 218.220,160.800 218.000 C 160.800 217.780,160.528 217.600,160.195 217.600 C 159.862 217.600,159.277 217.427,158.895 217.217 C 158.513 217.006,156.490 216.013,154.400 215.011 C 152.310 214.008,149.700 212.653,148.600 211.998 C 147.500 211.343,146.023 210.519,145.318 210.167 C 144.614 209.815,143.826 209.273,143.569 208.963 C 143.046 208.332,142.000 208.202,142.000 208.767 C 142.000 208.969,142.612 209.513,143.360 209.975 C 144.108 210.438,144.823 211.083,144.948 211.408 C 145.073 211.734,145.543 212.000,145.993 212.000 C 146.721 212.000,148.257 212.657,148.800 213.200 C 148.910 213.310,149.720 213.774,150.600 214.230 C 151.480 214.687,152.650 215.300,153.200 215.592 C 153.750 215.885,154.459 216.244,154.776 216.391 C 155.563 216.755,155.796 217.600,155.108 217.600 C 154.801 217.600,153.805 217.960,152.894 218.400 C 151.984 218.840,151.078 219.200,150.881 219.200 C 150.684 219.200,150.000 219.459,149.361 219.775 C 148.723 220.092,147.660 220.574,147.000 220.847 C 145.828 221.331,145.823 221.347,146.760 221.507 C 147.288 221.597,148.098 221.499,148.560 221.289 C 149.829 220.712,151.703 219.928,152.600 219.600 C 153.709 219.194,155.421 218.483,156.545 217.962 C 157.176 217.669,157.740 217.654,158.245 217.915 C 158.660 218.131,159.540 218.529,160.200 218.800 C 160.860 219.071,161.713 219.452,162.095 219.647 C 162.477 219.841,163.130 220.000,163.546 220.000 C 164.240 220.000,165.521 221.064,165.157 221.337 C 165.008 221.450,163.221 222.492,160.600 223.998 C 159.940 224.377,158.590 225.170,157.600 225.761 C 156.610 226.352,155.485 226.938,155.100 227.064 C 154.286 227.331,154.157 228.000,154.920 228.000 C 155.656 228.000,157.593 227.059,157.597 226.700 C 157.599 226.535,157.755 226.400,157.945 226.400 C 158.255 226.400,161.164 224.847,165.312 222.467 C 167.069 221.460,169.283 221.336,170.004 222.205 C 170.388 222.668,170.636 222.702,171.058 222.352 C 171.662 221.851,171.115 220.800,170.250 220.800 C 169.654 220.800,168.493 218.448,166.204 212.600 C 163.412 205.466,162.666 203.973,162.481 205.146 C 162.399 205.667,162.528 206.288,162.766 206.526 C 163.005 206.765,163.200 207.267,163.200 207.642 C 163.200 208.017,163.586 209.106,164.057 210.062 C 164.528 211.018,165.044 212.160,165.203 212.600 C 165.363 213.040,165.697 213.895,165.946 214.500 C 166.196 215.105,166.601 216.095,166.847 216.700 C 167.092 217.305,167.452 218.113,167.647 218.495 C 168.249 219.679,168.047 220.000,166.700 219.998 C 164.724 219.995,163.699 218.861,158.387 210.800 C 153.492 203.371,152.799 202.510,152.802 203.867 M212.986 204.023 C 212.675 204.526,213.544 205.268,214.200 205.060 C 214.420 204.990,214.600 204.681,214.600 204.372 C 214.600 203.664,213.372 203.398,212.986 204.023 M256.400 204.006 C 255.867 204.356,255.867 204.444,256.400 204.794 C 257.356 205.422,258.731 204.858,258.228 204.045 C 257.890 203.499,257.195 203.484,256.400 204.006 M213.299 206.100 C 212.771 206.761,212.874 216.234,213.415 216.775 C 213.701 217.061,214.302 216.869,215.354 216.154 C 216.464 215.399,216.998 215.238,217.319 215.559 C 218.047 216.287,218.509 216.059,218.251 215.100 C 218.058 214.381,218.391 213.860,219.904 212.510 C 221.448 211.134,221.689 210.751,221.200 210.444 C 220.870 210.237,220.060 209.682,219.400 209.210 C 214.933 206.021,213.816 205.452,213.299 206.100 M160.000 206.248 C 160.000 206.898,161.111 208.222,161.408 207.926 C 161.558 207.776,161.302 207.247,160.840 206.751 C 160.378 206.255,160.000 206.029,160.000 206.248 M206.384 207.122 C 200.252 211.791,200.327 211.515,204.632 213.570 C 206.520 214.471,208.678 215.677,209.428 216.249 C 211.758 218.026,212.412 216.905,211.207 213.200 C 211.028 212.650,210.583 211.120,210.218 209.800 C 209.079 205.686,208.658 205.391,206.384 207.122 M149.600 206.704 C 149.600 207.365,151.118 207.991,151.337 207.420 C 151.451 207.122,151.437 206.771,151.306 206.639 C 150.960 206.293,149.600 206.345,149.600 206.704 M209.725 211.256 C 211.030 216.565,211.101 216.430,207.929 214.681 C 203.426 212.199,202.805 211.806,202.803 211.438 C 202.798 210.860,207.700 206.811,208.415 206.803 C 208.533 206.801,209.122 208.805,209.725 211.256 M217.291 208.680 C 221.064 210.961,221.062 210.603,217.321 213.612 C 213.665 216.553,213.670 216.557,213.628 210.700 C 213.595 206.149,213.339 206.290,217.291 208.680 M195.600 213.157 C 195.600 213.514,196.541 214.000,197.233 214.000 C 197.435 214.000,197.600 213.730,197.600 213.400 C 197.600 213.027,197.222 212.800,196.600 212.800 C 196.050 212.800,195.600 212.961,195.600 213.157 M199.888 214.114 C 199.625 214.801,199.923 217.491,200.443 219.100 C 200.854 220.376,204.800 221.223,204.800 220.035 C 204.800 219.834,205.565 219.543,206.500 219.388 C 207.435 219.233,208.716 218.841,209.346 218.519 L 210.491 217.932 209.546 217.447 C 209.026 217.180,207.112 216.364,205.294 215.633 C 203.476 214.903,201.891 214.147,201.771 213.953 C 201.440 213.418,200.112 213.531,199.888 214.114 M185.406 215.227 C 178.810 218.517,178.395 228.591,184.725 231.746 C 191.133 234.941,196.491 232.882,198.713 226.372 C 201.173 219.160,192.345 211.766,185.406 215.227 M191.480 215.315 C 197.390 217.083,199.997 222.639,197.380 227.889 C 194.951 232.764,189.383 234.090,184.537 230.948 C 176.686 225.857,182.554 212.644,191.480 215.315 M205.408 216.261 C 209.409 217.998,209.395 218.089,205.006 219.010 C 201.050 219.841,201.122 219.876,200.883 217.000 C 200.658 214.281,200.798 214.259,205.408 216.261 M220.200 215.669 C 219.320 216.108,217.763 216.724,216.740 217.037 C 212.731 218.266,212.731 218.669,216.745 221.491 C 221.169 224.601,221.516 224.743,221.741 223.536 C 223.341 214.974,223.185 214.178,220.200 215.669 M147.038 215.845 C 146.857 216.316,146.962 216.424,147.428 216.245 C 147.779 216.110,148.141 216.000,148.233 216.000 C 148.325 216.000,148.400 215.820,148.400 215.600 C 148.400 214.948,147.307 215.145,147.038 215.845 M221.724 218.300 C 221.604 219.565,221.391 221.198,221.250 221.930 L 220.993 223.259 217.897 221.238 C 216.194 220.126,214.800 219.049,214.800 218.845 C 214.800 218.540,220.756 216.093,221.671 216.021 C 221.820 216.010,221.844 217.035,221.724 218.300 M187.342 219.807 C 187.034 220.610,187.986 222.870,188.555 222.686 C 189.232 222.466,190.037 220.563,189.760 219.840 C 189.448 219.027,187.651 219.003,187.342 219.807 M211.037 219.700 C 210.679 221.001,210.000 226.188,210.000 227.620 C 210.000 229.935,210.577 229.972,218.000 228.129 C 219.775 227.688,219.594 227.100,216.674 223.822 C 212.446 219.076,211.416 218.323,211.037 219.700 M189.086 221.234 C 188.441 222.267,188.000 222.199,188.000 221.067 C 188.000 219.873,188.387 219.491,189.045 220.038 C 189.453 220.376,189.462 220.632,189.086 221.234 M207.733 220.322 C 206.816 220.695,205.931 221.135,205.767 221.300 C 205.602 221.465,204.997 221.600,204.422 221.600 C 201.447 221.600,201.085 223.047,203.479 225.373 C 205.798 227.627,206.141 227.636,207.515 225.469 C 208.177 224.425,208.835 223.812,209.170 223.923 C 209.558 224.053,209.648 223.902,209.467 223.429 C 209.323 223.055,209.474 222.230,209.803 221.595 C 210.925 219.424,210.534 219.184,207.733 220.322 M214.713 222.877 C 215.971 224.240,217.333 225.698,217.740 226.117 C 218.778 227.187,218.270 227.501,214.402 228.176 C 210.328 228.887,210.641 229.201,211.165 224.932 C 211.403 222.990,211.598 221.175,211.599 220.900 C 211.601 219.897,212.475 220.452,214.713 222.877 M208.123 222.801 C 205.934 226.701,206.034 226.651,204.053 224.804 L 202.323 223.191 203.862 222.544 C 209.174 220.310,209.510 220.330,208.123 222.801 M191.200 222.000 C 189.645 223.555,190.818 225.004,192.656 223.800 C 193.734 223.094,193.905 221.803,192.967 221.443 C 192.090 221.106,192.095 221.105,191.200 222.000 M183.844 222.230 C 183.517 223.081,184.195 223.585,185.676 223.594 C 187.820 223.606,187.567 222.213,185.345 221.769 C 184.393 221.579,184.054 221.683,183.844 222.230 M192.307 222.800 C 191.734 223.718,191.200 223.847,191.200 223.067 C 191.200 222.387,191.588 222.000,192.270 222.000 C 192.707 222.000,192.714 222.149,192.307 222.800 M186.000 222.800 C 186.000 223.020,185.741 223.200,185.424 223.200 C 185.107 223.200,184.736 223.020,184.600 222.800 C 184.464 222.580,184.723 222.400,185.176 222.400 C 185.629 222.400,186.000 222.580,186.000 222.800 M152.978 224.035 C 152.831 224.274,152.910 224.670,153.155 224.915 C 153.482 225.242,153.600 225.126,153.600 224.480 C 153.600 223.514,153.392 223.365,152.978 224.035 M186.014 225.574 C 185.371 226.775,185.519 227.600,186.376 227.600 C 187.384 227.600,187.735 226.993,187.430 225.777 C 187.135 224.601,186.577 224.521,186.014 225.574 M189.671 225.857 C 189.866 226.851,191.070 227.490,191.652 226.908 C 192.017 226.543,192.009 226.293,191.614 225.817 C 190.915 224.975,189.503 225.004,189.671 225.857 M200.800 228.567 C 200.800 228.915,201.085 229.200,201.433 229.200 C 201.782 229.200,201.995 228.986,201.908 228.725 C 201.661 227.983,200.800 227.860,200.800 228.567 M232.000 234.243 C 232.000 234.483,233.008 236.696,236.037 243.107 C 236.897 244.927,237.600 246.588,237.600 246.800 C 237.600 247.046,224.248 247.152,200.900 247.093 C 176.715 247.032,164.219 246.864,164.257 246.600 C 164.755 243.103,164.778 242.658,164.421 243.482 C 164.211 243.967,163.985 245.047,163.920 245.882 L 163.800 247.400 200.778 247.502 C 221.116 247.558,237.904 247.456,238.085 247.275 C 238.266 247.094,237.581 245.158,236.562 242.973 C 235.544 240.788,234.188 237.875,233.548 236.500 C 232.508 234.265,232.000 233.525,232.000 234.243 M165.457 239.536 C 165.062 240.931,164.824 242.157,164.928 242.262 C 165.231 242.565,166.476 238.485,166.318 237.705 C 166.240 237.317,165.852 238.141,165.457 239.536 " stroke="none" fill="#9ecaac" fill-rule="evenodd"></path></g></svg>